<svg width="36" height="36" viewBox="0 0 36 36" fill="none" xmlns="http://www.w3.org/2000/svg">
<path opacity="0.976" fill-rule="evenodd" clip-rule="evenodd" d="M8.26172 2.21486C12.9992 2.18066 17.7337 2.21581 22.4648 2.32033C22.926 2.45713 23.3478 2.66806 23.7305 2.95314C25.711 4.93361 27.6914 6.91407 29.6719 8.89455C30.0717 9.43764 30.3062 10.047 30.375 10.7227C30.4219 16.7461 30.4219 22.7695 30.375 28.793C29.9514 31.0269 28.6037 32.0464 26.332 31.8516C25.936 31.7664 25.561 31.6258 25.207 31.4297C24.8048 31.0978 24.3829 30.7931 23.9414 30.5156C23.7071 30.4687 23.4726 30.4687 23.2383 30.5156C22.0698 31.3794 20.9213 32.27 19.793 33.1875C18.5742 33.8906 17.3554 33.8906 16.1367 33.1875C15.0084 32.27 13.8599 31.3794 12.6914 30.5156C12.4571 30.4687 12.2226 30.4687 11.9883 30.5156C11.4919 30.8947 10.9763 31.2463 10.4414 31.5703C8.75581 32.2125 7.33781 31.8492 6.1875 30.4805C5.92357 30.0932 5.73607 29.6713 5.625 29.2149C5.57812 21.1055 5.57812 12.9961 5.625 4.88673C6.00109 3.49116 6.88 2.60054 8.26172 2.21486ZM8.61328 4.53517C12.4805 4.53517 16.3477 4.53517 20.2148 4.53517C20.2031 6.24627 20.2148 7.95721 20.25 9.66798C20.6133 11.0625 21.4922 11.9414 22.8867 12.3047C24.6209 12.3399 26.3553 12.3516 28.0898 12.3399C28.1016 17.7774 28.0898 23.2149 28.0547 28.6524C27.718 29.5766 27.1204 29.7992 26.2617 29.3203C24.8925 28.0214 23.3691 27.8104 21.6914 28.6875C20.707 29.4844 19.7227 30.2813 18.7383 31.0781C18.3205 31.4114 17.8752 31.4583 17.4023 31.2188C16.2773 30.3281 15.1523 29.4375 14.0273 28.5469C12.9023 28.0313 11.7773 28.0313 10.6523 28.5469C10.2082 28.9096 9.73941 29.2378 9.2461 29.5313C8.44397 29.5939 7.98694 29.2307 7.875 28.4414C7.8281 20.8243 7.8281 13.207 7.875 5.58986C7.91902 5.08998 8.16511 4.73842 8.61328 4.53517ZM22.4648 5.02736C24.1616 6.68896 25.8491 8.36474 27.5273 10.0547C26.2148 10.1016 24.9024 10.1016 23.5898 10.0547C22.9453 9.97265 22.5821 9.60941 22.5 8.96486C22.4648 7.65255 22.4531 6.34006 22.4648 5.02736Z" fill="#F58220"/>
<path opacity="0.982" fill-rule="evenodd" clip-rule="evenodd" d="M15.3633 13.4648C16.233 13.3829 16.7252 13.7696 16.8398 14.625C16.8417 14.9008 16.7596 15.1469 16.5937 15.3633C16.1133 15.8437 15.6328 16.3242 15.1523 16.8047C18.1055 16.8281 21.0586 16.8516 24.0117 16.875C24.6433 17.1895 24.8659 17.6934 24.6797 18.3867C24.5508 18.7031 24.3281 18.9258 24.0117 19.0547C19.9805 19.1016 15.9492 19.1016 11.918 19.0547C11.2864 18.7402 11.0637 18.2362 11.25 17.543C11.2969 17.4492 11.3437 17.3554 11.3906 17.2617C12.5742 16.0781 13.7578 14.8945 14.9414 13.7109C15.0772 13.6083 15.2179 13.5264 15.3633 13.4648Z" fill="#F58220"/>
<path opacity="0.982" fill-rule="evenodd" clip-rule="evenodd" d="M11.918 21.3399C15.9493 21.3281 19.9806 21.3399 24.0117 21.375C24.6433 21.6895 24.8659 22.1934 24.6797 22.8867C24.6328 22.9805 24.586 23.0743 24.5391 23.168C23.3555 24.3515 22.1719 25.5352 20.9883 26.7188C20.2719 27.1392 19.6742 27.0103 19.1953 26.332C19.0264 25.8833 19.0733 25.4614 19.3359 25.0664C19.8164 24.586 20.2969 24.1055 20.7773 23.625C17.8242 23.6016 14.8711 23.5781 11.918 23.5547C11.4267 23.3573 11.1923 22.9941 11.2148 22.4649C11.2009 21.9294 11.4353 21.5544 11.918 21.3399Z" fill="#F58220"/>
</svg>
