<svg width="36" height="36" viewBox="0 0 36 36" fill="none" xmlns="http://www.w3.org/2000/svg">
<g clip-path="url(#clip0_73_214)">
<path d="M18 34.5C18 35.328 17.328 36 16.5 36H6.288C4.113 36 2.1465 34.986 1.026 33.2865C0.345 32.2545 0 31.077 0 29.7855C0 24.288 5.7045 18.06 9.105 14.8365C9.9915 13.9965 10.5 12.81 10.5 11.5815V3H9C8.172 3 7.5 2.328 7.5 1.5C7.5 0.672 8.172 0 9 0H25.5C26.328 0 27 0.672 27 1.5C27 2.328 26.328 3 25.5 3H24V11.5815C24 12.0735 24.0795 12.558 24.2355 13.0215C24.4995 13.806 24.078 14.6565 23.292 14.922C22.506 15.1875 21.657 14.7645 21.3915 13.9785C21.132 13.206 21 12.399 21 11.5815V3H13.5V11.5815C13.5 13.6305 12.651 15.6105 11.169 17.0145C9.174 18.906 7.5135 20.7555 6.216 22.5015H13.5C14.328 22.5015 15 23.1735 15 24.0015C15 24.8295 14.328 25.5015 13.5 25.5015H4.296C3.453 27.1005 3 28.554 3 29.787C3 30.4905 3.174 31.0965 3.531 31.635C4.0875 32.478 5.1435 33.0015 6.2895 33.0015H16.5015C17.3295 33.0015 18.0015 33.6735 18.0015 34.5015L18 34.5ZM35.448 31.1175C35.1705 31.599 34.6665 31.8675 34.1475 31.8675C33.894 31.8675 33.636 31.803 33.399 31.6665L31.9335 30.822C31.026 31.8 29.844 32.511 28.5 32.817V34.4985C28.5 35.3265 27.828 35.9985 27 35.9985C26.172 35.9985 25.5 35.3265 25.5 34.4985V32.817C24.156 32.5095 22.9725 31.8 22.0665 30.822L20.601 31.6665C20.364 31.803 20.1075 31.8675 19.8525 31.8675C19.3335 31.8675 18.8295 31.5975 18.552 31.1175C18.138 30.399 18.384 29.4825 19.1025 29.0685L20.577 28.218C20.3835 27.591 20.25 26.9385 20.25 26.2485C20.25 25.5585 20.385 24.906 20.577 24.279L19.1025 23.4285C18.384 23.016 18.138 22.098 18.552 21.3795C18.9645 20.661 19.8795 20.415 20.601 20.829L22.0665 21.6735C22.974 20.6955 24.156 19.9845 25.5 19.6785V17.997C25.5 17.169 26.172 16.497 27 16.497C27.828 16.497 28.5 17.169 28.5 17.997V19.6785C29.844 19.986 31.0275 20.6955 31.9335 21.6735L33.399 20.829C34.119 20.415 35.034 20.6625 35.448 21.3795C35.862 22.098 35.616 23.0145 34.8975 23.4285L33.423 24.279C33.6165 24.906 33.75 25.5585 33.75 26.2485C33.75 26.9385 33.615 27.591 33.423 28.218L34.8975 29.0685C35.616 29.481 35.862 30.399 35.448 31.1175ZM30.75 26.25C30.75 24.183 29.067 22.5 27 22.5C24.933 22.5 23.25 24.183 23.25 26.25C23.25 28.317 24.933 30 27 30C29.067 30 30.75 28.317 30.75 26.25Z" fill="#F58525"/>
</g>
<defs>
<clipPath id="clip0_73_214">
<rect width="36" height="36" fill="white"/>
</clipPath>
</defs>
</svg>
