<svg width="27" height="33" viewBox="0 0 27 33" fill="none" xmlns="http://www.w3.org/2000/svg">
<g clip-path="url(#clip0_66_46)">
<path d="M13.86 0.0882281C14.0643 0.176638 14.2652 0.272929 14.4629 0.374648C14.5194 0.403442 14.5759 0.432237 14.634 0.461903C14.817 0.55542 14.9994 0.649952 15.1819 0.744478C15.3097 0.809929 15.4375 0.875308 15.5654 0.940616C16.0785 1.20316 16.5906 1.46767 17.1 1.73713C20.0208 3.27954 23.1739 4.83613 26.427 5.53639C26.9016 5.6388 26.9016 5.6388 27 5.73529C27.0093 5.92215 27.0122 6.10932 27.0126 6.2964C27.013 6.38537 27.013 6.38537 27.0134 6.47614C27.0142 6.67641 27.0144 6.87668 27.0145 7.07695C27.0149 7.21999 27.0154 7.36303 27.0159 7.50607C27.017 7.89609 27.0176 8.28611 27.018 8.67613C27.0183 8.92012 27.0186 9.16411 27.019 9.4081C27.0203 10.1723 27.0212 10.9365 27.0215 11.7007C27.0219 12.5811 27.0235 13.4615 27.0261 14.3418C27.028 15.023 27.0289 15.7042 27.0291 16.3854C27.0292 16.7917 27.0297 17.1981 27.0313 17.6044C27.0328 17.9878 27.033 18.3712 27.0322 18.7546C27.0321 18.8944 27.0325 19.0341 27.0334 19.1738C27.0522 22.2783 25.5692 24.6703 23.4 26.8235C21.0299 29.1478 18.0682 30.8927 15.0971 32.3755C14.9859 32.431 14.8749 32.4868 14.7641 32.5428C14.6093 32.6208 14.4537 32.697 14.298 32.7732C14.209 32.8171 14.12 32.861 14.0284 32.9062C13.6154 33.0561 13.3462 33.044 12.9357 32.8886C12.7779 32.8108 12.7779 32.8108 12.6169 32.7315C12.5591 32.7033 12.5013 32.6751 12.4418 32.646C12.2539 32.5538 12.0669 32.4599 11.88 32.3658C11.7835 32.3178 11.7835 32.3178 11.6851 32.2688C9.36423 31.1131 7.1359 29.7811 5.13 28.1471C5.07763 28.1047 5.02527 28.0623 4.97131 28.0186C2.65653 26.1371 0.374951 23.6559 0.016875 20.5974C0.0113062 20.4973 0.0057375 20.3972 0 20.2941C0.339191 20.4316 0.550144 20.6391 0.804375 20.8952C0.879437 20.9704 0.954499 21.0456 1.03184 21.123C1.14478 21.2368 1.14478 21.2368 1.26 21.3529C1.37712 21.4674 1.37712 21.4674 1.4966 21.5842C1.61666 21.7023 1.73565 21.8215 1.85062 21.9444C2.61247 22.7481 3.62504 23.3392 4.65785 23.7442C5.07902 23.9857 5.37993 24.3174 5.715 24.6618C6.38134 25.3295 7.05932 25.9231 7.83 26.4706C7.88733 26.5121 7.94465 26.5536 8.00372 26.5964C9.56783 27.7278 11.2517 28.6552 12.96 29.5588C12.9897 29.4423 13.0194 29.3259 13.05 29.2059C13.3767 29.2059 13.7034 29.2059 14.04 29.2059C14.04 29.3223 14.04 29.4388 14.04 29.5588C16.5998 28.2442 19.0701 26.7829 21.15 24.7941C21.2399 24.7123 21.3299 24.6306 21.42 24.5491C22.8067 23.2712 23.9112 21.6102 23.9759 19.6978C23.9782 19.4785 23.9792 19.2592 23.9789 19.0399C23.9797 18.9181 23.9807 18.7962 23.9817 18.6744C23.9842 18.347 23.985 18.0197 23.9855 17.6923C23.9864 17.3489 23.9888 17.0056 23.9909 16.6622C23.9949 16.0135 23.9974 15.3648 23.9995 14.7161C24.002 13.9769 24.0059 13.2377 24.01 12.4985C24.0183 10.9794 24.0248 9.4603 24.03 7.94117C23.9467 7.92858 23.8635 7.916 23.7777 7.90303C23.4635 7.84831 23.1981 7.75366 22.9022 7.63683C22.8465 7.61491 22.7907 7.59299 22.7333 7.57041C22.5502 7.49803 22.3676 7.42468 22.185 7.3511C22.1211 7.32547 22.0573 7.29985 21.9915 7.27345C20.2376 6.56815 18.53 5.77749 16.836 4.94427C16.7424 4.89825 16.6488 4.85224 16.5524 4.80483C16.0825 4.57353 15.6131 4.34135 15.1444 4.1078C14.9711 4.02196 14.7979 3.93613 14.6246 3.85029C14.545 3.81028 14.4653 3.77026 14.3832 3.72903C14.309 3.69235 14.2348 3.65567 14.1583 3.61788C14.0939 3.58575 14.0295 3.55362 13.9631 3.52051C13.6755 3.40236 13.4288 3.31711 13.1275 3.41631C13.0626 3.45158 12.9977 3.48686 12.9308 3.5232C12.8547 3.56351 12.7786 3.60383 12.7002 3.64536C12.617 3.69081 12.5338 3.73626 12.4481 3.78308C12.2616 3.88157 12.0749 3.97978 11.8881 4.07777C11.7353 4.15828 11.7353 4.15828 11.5794 4.24041C4.50279 7.94117 4.50279 7.94117 2.97 7.94117C2.97 9.86293 2.97 11.7847 2.97 13.7647C2.2572 13.9685 1.5444 14.1723 0.81 14.3823C0.5427 14.4697 0.2754 14.5571 0 14.6471C0 11.7062 0 8.76529 0 5.73529C0.381119 5.58583 0.698491 5.50481 1.09687 5.42646C4.9399 4.58768 8.93922 2.39789 12.3521 0.493214C12.4139 0.459334 12.4757 0.425453 12.5394 0.390546C12.6537 0.327709 12.7673 0.263677 12.88 0.198134C13.2525 -0.00608052 13.4514 -0.00935784 13.86 0.0882281Z" fill="#F58424"/>
<path d="M14.1019 6.65073C14.2003 6.66892 14.2986 6.68712 14.4 6.70587C14.5846 6.97737 14.6045 7.05321 14.6173 7.36316C14.6207 7.43794 14.6242 7.51273 14.6278 7.58978C14.6306 7.66752 14.6334 7.74526 14.6363 7.82536C14.6397 7.90412 14.6432 7.98289 14.6468 8.06404C14.6553 8.25836 14.663 8.45268 14.67 8.64705C14.7212 8.5895 14.7723 8.53194 14.825 8.47265C15.9597 7.21348 15.9597 7.21348 16.47 7.14705C16.6725 7.27389 16.6725 7.27389 16.83 7.41176C16.7712 8.01889 16.6262 8.58841 16.4644 9.17646C16.439 9.27007 16.4137 9.36368 16.3876 9.46012C16.3255 9.68921 16.2629 9.91818 16.2 10.1471C16.2447 10.1069 16.2893 10.0668 16.3354 10.0255C16.7225 9.68458 17.0989 9.39769 17.55 9.14337C17.6521 9.08446 17.7542 9.02554 17.8594 8.96483C18.2312 8.80096 18.4942 8.7513 18.9 8.73529C19.08 8.91176 19.08 8.91176 19.1072 9.11535C19.0743 9.40231 18.9821 9.55848 18.8241 9.80135C18.7713 9.88352 18.7185 9.9657 18.6641 10.0504C18.6083 10.1351 18.5525 10.2197 18.495 10.307C18.4392 10.3934 18.3834 10.4797 18.3259 10.5688C18.1882 10.7817 18.0495 10.994 17.91 11.2059C17.9576 11.1881 18.0051 11.1703 18.0541 11.152C18.274 11.0701 18.4942 10.9891 18.7144 10.9081C18.7891 10.8801 18.8639 10.8521 18.941 10.8233C20.3273 10.3156 20.3273 10.3156 20.97 10.5C21.0294 10.5582 21.0888 10.6165 21.15 10.6765C21.1387 11.1089 20.9113 11.303 20.6044 11.5919C20.5596 11.6344 20.5149 11.6769 20.4687 11.7207C20.1661 12.006 19.8542 12.2794 19.5344 12.5459C19.338 12.7163 19.1532 12.8946 18.9686 13.0771C18.9048 13.14 18.8411 13.2028 18.7754 13.2676C18.7274 13.3152 18.6795 13.3627 18.63 13.4118C18.6938 13.4104 18.7576 13.409 18.8234 13.4076C21.7101 13.3532 21.7101 13.3532 23.04 13.9412C23.22 14.1176 23.22 14.1176 23.2313 14.3493C23.2275 14.4184 23.2238 14.4876 23.22 14.5588C22.7039 14.8548 22.15 14.9659 21.5719 15.0993C21.3753 15.1452 21.1788 15.1913 20.9823 15.2378C20.8524 15.2679 20.8524 15.2679 20.7199 15.2985C20.524 15.3345 20.524 15.3345 20.43 15.4412C20.5384 15.4784 20.6467 15.5156 20.7584 15.5539C20.9002 15.6027 21.042 15.6515 21.1838 15.7004C21.2552 15.7249 21.3267 15.7494 21.4003 15.7746C21.4688 15.7982 21.5372 15.8218 21.6077 15.8462C21.6709 15.8679 21.734 15.8896 21.7991 15.912C21.96 15.9706 21.96 15.9706 22.14 16.0588C22.1697 16.0006 22.1994 15.9423 22.23 15.8823C22.2597 15.9697 22.2894 16.0571 22.32 16.1471C22.5725 16.3066 22.833 16.446 23.0966 16.5872C23.31 16.7647 23.31 16.7647 23.3575 17.0387C23.3418 17.123 23.3261 17.2073 23.31 17.2941C23.0357 17.4734 22.9817 17.4927 22.6735 17.4934C22.5636 17.4942 22.5636 17.4942 22.4514 17.4951C22.3727 17.4947 22.2939 17.4944 22.2128 17.494C22.1317 17.4942 22.0506 17.4944 21.967 17.4945C21.7957 17.4946 21.6243 17.4943 21.453 17.4936C21.1901 17.4926 20.9272 17.4936 20.6643 17.4947C20.498 17.4946 20.3316 17.4944 20.1653 17.494C20.0863 17.4944 20.0074 17.4947 19.9261 17.4951C19.3707 17.4909 19.3707 17.4909 19.17 17.2941C19.1925 17.068 19.1925 17.068 19.26 16.8529C19.4915 16.7395 19.6712 16.7461 19.9301 16.7368C20.027 16.7331 20.1238 16.7294 20.2236 16.7256C20.3251 16.7221 20.4267 16.7186 20.5313 16.7151C20.6335 16.7113 20.7357 16.7074 20.841 16.7035C21.094 16.6941 21.347 16.6851 21.6 16.6765C19.6376 15.843 17.5527 15.7398 15.48 16.2353C15.7134 16.5875 15.7134 16.5875 16.1011 16.7318C16.1999 16.7321 16.2986 16.7324 16.4004 16.7326C16.5081 16.7344 16.6157 16.7362 16.7266 16.738C16.8387 16.7377 16.9508 16.7374 17.0663 16.7371C17.2887 16.7386 17.5111 16.7407 17.7335 16.7437C17.8321 16.7436 17.9307 16.7436 18.0322 16.7436C18.27 16.7647 18.27 16.7647 18.45 16.9412C18.4 17.3431 18.4 17.3431 18.27 17.4706C18.0966 17.4783 17.9229 17.48 17.7493 17.4792C17.5914 17.4788 17.5914 17.4788 17.4303 17.4783C17.3194 17.4776 17.2086 17.4769 17.0944 17.4761C16.9276 17.4755 16.9276 17.4755 16.7574 17.4749C16.4816 17.4738 16.2058 17.4724 15.93 17.4706C15.9893 17.7918 15.9893 17.7918 16.116 18.0913C16.2696 18.4083 16.2035 18.7291 16.11 19.0588C15.8629 19.3731 15.6905 19.5099 15.3 19.5882C15.3162 19.6756 15.3323 19.7629 15.349 19.853C15.5203 20.7869 15.6762 21.7226 15.8211 22.6608C15.8451 22.8158 15.8695 22.9707 15.8941 23.1255C16.1635 24.8182 16.1635 24.8182 16.11 25.5C15.8643 25.7559 15.6333 25.7803 15.2888 25.7978C14.94 25.7647 14.94 25.7647 14.7544 25.6544C14.67 25.5 14.67 25.5 14.6925 25.3125C14.76 25.1471 14.76 25.1471 14.85 25.0588C15.03 25.0552 15.21 25.0551 15.39 25.0588C15.3603 24.9715 15.3306 24.8841 15.3 24.7941C15.2964 24.5883 15.296 24.3823 15.3 24.1765C14.9563 23.9945 14.9563 23.9945 14.58 23.9118C14.5206 23.9554 14.4612 23.9991 14.4 24.0441C14.22 24.1765 14.22 24.1765 14.0288 24.1599C13.86 24.0882 13.86 24.0882 13.68 23.9118C13.4159 23.9441 13.3322 23.988 13.14 24.1765C13.0509 24.1765 12.9618 24.1765 12.87 24.1765C12.7809 24.4385 12.6918 24.7006 12.6 24.9706C12.6899 24.9759 12.7798 24.9813 12.8725 24.9868C12.9886 24.9942 13.1047 25.0016 13.2244 25.0092C13.3982 25.0199 13.3982 25.0199 13.5756 25.0309C13.86 25.0588 13.86 25.0588 13.95 25.1471C13.9725 25.3621 13.9725 25.3621 13.95 25.5882C13.6606 25.7774 13.5766 25.7872 13.2427 25.7919C13.157 25.7941 13.0714 25.7964 12.9832 25.7986C12.8041 25.8017 12.6251 25.8045 12.446 25.8069C11.9111 25.8214 11.5508 25.8921 11.07 26.1176C10.4362 26.2371 9.88211 26.2256 9.27 26.0294C9.2403 26.1168 9.2106 26.2041 9.18 26.2941C8.92688 26.3162 8.92688 26.3162 8.64 26.2941C8.44661 26.1113 8.37881 25.9757 8.31375 25.7206C8.13679 25.4051 7.89298 25.3449 7.55965 25.2174C7.38 25.1471 7.38 25.1471 7.29 25.0588C7.27313 24.8437 7.27313 24.8437 7.29 24.6176C7.3494 24.5594 7.4088 24.5012 7.47 24.4412C7.5591 24.4412 7.6482 24.4412 7.74 24.4412C7.7103 24.3538 7.6806 24.2665 7.65 24.1765C7.62856 23.9662 7.62856 23.9662 7.62188 23.7243C7.61683 23.6065 7.61683 23.6065 7.61168 23.4864C7.70008 22.8392 8.08141 22.2631 8.42063 21.7114C8.45911 21.6485 8.4976 21.5857 8.53726 21.521C8.61902 21.3876 8.70093 21.2543 8.78296 21.121C8.91483 20.9038 9.04252 20.6845 9.16981 20.4647C9.25566 20.3196 9.34156 20.1745 9.4275 20.0294C9.46666 19.9603 9.50583 19.8911 9.54618 19.8199C9.83063 19.3472 9.83063 19.3472 10.1858 19.226C10.44 19.2353 10.44 19.2353 10.6594 19.3842C11.0142 19.7821 11.2584 20.2777 11.52 20.7353C11.6091 20.3568 11.6982 19.9782 11.79 19.5882C11.6712 19.5591 11.5524 19.53 11.43 19.5C11.0978 19.2576 10.952 19.063 10.89 18.6673C10.8651 18.2908 10.9622 18.061 11.16 17.7353C11.16 17.6479 11.16 17.5606 11.16 17.4706C11.0715 17.471 10.9831 17.4714 10.8919 17.4718C10.0589 17.4753 9.22591 17.478 8.3929 17.4797C7.96463 17.4806 7.53636 17.4819 7.10809 17.4839C6.69494 17.4858 6.28179 17.4869 5.86863 17.4873C5.71085 17.4876 5.55307 17.4883 5.39529 17.4892C5.17463 17.4905 4.95399 17.4907 4.73333 17.4906C4.66782 17.4912 4.6023 17.4919 4.5348 17.4925C4.20248 17.4912 4.06439 17.48 3.78 17.2941C3.73184 17.0404 3.73184 17.0404 3.78 16.7647C3.98848 16.5772 3.98848 16.5772 4.28063 16.4118C4.33236 16.3823 4.3841 16.3528 4.4374 16.3225C5.12935 15.9412 5.88782 15.6219 6.66 15.4412C6.025 15.2238 5.38454 15.0532 4.73203 14.8947C4.65941 14.8766 4.58678 14.8584 4.51195 14.8397C4.41435 14.8159 4.41435 14.8159 4.31477 14.7916C4.14 14.7353 4.14 14.7353 3.87 14.5588C3.83283 14.3219 3.82359 14.1826 3.96633 13.9829C4.21651 13.7957 4.49209 13.7375 4.7925 13.6654C4.87934 13.6431 4.87934 13.6431 4.96793 13.6203C5.76266 13.4212 6.51389 13.4006 7.32938 13.4062C7.49252 13.4068 7.49252 13.4068 7.65897 13.4074C7.92598 13.4085 8.19299 13.4099 8.46 13.4118C8.41487 13.373 8.36974 13.3342 8.32324 13.2942C8.27927 13.2457 8.2353 13.1971 8.19 13.1471C8.21813 12.9099 8.21813 12.9099 8.28 12.7059C8.46949 12.6283 8.46949 12.6283 8.73 12.6176C8.93749 12.7902 9.11383 12.9587 9.29813 13.1526C9.94076 13.7873 10.5733 14.0344 11.43 14.2941C11.5517 14.3496 11.6727 14.4067 11.79 14.4706C10.7089 13.0432 9.38811 12.1687 7.74 11.4706C7.7103 11.4997 7.6806 11.5288 7.65 11.5588C7.69641 11.5934 7.74281 11.628 7.79063 11.6636C7.85467 11.7428 7.85467 11.7428 7.92 11.8235C7.89188 12.0607 7.89188 12.0607 7.83 12.2647C7.6391 12.3374 7.6391 12.3374 7.38 12.3529C7.17449 12.206 7.01164 12.0699 6.83438 11.8952C6.78791 11.8515 6.74145 11.8077 6.69357 11.7627C6.60284 11.6769 6.51286 11.5904 6.42373 11.503C6.31365 11.3957 6.20016 11.2917 6.08625 11.1883C5.94 11.0294 5.94 11.0294 5.94563 10.7978C6.03 10.5882 6.03 10.5882 6.3 10.4118C6.87081 10.388 7.41815 10.5791 7.94813 10.7647C8.08836 10.8126 8.22863 10.8604 8.36895 10.9081C8.42977 10.9292 8.4906 10.9504 8.55327 10.9722C8.73066 11.0296 8.90827 11.0755 9.09 11.1176C9.05728 11.0665 9.02457 11.0153 8.99086 10.9626C8.84286 10.73 8.69642 10.4965 8.55 10.2629C8.49849 10.1824 8.44698 10.1019 8.39391 10.019C8.34518 9.94081 8.29645 9.86261 8.24625 9.78205C8.201 9.71042 8.15576 9.6388 8.10914 9.56501C7.99692 9.32495 7.97684 9.17283 8.01 8.91176C8.0694 8.85352 8.1288 8.79529 8.19 8.73529C8.72436 8.75637 9.07366 8.87425 9.54 9.14337C9.64209 9.20093 9.74419 9.25848 9.84938 9.31778C10.2303 9.55394 10.5585 9.84936 10.89 10.1471C10.8741 10.0893 10.8582 10.0315 10.8419 9.97196C10.7693 9.70692 10.6975 9.44169 10.6256 9.17646C10.6006 9.08558 10.5756 8.9947 10.5499 8.90107C10.4158 8.40385 10.3096 7.92393 10.26 7.41176C10.4119 7.26837 10.4119 7.26837 10.62 7.14705C11.3904 7.27293 12.0359 8.19009 12.51 8.73529C12.7392 8.51058 12.8502 8.2516 12.9881 7.96874C13.6122 6.73209 13.6122 6.73209 14.1019 6.65073ZM13.68 8.11764C13.5864 8.3266 13.4949 8.5361 13.4044 8.74631C13.3779 8.80501 13.3514 8.8637 13.324 8.92416C13.1293 9.38249 13.125 9.68162 13.2979 10.1574C13.3219 10.2086 13.3459 10.2598 13.3706 10.3125C13.4133 10.4035 13.456 10.4945 13.5 10.5882C13.8793 10.0304 13.8732 9.62436 13.8263 8.97242C13.8211 8.89024 13.816 8.80806 13.8108 8.72339C13.7981 8.5214 13.7845 8.31951 13.77 8.11764C13.7403 8.11764 13.7106 8.11764 13.68 8.11764ZM11.25 8.47058C11.3498 8.87178 11.452 9.27229 11.5561 9.67244C11.6096 9.88085 11.6608 10.0897 11.712 10.2987C11.8886 10.9957 12.0603 11.5608 12.5244 12.1313C12.8002 12.5005 12.9854 12.9116 13.1868 13.3232C13.316 13.5948 13.316 13.5948 13.5 13.8529C13.6206 11.9904 12.764 10.1161 11.5706 8.71323C11.4945 8.63315 11.4184 8.55308 11.34 8.47058C11.3103 8.47058 11.2806 8.47058 11.25 8.47058ZM15.75 8.47058C14.4875 9.91696 14.4875 9.91696 13.9391 11.7046C13.9597 11.8971 13.9926 12.077 14.04 12.2647C14.0567 12.3539 14.0734 12.443 14.0906 12.5349C14.1101 12.6195 14.1101 12.6195 14.13 12.7059C14.1683 12.6553 14.2066 12.6048 14.246 12.5527C14.3442 12.4253 14.4448 12.2997 14.5484 12.1766C15.0325 11.5662 15.2323 10.9431 15.4285 10.2074C15.4807 10.0121 15.5355 9.81763 15.5907 9.62315C15.8098 9.03919 15.8098 9.03919 15.75 8.47058ZM9.36 9.97058C9.51364 10.3995 9.74742 10.7736 9.98438 11.1618C10.0442 11.2605 10.0442 11.2605 10.1051 11.3613C10.1823 11.4887 10.2598 11.616 10.3376 11.743C10.4213 11.881 10.5023 12.0206 10.5824 12.1606C10.718 12.365 10.8557 12.4965 11.0475 12.6507C11.1112 12.7041 11.1749 12.7574 11.2405 12.8124C11.303 12.8646 11.3656 12.9168 11.43 12.9706C12.0512 13.4932 12.4471 14.1456 12.87 14.8235C13.0575 14.2721 12.6077 13.6132 12.3648 13.1122C12.0284 12.4731 11.636 11.9277 11.16 11.3823C11.0895 11.2914 11.0189 11.2004 10.9463 11.1066C10.4977 10.6249 9.99401 10.1881 9.36 9.97058ZM17.1675 10.2518C17.1002 10.304 17.0329 10.3562 16.9636 10.41C16.8529 10.4982 16.8529 10.4982 16.74 10.5882C16.6519 10.6566 16.5639 10.7249 16.4732 10.7954C15.7413 11.3974 15.2039 12.2226 14.76 13.0423C14.7275 13.1023 14.695 13.1623 14.6615 13.2242C14.4413 13.6476 14.2308 14.0919 14.13 14.5588C14.1597 14.6462 14.1894 14.7335 14.22 14.8235C14.2561 14.7637 14.2922 14.7039 14.3293 14.6422C14.74 13.983 15.1946 13.3291 15.8207 12.8468C16.3999 12.3944 16.7331 11.8463 17.1 11.2224C17.1617 11.1204 17.2234 11.0184 17.2853 10.9165C17.5951 10.471 17.5951 10.471 17.73 9.97058C17.4703 9.97058 17.3688 10.0944 17.1675 10.2518ZM18.63 11.6857C18.5613 11.718 18.4925 11.7503 18.4217 11.7836C17.2395 12.3547 16.0787 13.24 15.3 14.2941C15.3 14.3523 15.3 14.4106 15.3 14.4706C15.4887 14.412 15.677 14.3523 15.8639 14.2886C16.0246 14.2346 16.1869 14.1847 16.3505 14.1397C17.3397 13.8182 18.0035 13.0606 18.72 12.3529C18.8191 12.2567 18.9184 12.1605 19.0178 12.0644C19.22 11.8679 19.4208 11.6702 19.62 11.4706C19.2298 11.3431 18.9813 11.5191 18.63 11.6857ZM5.49 14.2059C5.49 14.2641 5.49 14.3223 5.49 14.3823C7.90366 15.0307 7.90366 15.0307 10.382 15.325C10.7461 15.3417 11.0838 15.4043 11.4369 15.4915C11.6474 15.5376 11.8452 15.543 12.06 15.5294C11.7171 15.2358 11.3617 15.0425 10.9463 14.8676C10.8837 14.8411 10.8212 14.8145 10.7568 14.7871C9.81099 14.3976 8.78486 14.1071 7.75406 14.1059C7.65673 14.1058 7.55939 14.1057 7.4591 14.1056C7.35875 14.1059 7.2584 14.1063 7.155 14.1066C7.05465 14.1063 6.95429 14.1059 6.8509 14.1056C6.70489 14.1057 6.70489 14.1057 6.55594 14.1059C6.46794 14.106 6.37994 14.1061 6.28928 14.1062C6.0168 14.1182 5.75791 14.1569 5.49 14.2059ZM15.03 15.4412C15.03 15.4703 15.03 15.4994 15.03 15.5294C15.487 15.4838 15.938 15.4265 16.3913 15.3529C16.8023 15.2883 17.2014 15.2545 17.6172 15.2402C18.4603 15.1882 19.2502 14.9852 20.0644 14.7739C20.2143 14.7359 20.3642 14.6981 20.5142 14.6603C20.8765 14.5689 21.2383 14.476 21.6 14.3823C21.6 14.3241 21.6 14.2659 21.6 14.2059C19.3667 13.7415 16.9524 14.2868 15.03 15.4412ZM12.51 15.9706C12.51 16.0579 12.51 16.1453 12.51 16.2353C12.9178 16.3177 12.9178 16.3177 13.32 16.2353C13.2752 15.9921 13.2752 15.9921 13.14 15.7941C12.7835 15.7596 12.7835 15.7596 12.51 15.9706ZM14.04 15.7941C14.04 15.9688 14.04 16.1435 14.04 16.3235C14.2182 16.2944 14.3964 16.2653 14.58 16.2353C14.5503 16.1188 14.5206 16.0023 14.49 15.8823C14.3415 15.8532 14.193 15.8241 14.04 15.7941ZM5.31 16.6765C5.31 16.7056 5.31 16.7347 5.31 16.7647C6.0767 16.777 6.84335 16.7864 7.61012 16.7921C7.96619 16.7949 8.32219 16.7986 8.67821 16.8046C9.02193 16.8104 9.36558 16.8136 9.70934 16.8149C9.84036 16.8159 9.97137 16.8178 10.1024 16.8207C10.7998 16.8637 10.7998 16.8637 11.4329 16.6433C11.5761 16.4873 11.5761 16.4873 11.7 16.2353C9.70042 15.4051 7.22263 15.844 5.31 16.6765ZM11.8969 16.9577C11.7652 17.1184 11.7652 17.1184 11.8125 17.3493C11.86 17.5527 11.86 17.5527 11.97 17.647C12.2362 17.6691 12.2362 17.6691 12.51 17.647C12.7115 17.4857 12.7115 17.4857 12.7181 17.25C12.7088 17.1772 12.6996 17.1044 12.69 17.0294C12.3982 16.8387 12.2101 16.7565 11.8969 16.9577ZM13.32 16.8529C13.3497 17.115 13.3794 17.3771 13.41 17.647C13.56 17.6508 13.71 17.6506 13.86 17.647C13.9799 17.549 13.9799 17.549 13.9669 17.2996C13.98 17.0198 13.98 17.0198 13.77 16.8529C13.5375 16.8382 13.5375 16.8382 13.32 16.8529ZM14.67 16.8529C14.67 17.115 14.67 17.3771 14.67 17.647C14.8875 17.6691 14.8875 17.6691 15.12 17.647C15.3238 17.4096 15.3238 17.4096 15.2775 17.2004C15.2167 17.0122 15.2167 17.0122 15.03 16.8529C14.9112 16.8529 14.7924 16.8529 14.67 16.8529ZM11.7 18.2647C11.6703 18.4103 11.6406 18.5559 11.61 18.7059C11.7437 18.7932 11.7437 18.7932 11.88 18.8823C11.9097 18.7076 11.9394 18.5329 11.97 18.3529C11.8809 18.3238 11.7918 18.2947 11.7 18.2647ZM12.87 18.1765C12.7809 18.2201 12.7809 18.2201 12.69 18.2647C12.69 18.4103 12.69 18.5559 12.69 18.7059C12.8682 18.7932 12.8682 18.7932 13.05 18.8823C13.0853 18.8387 13.1205 18.795 13.1569 18.75C13.32 18.6176 13.32 18.6176 13.5394 18.5845C13.8072 18.623 13.93 18.708 14.13 18.8823C14.2191 18.8241 14.3082 18.7659 14.4 18.7059C14.4225 18.4779 14.4225 18.4779 14.4 18.2647C14.3109 18.2356 14.2218 18.2065 14.13 18.1765C14.0409 18.2201 14.0409 18.2201 13.95 18.2647C13.8171 18.2731 13.6838 18.2762 13.5506 18.2757C13.445 18.2761 13.445 18.2761 13.3372 18.2764C13.14 18.2647 13.14 18.2647 12.87 18.1765ZM15.21 18.2647C15.1488 18.4762 15.1488 18.4762 15.12 18.7059C15.1794 18.7641 15.2388 18.8223 15.3 18.8823C15.3594 18.8241 15.4188 18.7659 15.48 18.7059C15.4512 18.4762 15.4512 18.4762 15.39 18.2647C15.3306 18.2647 15.2712 18.2647 15.21 18.2647ZM13.5 19.3235C13.4499 19.369 13.3998 19.4145 13.3481 19.4614C13.14 19.5882 13.14 19.5882 12.9038 19.5662C12.69 19.5 12.69 19.5 12.51 19.4118C12.4649 19.7057 12.4649 19.7057 12.51 20.0294C12.768 20.2496 12.768 20.2496 13.05 20.3823C13.0853 20.3387 13.1205 20.295 13.1569 20.25C13.32 20.1176 13.32 20.1176 13.5394 20.0845C13.8072 20.123 13.93 20.208 14.13 20.3823C14.3678 20.2475 14.3678 20.2475 14.58 20.0294C14.6176 19.7058 14.6176 19.7058 14.58 19.4118C14.4909 19.47 14.4018 19.5282 14.31 19.5882C14.0052 19.5576 13.7667 19.4688 13.5 19.3235ZM10.26 20.2059C9.80252 20.7574 9.4368 21.3861 9.06188 21.9926C9.01439 22.0688 8.9669 22.145 8.91798 22.2235C8.60021 22.7428 8.3326 23.2001 8.37 23.8235C8.47024 23.7116 8.47024 23.7116 8.5725 23.5974C8.82 23.3823 8.82 23.3823 9.00457 23.3916C9.23346 23.4946 9.2626 23.5861 9.35438 23.8125C9.50974 24.1451 9.63472 24.2967 9.99 24.4412C10.2323 24.5035 10.2323 24.5035 10.44 24.5294C10.44 24.7332 10.44 24.937 10.44 25.1471C10.2024 25.2053 9.9648 25.2635 9.72 25.3235C10.0598 25.5456 10.2158 25.5325 10.62 25.5C11.1341 25.369 11.5784 25.1694 11.8972 24.7369C12.1929 24.2421 12.2825 23.7659 12.15 23.2059C11.9102 22.6463 11.5747 22.1326 11.25 21.6176C11.1643 21.479 11.0786 21.3403 10.993 21.2016C10.7837 20.8661 10.5743 20.532 10.35 20.2059C10.3203 20.2059 10.2906 20.2059 10.26 20.2059ZM12.33 20.8235C12.3003 20.9982 12.2706 21.1729 12.24 21.3529C12.609 21.6297 12.609 21.6297 13.05 21.7059C13.1075 21.6604 13.1651 21.6149 13.2244 21.568C13.41 21.4412 13.41 21.4412 13.5844 21.4522C13.8107 21.5463 14.013 21.6645 14.22 21.7941C14.4395 21.6242 14.6521 21.4587 14.85 21.2647C14.8212 21.035 14.8212 21.035 14.76 20.8235C14.7099 20.8508 14.6598 20.8781 14.6081 20.9062C14.3779 21.0099 14.2035 21.07 13.95 21.0882C13.6969 20.9614 13.6969 20.9614 13.5 20.8235C13.4499 20.869 13.3998 20.9145 13.3481 20.9614C13.14 21.0882 13.14 21.0882 12.915 21.0717C12.7062 21.0052 12.5217 20.9279 12.33 20.8235ZM13.41 22.2353C13.3515 22.3008 13.3515 22.3008 13.2919 22.3676C13.14 22.5 13.14 22.5 12.8531 22.5165C12.7278 22.5083 12.7278 22.5083 12.6 22.5C12.6891 22.7621 12.7782 23.0241 12.87 23.2941C12.9387 23.2668 13.0074 23.2395 13.0781 23.2114C13.2469 23.146 13.4178 23.0857 13.59 23.0294C13.6958 23.0976 13.6958 23.0976 13.8038 23.1673C14.0328 23.3255 14.0328 23.3255 14.2763 23.2279C14.3468 23.1915 14.4173 23.1551 14.49 23.1176C14.76 23.0294 14.76 23.0294 14.9569 23.1121C15.0107 23.1431 15.0645 23.174 15.12 23.2059C15.1073 23.0772 15.0941 22.9485 15.0806 22.8198C15.0733 22.7482 15.066 22.6765 15.0585 22.6027C15.0398 22.408 15.0398 22.408 14.94 22.2353C14.6734 22.2894 14.5457 22.3459 14.31 22.5C14.011 22.4714 13.8953 22.4464 13.68 22.2353C13.5909 22.2353 13.5018 22.2353 13.41 22.2353ZM8.62875 24.7059C8.57306 24.7641 8.51738 24.8223 8.46 24.8823C8.5788 24.9697 8.6976 25.0571 8.82 25.1471C8.9388 25.0888 9.0576 25.0306 9.18 24.9706C9.18 24.8832 9.18 24.7959 9.18 24.7059C9.1206 24.7059 9.0612 24.7059 9 24.7059C9 24.6476 9 24.5894 9 24.5294C8.79807 24.5092 8.79807 24.5092 8.62875 24.7059Z" fill="#F58525"/>
<path d="M6.3 17.9118C6.55974 17.9025 6.69563 17.902 6.93 18C7.16604 18.2623 7.32815 18.5596 7.49813 18.8658C7.54529 18.9466 7.59245 19.0274 7.64104 19.1107C8.30063 20.2475 8.30063 20.2475 8.19 21C8.01934 21.4377 7.74122 21.7926 7.30406 22.004C6.78054 22.1519 6.23403 22.1243 5.72063 21.9596C5.27163 21.6375 4.97011 21.2751 4.86 20.7353C4.89082 20.1749 5.0353 19.8016 5.32688 19.3235C5.36312 19.2622 5.39937 19.2009 5.43672 19.1378C5.69618 18.7054 5.97701 18.3015 6.3 17.9118ZM6.48 18.8824C6.34293 19.0871 6.20844 19.293 6.075 19.5C6.03637 19.5572 5.99773 19.6144 5.95793 19.6734C5.68139 20.108 5.61184 20.3997 5.67 20.9118C5.90013 21.2331 6.05005 21.3334 6.435 21.4412C6.79153 21.4412 6.92512 21.3936 7.2 21.1765C7.40475 20.9757 7.46448 20.87 7.49813 20.5867C7.46295 20.2207 7.31699 19.9626 7.12688 19.6544C7.0948 19.5994 7.06272 19.5443 7.02967 19.4876C6.86647 19.2152 6.75206 19.0602 6.48 18.8824Z" fill="#F58525"/>
<path d="M0 5.73529C0.1188 5.76441 0.2376 5.79353 0.36 5.82353C0.3006 5.82353 0.2412 5.82353 0.18 5.82353C0.18 8.64794 0.18 11.4723 0.18 14.3823C0.2394 14.3823 0.2988 14.3823 0.36 14.3823C0.36 14.4406 0.36 14.4988 0.36 14.5588C0.1818 14.6025 0.1818 14.6025 0 14.6471C0 11.7062 0 8.76529 0 5.73529Z" fill="#6D6D6D"/>
<path d="M4.41 21.9706C4.74068 21.9976 4.84032 22.0374 5.06812 22.2849C5.1433 22.3914 5.1433 22.3914 5.22 22.5C4.9527 22.4126 4.6854 22.3253 4.41 22.2353C4.41 22.1479 4.41 22.0606 4.41 21.9706Z" fill="#545251"/>
<path d="M9.18 2.20587C9.05671 2.4848 9.00098 2.55817 8.73 2.73528C8.48812 2.7022 8.48812 2.7022 8.28 2.64705C8.85273 2.20587 8.85273 2.20587 9.18 2.20587Z" fill="#434442"/>
<path d="M13.32 0C13.7308 0.0479469 14.0376 0.15835 14.4 0.352941C14.178 0.430885 14.0725 0.452756 13.8473 0.372587C13.7847 0.338806 13.722 0.305025 13.6575 0.270221C13.5939 0.236667 13.5303 0.203113 13.4648 0.168543C13.417 0.142042 13.3692 0.11554 13.32 0.0882353C13.32 0.0591176 13.32 0.03 13.32 0Z" fill="#5D5C5B"/>
<path d="M22.95 22.7647C23.0094 22.8521 23.0688 22.9394 23.13 23.0294C23.0119 23.2059 23.0119 23.2059 22.86 23.3824C22.7709 23.3824 22.6818 23.3824 22.59 23.3824C22.6983 23.1623 22.8109 22.9693 22.95 22.7647Z" fill="#50514E"/>
<path d="M18.54 20.5588C18.6291 20.588 18.7182 20.6171 18.81 20.6471C18.6615 20.7053 18.513 20.7635 18.36 20.8235C18.36 20.7653 18.36 20.7071 18.36 20.6471C18.4194 20.618 18.4788 20.5888 18.54 20.5588Z" fill="#545452"/>
</g>
<defs>
<clipPath id="clip0_66_46">
<rect width="27" height="33" fill="white"/>
</clipPath>
</defs>
</svg>
