<svg width="38" height="38" viewBox="0 0 38 38" fill="none" xmlns="http://www.w3.org/2000/svg">
<g clip-path="url(#clip0_79_231)">
<path d="M33.25 14.25C33.2494 13.1385 32.9564 12.0468 32.4002 11.0845C31.8441 10.1222 31.0446 9.32314 30.0819 8.76767C29.1192 8.2122 28.0273 7.91985 26.9158 7.91999C25.8044 7.92014 24.7125 8.21278 23.75 8.7685V3.16667C23.75 2.32681 23.4164 1.52136 22.8225 0.927495C22.2286 0.33363 21.4232 0 20.5833 0L12.6667 0V3.16667H14.25V12.6667C14.25 13.7133 12.331 15.3267 10.6384 16.7501C7.87867 19.0697 4.75 21.6917 4.75 25.3333C4.75 29.45 7.05058 31.5701 9.48575 33.8137L10.2774 34.5547C10.5316 34.7937 10.7342 35.0822 10.8728 35.4024C11.0114 35.7226 11.0831 36.0678 11.0833 36.4167V38H26.9167V36.4167C26.9153 36.0686 26.9847 35.7238 27.1208 35.4035C27.2569 35.0831 27.4568 34.7937 27.7083 34.5531L28.5 33.8137C30.9494 31.5701 33.25 29.45 33.25 25.3333C33.1135 23.0985 32.0993 21.0082 30.4285 19.5177C31.296 18.9397 32.0074 18.1565 32.4996 17.2376C32.9918 16.3186 33.2495 15.2924 33.25 14.25ZM26.9167 11.0833C27.6659 11.0834 28.3908 11.3491 28.9625 11.8333C29.5343 12.3174 29.9159 12.9885 30.0395 13.7275C30.1632 14.4664 30.0208 15.2252 29.6378 15.8691C29.2547 16.5129 28.6558 17.0001 27.9474 17.2441L27.3616 16.7501C25.9999 15.7712 24.8208 14.5605 23.8783 13.1733L23.9337 13.1939C24.1531 12.5778 24.5574 12.0444 25.0913 11.6667C25.6252 11.2889 26.2626 11.0852 26.9167 11.0833ZM26.3673 31.4862L25.5487 32.2446C24.8007 32.9504 24.2565 33.8446 23.9732 34.8333H14.0268C13.7417 33.8441 13.1946 32.9502 12.4434 32.2462L11.6248 31.4862C9.3955 29.4247 7.91667 28.0646 7.91667 25.3333C7.92747 24.7809 8.06737 24.2387 8.32517 23.75H29.6748C29.9326 24.2387 30.0725 24.7809 30.0833 25.3333C30.0833 28.0646 28.6045 29.4247 26.3673 31.4862ZM26.9673 20.5833H11.0327C11.5631 20.1083 12.122 19.6333 12.6762 19.1726C15.1129 17.1238 17.4167 15.1889 17.4167 12.6667V3.16667H20.5833V12.6667C20.5833 15.1889 22.8871 17.1238 25.3238 19.1726C25.8606 19.6238 26.4021 20.0798 26.9167 20.5374V20.5833H26.9673Z" fill="#F58220"/>
</g>
<defs>
<clipPath id="clip0_79_231">
<rect width="38" height="38" fill="white"/>
</clipPath>
</defs>
</svg>
