<svg width="38" height="38" viewBox="0 0 38 38" fill="none" xmlns="http://www.w3.org/2000/svg">
<g clip-path="url(#clip0_72_212)">
<path d="M30.0833 9.5H26.9167C25.1702 9.5 23.75 10.9202 23.75 12.6667V19H22.116L6.75767 0.57C6.45683 0.209 6.01192 0 5.54167 0H4.75C3.876 0 3.16667 0.709333 3.16667 1.58333V10.2917C3.16667 10.7287 2.812 11.0833 2.375 11.0833H1.58333C0.709333 11.0833 0 11.7927 0 12.6667C0 13.5407 0.709333 14.25 1.58333 14.25H2.375C4.55683 14.25 6.33333 12.4735 6.33333 10.2917V5.0065L17.9946 19H4.75C2.13117 19 0 21.1312 0 23.75V26.9167C0 29.5355 2.13117 31.6667 4.75 31.6667H4.80858C4.77058 31.9279 4.75 32.1908 4.75 32.4583C4.75 35.5142 7.23583 38 10.2917 38C13.3475 38 15.8333 35.5142 15.8333 32.4583C15.8333 32.1908 15.8128 31.9279 15.7748 31.6667H22.2253C22.1873 31.9279 22.1667 32.1908 22.1667 32.4583C22.1667 35.5142 24.6525 38 27.7083 38C30.7642 38 33.25 35.5142 33.25 32.4583C33.25 32.1306 33.2199 31.806 33.1629 31.4877C35.9353 30.8132 38 28.31 38 25.3333V17.4167C38 13.0514 34.4486 9.5 30.0833 9.5ZM30.0833 12.6667C32.7022 12.6667 34.8333 14.7978 34.8333 17.4167V19H26.9167V12.6667H30.0833ZM3.16667 26.9167V23.75C3.16667 22.8776 3.87758 22.1667 4.75 22.1667H23.75V28.5H13.4473C13.4393 28.5 13.4314 28.5 13.4219 28.5H7.17092C7.15508 28.5 7.13767 28.5 7.12183 28.5H4.75C3.87758 28.5 3.16667 27.7891 3.16667 26.9167ZM12.6667 32.4583C12.6667 33.7677 11.6011 34.8333 10.2917 34.8333C8.98225 34.8333 7.91667 33.7677 7.91667 32.4583C7.91667 32.1591 7.97525 31.8947 8.06075 31.6667H12.5242C12.6097 31.8947 12.6683 32.1591 12.6683 32.4583H12.6667ZM27.7083 34.8333C26.3989 34.8333 25.3333 33.7677 25.3333 32.4583C25.3333 32.1591 25.3919 31.8947 25.4774 31.6667H29.9408C30.0263 31.8947 30.0849 32.1591 30.0849 32.4583C30.0849 33.7677 29.0178 34.8333 27.7083 34.8333ZM31.6667 28.5H30.8639C30.856 28.5 30.8481 28.5 30.8386 28.5H26.9167V22.1667H34.8333V25.3333C34.8333 27.0798 33.4131 28.5 31.6667 28.5Z" fill="#F58220"/>
</g>
<defs>
<clipPath id="clip0_72_212">
<rect width="38" height="38" fill="white"/>
</clipPath>
</defs>
</svg>
