<svg width="38" height="38" viewBox="0 0 38 38" fill="none" xmlns="http://www.w3.org/2000/svg">
<g clip-path="url(#clip0_70_210)">
<path d="M36.0541 33.4178L34.8333 30.5504V7.44958L36.0414 4.62492C36.5528 3.6575 36.5338 2.52383 35.9797 1.57067C35.4097 0.587417 34.39 0 33.2516 0H4.74842C3.61001 0 2.59192 0.587417 2.02034 1.57067C1.46617 2.52383 1.44717 3.6575 1.95859 4.62492L3.16667 7.44958V30.552L1.94592 33.4194C1.43767 34.3884 1.45984 35.5221 2.01401 36.4737C2.58559 37.4537 3.60367 38.0396 4.73892 38.0396H33.2611C34.3963 38.0396 35.4128 37.4537 35.986 36.4737C36.5402 35.5221 36.5623 34.3868 36.0541 33.4178ZM33.2421 3.14608C33.2104 3.19833 31.8693 6.33175 31.8693 6.33175H6.13226C6.13226 6.33175 4.77851 3.21733 4.74842 3.16508L33.2405 3.14608H33.2421ZM31.6683 9.49842V28.4984H6.33334V9.5H31.6667L31.6683 9.49842ZM4.75159 34.8887C4.78167 34.8365 6.13384 31.6667 6.13384 31.6667H31.8662C31.8662 31.6667 33.231 34.8191 33.2611 34.8713L4.75159 34.8887ZM17.4167 22.0891V23.75C17.4167 24.624 18.1244 25.3333 19 25.3333C19.8756 25.3333 20.5833 24.624 20.5833 23.75V22.0812C23.0708 21.7977 27.7004 20.4519 28.4873 14.4305C28.6188 13.4251 27.7242 12.5337 26.7203 12.6841C21.1581 13.5185 19.5225 18.1561 19.0032 20.5707C19.0032 20.5707 19.0016 20.5707 19 20.5707C18.9984 20.5707 18.9984 20.5707 18.9968 20.5707C18.4823 18.1513 16.8039 13.5201 11.2797 12.6841C10.279 12.5321 9.38601 13.4203 9.51109 14.4242C10.2679 20.4567 14.9182 21.8041 17.4151 22.0891H17.4167Z" fill="#F58220"/>
</g>
<defs>
<clipPath id="clip0_70_210">
<rect width="38" height="38" fill="white"/>
</clipPath>
</defs>
</svg>
