<svg width="32" height="32" viewBox="0 0 32 32" fill="none" xmlns="http://www.w3.org/2000/svg">
<g clip-path="url(#clip0_63_19)">
<path d="M20.625 21.1875C20.9417 21.2139 21.1535 21.2894 21.4316 21.4397C21.5684 21.5027 21.6879 21.5294 21.8359 21.5547C22.1867 21.622 22.4545 21.8078 22.75 22C22.9363 22.1152 23.1212 22.2176 23.3203 22.3086C23.5181 22.4079 23.6547 22.4791 23.75 22.6875C23.7741 22.9618 23.7796 23.0806 23.625 23.3125C23.6627 23.3224 23.7004 23.3323 23.7393 23.3425C24.0591 23.4359 24.2662 23.5072 24.4375 23.8125C24.4375 23.895 24.4375 23.9775 24.4375 24.0625C24.5136 24.0677 24.5896 24.0728 24.668 24.0781C24.925 24.1105 25.0686 24.1826 25.25 24.375C25.3125 24.4961 25.3125 24.4961 25.3125 24.625C25.21 24.8404 25.1384 24.9285 24.9375 25.0625C24.9714 25.0769 25.0053 25.0913 25.0403 25.1062C25.2572 25.2051 25.4119 25.2831 25.5703 25.4648C25.625 25.625 25.625 25.625 25.5898 25.7891C25.4894 25.955 25.4194 26.0309 25.25 26.125C25.0469 26.168 25.0469 26.168 24.875 26.1875C24.8774 26.3358 24.8774 26.3358 24.9375 26.5C25.1202 26.6426 25.1202 26.6426 25.3125 26.75C25.3331 26.7706 25.3538 26.7913 25.375 26.8125C25.3656 27.0623 25.348 27.2068 25.1875 27.4023C24.9329 27.535 24.7189 27.5221 24.4375 27.5C24.4182 27.549 24.3988 27.598 24.3789 27.6484C24.3125 27.8125 24.3125 27.8125 24.25 27.9375C24.2629 27.9955 24.2758 28.0535 24.2891 28.1133C24.3125 28.3125 24.3125 28.3125 24.2539 28.4727C24.1295 28.6197 24.0512 28.6716 23.8867 28.7617C23.6607 28.8918 23.5622 29.0179 23.4375 29.2461C23.2201 29.642 22.9495 29.8541 22.5352 30.0273C22.2769 30.1406 22.0903 30.2924 21.876 30.4734C21.75 30.5625 21.75 30.5625 21.5625 30.5625C21.6549 30.3342 21.7801 30.2277 21.9727 30.0781C22.1744 29.9116 22.1744 29.9116 22.292 29.6865C22.2978 29.6043 22.3011 29.5219 22.3018 29.4395C22.3214 29.2068 22.4483 29.0123 22.5625 28.8125C22.5398 28.848 22.5171 28.8836 22.4937 28.9202C22.1278 29.4821 21.7878 29.9852 21.1035 30.1631C21.0019 30.1822 20.9 30.2 20.7979 30.2166C20.5184 30.2706 20.251 30.3623 19.9805 30.4497C19.8125 30.5 19.8125 30.5 19.6875 30.5C19.6875 30.4587 19.6875 30.4175 19.6875 30.375C19.7485 30.3485 19.8095 30.322 19.8723 30.2947C19.9527 30.2577 20.033 30.2207 20.1133 30.1836C20.1735 30.1578 20.1735 30.1578 20.235 30.1315C20.4587 30.026 20.5795 29.9466 20.6758 29.7136C20.7003 29.6431 20.7248 29.5726 20.75 29.5C20.9793 29.2249 21.2566 29.0534 21.5625 28.875C21.1524 29.0197 20.8927 29.2257 20.625 29.5625C20.4805 29.6602 20.4805 29.6602 20.3125 29.75C20.2767 29.7713 20.241 29.7927 20.2041 29.8147C19.8428 30.0301 19.609 30.0704 19.1904 30.0686C19.1492 30.0685 19.1079 30.0684 19.0654 30.0683C18.9342 30.068 18.803 30.0672 18.6719 30.0664C18.5827 30.0661 18.4935 30.0658 18.4043 30.0656C18.1862 30.0649 17.9681 30.0638 17.75 30.0625C17.75 30.0212 17.75 29.98 17.75 29.9375C18.0109 29.8676 18.254 29.8093 18.5234 29.7891C18.5982 29.7762 18.673 29.7633 18.75 29.75C18.8297 29.6375 18.8297 29.6375 18.875 29.5C19.1499 29.2162 19.5087 29.1206 19.875 29C19.4817 29.0664 19.1196 29.1447 18.8582 29.4753C18.6181 29.6688 18.2288 29.5896 17.9375 29.5625C17.7344 29.4805 17.7344 29.4805 17.5625 29.375C17.4721 29.3417 17.3808 29.3106 17.2891 29.2812C17.0223 29.1949 16.7595 29.1066 16.5 29C16.4794 28.9587 16.4588 28.9175 16.4375 28.875C16.5612 28.875 16.685 28.875 16.8125 28.875C16.419 28.6838 16.0239 28.5531 15.6016 28.4392C15.5204 28.4074 15.5204 28.4074 15.4375 28.375C15.4169 28.3131 15.3963 28.2512 15.375 28.1875C15.4583 28.1966 15.5417 28.2057 15.625 28.2148C15.676 28.2203 15.727 28.2258 15.7795 28.2314C15.8805 28.2433 15.9813 28.2568 16.0818 28.2725C16.1997 28.2906 16.3186 28.3021 16.4375 28.3125C16.4787 28.2712 16.52 28.23 16.5625 28.1875C16.5045 28.1591 16.4465 28.1308 16.3867 28.1016C16.1875 28 16.1875 28 16 27.875C15.8117 27.8244 15.6224 27.7837 15.4319 27.7424C15.2502 27.6876 15.1423 27.6231 15 27.5C15.3224 27.4941 15.6208 27.5114 15.9387 27.5671C16.0706 27.5749 16.0706 27.5749 16.1726 27.47C16.1981 27.4386 16.2237 27.4073 16.25 27.375C16.1451 27.2701 16.0071 27.2972 15.8633 27.2891C15.572 27.2651 15.3814 27.2074 15.125 27.0625C14.987 27.0122 14.8477 26.9675 14.7078 26.9226C14.4899 26.8512 14.2766 26.7693 14.0625 26.6875C14.0625 26.6462 14.0625 26.605 14.0625 26.5625C14.1589 26.5715 14.2552 26.5806 14.3516 26.5898C14.4371 26.5979 14.4371 26.5979 14.5244 26.6062C14.6875 26.625 14.6875 26.625 14.8984 26.6719C15.1102 26.692 15.1495 26.6284 15.3125 26.5C15.5469 26.457 15.5469 26.457 15.75 26.4375C15.75 26.3962 15.75 26.355 15.75 26.3125C15.7036 26.3061 15.6572 26.2996 15.6094 26.293C15.4187 26.2453 15.3216 26.2066 15.1875 26.0625C15.1523 25.8789 15.1523 25.8789 15.1875 25.6875C15.4023 25.4532 15.6287 25.3701 15.9375 25.3125C16.2821 25.3125 16.5712 25.4045 16.875 25.5625C17 25.75 17 25.75 16.9766 25.9492C16.9637 26.0072 16.9508 26.0652 16.9375 26.125C17.0612 26.0631 17.0612 26.0631 17.1875 26C17.1684 25.7704 17.1401 25.7012 16.9648 25.543C16.9146 25.5082 16.8643 25.4734 16.8125 25.4375C17.0187 25.3756 17.225 25.3137 17.4375 25.25C17.3135 25.2445 17.3135 25.2445 17.2021 25.2803C16.7123 25.3933 16.2643 25.3232 15.8125 25.125C15.5736 25.0583 15.4276 25.0747 15.1875 25.125C15.0204 25.1306 14.8548 25.1278 14.6875 25.125C14.75 25 14.75 25 14.9573 24.9282C15.0456 24.9024 15.1341 24.8768 15.2227 24.8516C15.5852 24.7428 15.9261 24.6383 16.25 24.4375C16.2912 24.355 16.3325 24.2725 16.375 24.1875C16.0347 24.2184 16.0347 24.2184 15.6875 24.25C15.6875 24.2088 15.6875 24.1675 15.6875 24.125C15.7942 24.0859 15.901 24.0468 16.0078 24.0078C16.0707 23.9845 16.1337 23.9612 16.1985 23.9373C16.375 23.875 16.375 23.875 16.582 23.8242C16.8296 23.7148 16.9645 23.5254 17.125 23.3125C17.0745 23.326 17.024 23.3396 16.9719 23.3535C16.9051 23.3709 16.8383 23.3883 16.7695 23.4062C16.7035 23.4237 16.6376 23.4411 16.5696 23.459C16.393 23.4962 16.242 23.508 16.0625 23.5C16.0625 23.4588 16.0625 23.4175 16.0625 23.375C16.8125 23.125 16.8125 23.125 17.0146 23.0603C17.1913 23.0051 17.1913 23.0051 17.3516 22.9023C17.663 22.7697 17.977 22.7657 18.3125 22.75C18.2813 22.6244 18.2813 22.6244 18.1875 22.5C17.9823 22.4194 17.9823 22.4194 17.7461 22.3672C17.6007 22.3315 17.4559 22.2931 17.3125 22.25C17.2816 22.1881 17.2816 22.1881 17.25 22.125C17.6519 22.1174 18.039 22.1367 18.4375 22.1875C18.5286 22.1967 18.6198 22.2058 18.7109 22.2148C18.8073 22.2261 18.9037 22.2378 19 22.25C19.0823 22.2603 19.0823 22.2603 19.1663 22.2708C19.5443 22.3276 19.8461 22.4339 20.1816 22.6174C20.4393 22.7554 20.6495 22.7554 20.9375 22.75C20.8937 22.7439 20.8498 22.7378 20.8047 22.7314C19.9137 22.591 19.9137 22.591 19.6689 22.2681C19.6428 22.2299 19.6167 22.1917 19.5898 22.1523C19.3576 21.8474 18.9852 21.8302 18.6294 21.7756C18.5661 21.7672 18.5027 21.7587 18.4375 21.75C18.4375 21.7088 18.4375 21.6675 18.4375 21.625C18.7161 21.6195 18.9948 21.6162 19.2734 21.6133C19.3517 21.6117 19.4299 21.6101 19.5105 21.6085C20.1553 21.6035 20.6833 21.6497 21.1702 22.0999C21.25 22.1875 21.25 22.1875 21.3125 22.3125C21.4152 22.3576 21.5194 22.3996 21.625 22.4375C21.6031 22.471 21.5812 22.5045 21.5586 22.5391C21.4819 22.7333 21.517 22.8621 21.5625 23.0625C21.5831 23.0625 21.6038 23.0625 21.625 23.0625C21.6314 22.9942 21.6379 22.9259 21.6445 22.8555C21.6858 22.634 21.7002 22.5667 21.875 22.4375C21.826 22.3937 21.777 22.3498 21.7266 22.3047C21.5625 22.125 21.5625 22.125 21.5234 21.9414C21.3969 21.6596 21.1797 21.5918 20.9082 21.4622C20.75 21.375 20.75 21.375 20.625 21.1875ZM18.7109 23.0391C18.5507 23.178 18.5507 23.178 18.4961 23.375C18.4809 23.5702 18.4809 23.5702 18.6211 23.7109C18.6636 23.7445 18.7062 23.778 18.75 23.8125C18.7461 23.7468 18.7423 23.681 18.7383 23.6133C18.7535 23.3039 18.8472 23.1528 19.0625 22.9375C18.8694 22.9211 18.8694 22.9211 18.7109 23.0391ZM22.3359 23.5391C22.1579 23.7171 22.1303 23.8133 22.125 24.0625C22.1869 24.1553 22.1869 24.1553 22.25 24.25C22.2913 24.25 22.3325 24.25 22.375 24.25C22.3686 24.1855 22.3621 24.1211 22.3555 24.0547C22.3808 23.7402 22.4719 23.6585 22.6875 23.4375C22.4944 23.4211 22.4944 23.4211 22.3359 23.5391ZM19.6836 23.6133C19.5503 23.7458 19.5503 23.7458 19.5 23.9375C19.5813 24.1059 19.5813 24.1059 19.6875 24.25C19.7081 24.25 19.7288 24.25 19.75 24.25C19.7577 24.1727 19.7655 24.0953 19.7734 24.0156C19.7973 23.8202 19.8316 23.6695 19.9375 23.5C19.7995 23.4862 19.7995 23.4862 19.6836 23.6133ZM17.7734 23.7266C17.5954 23.9046 17.5678 24.0008 17.5625 24.25C17.6244 24.3428 17.6244 24.3428 17.6875 24.4375C17.3163 24.3756 17.3163 24.3756 16.9375 24.3125C16.9581 24.3537 16.9787 24.395 17 24.4375C17.1545 24.4856 17.1545 24.4856 17.3359 24.5156C17.397 24.5275 17.4581 24.5395 17.521 24.5518C17.7018 24.5803 17.7018 24.5803 17.875 24.4375C17.8499 24.3408 17.8499 24.3408 17.8242 24.2422C17.8119 23.9885 17.8129 23.964 17.9648 23.7852C18.0177 23.7323 18.0705 23.6795 18.125 23.625C17.9319 23.6086 17.9319 23.6086 17.7734 23.7266ZM20.3125 23.75C20.1649 23.9309 20.1649 23.9309 20.1992 24.1602C20.228 24.3911 20.228 24.3911 20.4375 24.5C20.4323 24.4252 20.4272 24.3505 20.4219 24.2734C20.4198 23.9844 20.5096 23.8474 20.6875 23.625C20.5293 23.625 20.448 23.6696 20.3125 23.75ZM23.75 24.25C23.607 24.3649 23.607 24.3649 23.6172 24.5391C23.6198 24.588 23.6223 24.637 23.625 24.6875C23.6869 24.7184 23.6869 24.7184 23.75 24.75C23.7635 24.6611 23.7635 24.6611 23.7773 24.5703C23.8125 24.375 23.8125 24.375 23.875 24.25C23.8337 24.25 23.7925 24.25 23.75 24.25ZM18.625 24.8125C18.5477 24.9644 18.5477 24.9644 18.5625 25.125C18.6771 25.2709 18.6771 25.2709 18.8125 25.375C18.8148 25.3373 18.8172 25.2996 18.8196 25.2607C18.8604 24.7646 18.8604 24.7646 19.0625 24.5625C18.859 24.5625 18.7681 24.6767 18.625 24.8125ZM21.5625 24.5625C21.2827 24.7503 21.2827 24.7503 21.1484 25.0391C21.1981 25.228 21.2726 25.2771 21.4375 25.375C21.4362 25.308 21.4349 25.2409 21.4336 25.1719C21.4393 24.831 21.4393 24.831 21.5 24.6875C21.5619 24.6669 21.6238 24.6463 21.6875 24.625C21.6462 24.6044 21.605 24.5838 21.5625 24.5625ZM22.4375 25.125C22.3338 25.3006 22.3338 25.3006 22.3125 25.5C22.3903 25.6785 22.3903 25.6785 22.5 25.8125C22.5413 25.7919 22.5825 25.7712 22.625 25.75C22.6108 25.7049 22.5966 25.6598 22.582 25.6133C22.5568 25.3859 22.6163 25.3065 22.75 25.125C22.8555 25.0117 22.8555 25.0117 22.9375 24.9375C22.706 24.9375 22.6201 24.9846 22.4375 25.125ZM19.9485 25.4019C19.8523 25.5103 19.8523 25.5103 19.8711 25.7305C19.9188 25.9532 19.9188 25.9532 20.125 26.0625C20.1186 25.9877 20.1121 25.913 20.1055 25.8359C20.1035 25.6178 20.1399 25.5102 20.2812 25.3438C20.3328 25.2922 20.3844 25.2406 20.4375 25.1875C20.2142 25.1875 20.115 25.2573 19.9485 25.4019ZM24.0625 25.3125C23.9597 25.4665 23.9597 25.4665 23.875 25.625C23.9369 25.6869 23.9987 25.7488 24.0625 25.8125C24.076 25.7236 24.076 25.7236 24.0898 25.6328C24.125 25.4375 24.125 25.4375 24.1875 25.3125C24.1462 25.3125 24.105 25.3125 24.0625 25.3125ZM17.7031 25.5078C17.542 25.6756 17.542 25.6756 17.5625 25.8867C17.6117 26.0806 17.6117 26.0806 17.8125 26.1875C17.8073 26.123 17.8022 26.0586 17.7969 25.9922C17.8149 25.7131 17.8929 25.5923 18.0625 25.375C17.8635 25.3559 17.8635 25.3559 17.7031 25.5078ZM18.3633 26.1016C18.2344 26.2453 18.2344 26.2453 18.2227 26.4453C18.2317 26.5046 18.2407 26.5639 18.25 26.625C18.3428 26.6869 18.3428 26.6869 18.4375 26.75C18.4489 26.6924 18.4489 26.6924 18.4604 26.6335C18.4762 26.5578 18.4762 26.5578 18.4922 26.4805C18.5023 26.4304 18.5125 26.3804 18.5229 26.3289C18.5625 26.1875 18.5625 26.1875 18.6875 26C18.4967 25.9814 18.4967 25.9814 18.3633 26.1016ZM20.5508 26.2266C20.4229 26.37 20.4229 26.37 20.4062 26.5664C20.4196 26.7569 20.4196 26.7569 20.5625 26.8672C20.6038 26.8904 20.645 26.9136 20.6875 26.9375C20.6836 26.8614 20.6798 26.7854 20.6758 26.707C20.6745 26.4639 20.7267 26.3227 20.875 26.125C20.6842 26.1064 20.6842 26.1064 20.5508 26.2266ZM22.1985 26.5269C22.1023 26.6353 22.1023 26.6353 22.1211 26.8555C22.1688 27.0782 22.1688 27.0782 22.375 27.1875C22.3686 27.1127 22.3621 27.038 22.3555 26.9609C22.3535 26.7428 22.3899 26.6352 22.5312 26.4688C22.5828 26.4172 22.6344 26.3656 22.6875 26.3125C22.4642 26.3125 22.365 26.3823 22.1985 26.5269ZM16.25 26.4375C16.415 26.4581 16.58 26.4788 16.75 26.5C16.6641 26.4036 16.6641 26.4036 16.5625 26.3125C16.4173 26.3009 16.4173 26.3009 16.25 26.4375ZM16.75 26.5C16.7912 26.5413 16.8325 26.5825 16.875 26.625C16.875 26.5837 16.875 26.5425 16.875 26.5C16.8338 26.5 16.7925 26.5 16.75 26.5ZM23.7695 26.6992C23.6683 26.8122 23.6683 26.8122 23.707 26.9805C23.7212 27.0282 23.7354 27.0759 23.75 27.125C23.7771 27.0709 23.7771 27.0709 23.8047 27.0156C23.8698 26.8854 23.9349 26.7552 24 26.625C23.8705 26.613 23.8705 26.613 23.7695 26.6992ZM16.3125 27.3125C16.4907 27.3634 16.6479 27.3824 16.833 27.3811C16.883 27.3809 16.9329 27.3807 16.9844 27.3805C17.0359 27.38 17.0875 27.3794 17.1406 27.3789C17.1932 27.3786 17.2457 27.3783 17.2998 27.3781C17.429 27.3773 17.5583 27.3762 17.6875 27.375C17.4899 27.1774 17.3103 27.1776 17.043 27.1758C16.776 27.1776 16.5605 27.2052 16.3125 27.3125ZM18.9375 27.3125C18.7653 27.4888 18.7653 27.4888 18.625 27.6875C18.6296 27.9241 18.6444 28.0194 18.8125 28.1875C18.8744 28.1669 18.9363 28.1462 19 28.125C18.9587 28.0631 18.9175 28.0012 18.875 27.9375C18.8907 27.791 18.9116 27.645 18.9375 27.5C18.9375 27.4381 18.9375 27.3762 18.9375 27.3125ZM19.5195 27.8203C19.3542 27.9874 19.3542 27.9874 19.375 28.1992C19.4242 28.3931 19.4242 28.3931 19.625 28.5C19.6211 28.4239 19.6173 28.3479 19.6133 28.2695C19.612 28.0264 19.6642 27.8852 19.8125 27.6875C19.6682 27.6746 19.6682 27.6746 19.5195 27.8203ZM22.1133 27.7891C21.9844 27.9328 21.9844 27.9328 21.9727 28.1328C21.9817 28.1921 21.9907 28.2514 22 28.3125C22.0928 28.3744 22.0928 28.3744 22.1875 28.4375C22.1989 28.3799 22.1989 28.3799 22.2104 28.321C22.2262 28.2453 22.2262 28.2453 22.2422 28.168C22.2523 28.1179 22.2625 28.0679 22.2729 28.0164C22.3125 27.875 22.3125 27.875 22.4375 27.6875C22.2467 27.6689 22.2467 27.6689 22.1133 27.7891ZM17.75 28C17.8515 28.203 18.0471 28.2313 18.25 28.3125C18.208 28.1207 18.208 28.1207 18.0703 28.0508C17.932 27.9888 17.932 27.9888 17.75 28ZM20.75 28C20.5463 28.2057 20.5463 28.2057 20.5 28.4805C20.5505 28.6343 20.5505 28.6343 20.6914 28.707C20.7314 28.7212 20.7713 28.7354 20.8125 28.75C20.7951 28.6688 20.7951 28.6688 20.7773 28.5859C20.7496 28.3718 20.7675 28.2099 20.8125 28C20.7919 28 20.7712 28 20.75 28ZM18.3125 28.5625C18.2919 28.6038 18.2712 28.645 18.25 28.6875C18.3005 28.6951 18.351 28.7026 18.4031 28.7104C18.4699 28.7209 18.5367 28.7314 18.6055 28.7422C18.6715 28.7523 18.7374 28.7625 18.8054 28.7729C18.9874 28.8099 19.1431 28.8627 19.3125 28.9375C19.3125 28.8962 19.3125 28.855 19.3125 28.8125C18.9844 28.6139 18.6866 28.5839 18.3125 28.5625ZM17.125 28.9375C17.125 28.9581 17.125 28.9788 17.125 29C17.3106 29.0309 17.3106 29.0309 17.5 29.0625C17.5206 29.0212 17.5412 28.98 17.5625 28.9375C17.4181 28.9375 17.2738 28.9375 17.125 28.9375Z" fill="#F58220"/>
<path d="M12.9375 7.0625C13.8059 7.23008 14.4114 7.74794 14.9416 8.44458C15.9443 9.94142 16.2297 11.8026 16.375 13.5625C16.382 13.6409 16.389 13.7193 16.3962 13.8C16.4678 14.7597 16.443 15.7258 16.4375 16.6875C17.0283 16.2958 17.6157 15.8995 18.2003 15.4986C18.5205 15.2795 18.8424 15.0635 19.1672 14.8513C19.2358 14.8063 19.3044 14.7613 19.375 14.715C19.5082 14.6278 19.6417 14.5411 19.7755 14.4549C19.8357 14.4154 19.896 14.3759 19.958 14.3352C20.0114 14.3006 20.0649 14.266 20.1199 14.2303C20.2571 14.1192 20.3172 14.0408 20.375 13.875C20.3366 13.7512 20.3366 13.7512 20.2578 13.6406C20.214 13.5736 20.1702 13.5066 20.125 13.4375C20.2694 13.355 20.4137 13.2725 20.5625 13.1875C20.8125 13.5469 20.8125 13.5469 20.8125 13.6875C20.9362 13.5947 20.9362 13.5947 21.0625 13.5C20.9594 13.3556 20.8562 13.2112 20.75 13.0625C20.8594 12.9336 20.8594 12.9336 21 12.8125C21.1289 12.8125 21.1289 12.8125 21.25 12.875C21.4375 13.0826 21.4375 13.0826 21.4375 13.25C21.5406 13.2294 21.6437 13.2087 21.75 13.1875C21.8892 13.3464 22.0186 13.5046 22.125 13.6875C22.1094 13.8945 22.1094 13.8945 22.0625 14.0625C22.1037 14.1244 22.145 14.1863 22.1875 14.25C22.1836 14.3789 22.1836 14.3789 22.125 14.5C21.9648 14.5781 21.9648 14.5781 21.8125 14.625C21.625 14.3906 21.625 14.3906 21.625 14.25C21.5322 14.3119 21.5322 14.3119 21.4375 14.375C21.4594 14.4214 21.4813 14.4678 21.5039 14.5156C21.5625 14.6875 21.5625 14.6875 21.5586 14.8242C21.5 14.9375 21.5 14.9375 21.3398 15.0156C21.2896 15.0311 21.2393 15.0466 21.1875 15.0625C21.0844 14.9594 20.9812 14.8562 20.875 14.75C20.8364 14.777 20.7977 14.804 20.7579 14.8319C20.0556 15.3227 19.3528 15.812 18.6377 16.2841C18.3323 16.4857 18.0275 16.6881 17.7227 16.8906C17.6589 16.9328 17.5952 16.9749 17.5296 17.0183C17.2098 17.2307 16.8972 17.4466 16.5962 17.685C16.5 17.75 16.5 17.75 16.375 17.75C16.3779 17.7938 16.3808 17.8377 16.3838 17.8828C16.3993 18.2908 16.38 18.6068 16.125 18.9375C15.8683 19.1923 15.6173 19.3125 15.25 19.3125C15.1021 19.2726 14.9619 19.2246 14.8196 19.1682C14.6711 19.112 14.6711 19.112 14.4375 19.125C14.286 19.2068 14.286 19.2068 14.1316 19.3218C14.0724 19.3637 14.0132 19.4056 13.9522 19.4487C13.8893 19.494 13.8265 19.5393 13.7617 19.5859C13.6303 19.679 13.4989 19.772 13.3674 19.865C13.3038 19.9102 13.2402 19.9554 13.1746 20.0019C12.9651 20.1496 12.7532 20.2928 12.5391 20.4336C11.5663 21.0762 10.6071 21.7393 9.64398 22.3962C9.0167 22.824 8.38876 23.2508 7.76083 23.6777C7.43428 23.8997 7.10777 24.1217 6.78125 24.3438C6.65104 24.4323 6.52083 24.5208 6.39062 24.6094C6.32617 24.6532 6.26172 24.697 6.19531 24.7422C6 24.875 5.80469 25.0078 5.60937 25.1406C5.54483 25.1845 5.48028 25.2284 5.41377 25.2736C5.28453 25.3615 5.15529 25.4494 5.02605 25.5373C4.72204 25.744 4.41804 25.9507 4.1141 26.1575C3.97115 26.2548 3.8282 26.3521 3.68524 26.4493C3.58483 26.5176 3.48443 26.586 3.38403 26.6543C3.26501 26.7353 3.14593 26.8161 3.02676 26.8969C2.93497 26.9592 2.84341 27.022 2.75229 27.0853C2.51334 27.25 2.51334 27.25 2.375 27.25C2.39377 27.2877 2.41254 27.3254 2.43188 27.3643C2.45565 27.4142 2.47942 27.4642 2.50391 27.5156C2.52783 27.5649 2.55176 27.6142 2.57642 27.665C2.6334 27.838 2.63124 27.8955 2.5625 28.0625C2.43315 28.1665 2.43315 28.1665 2.2644 28.2668C2.2037 28.303 2.14299 28.3391 2.08044 28.3763C2.01651 28.4133 1.95258 28.4502 1.88672 28.4883C1.82351 28.5264 1.76031 28.5646 1.69519 28.6039C1.63424 28.6396 1.57329 28.6753 1.5105 28.7122C1.42665 28.7613 1.42665 28.7613 1.34111 28.8115C1.1875 28.875 1.1875 28.875 1.05269 28.8672C0.910027 28.7995 0.858307 28.7322 0.771483 28.6008C0.742399 28.5576 0.713314 28.5144 0.683349 28.4698C0.638997 28.4016 0.638997 28.4016 0.593749 28.332C0.564181 28.2878 0.534613 28.2435 0.504149 28.1979C0.44601 28.1107 0.38838 28.0231 0.331298 27.9352C0.279642 27.8572 0.226252 27.7804 0.170653 27.7052C-0.00323495 27.4677 -0.00323495 27.4677 0.0130606 27.3155C0.108057 27.0696 0.312927 26.9098 0.499999 26.7305C0.559578 26.6688 0.559578 26.6688 0.62036 26.6058C0.917287 26.3211 0.917287 26.3211 1.13696 26.2982C1.32938 26.3195 1.51168 26.3617 1.6987 26.4108C2.02022 26.4765 2.18504 26.4261 2.46142 26.2468C2.58214 26.1595 2.70173 26.0706 2.82031 25.9805C2.94885 25.8868 3.07743 25.7932 3.20605 25.6997C3.26773 25.6541 3.3294 25.6085 3.39294 25.5616C3.59907 25.4107 3.80954 25.2684 4.02344 25.1289C4.63912 24.7225 5.24742 24.3052 5.85712 23.8899C6.18587 23.666 6.51482 23.4424 6.84375 23.2188C6.97396 23.1302 7.10417 23.0417 7.23437 22.9531C8.01562 22.4219 8.79687 21.8906 9.57812 21.3594C9.64258 21.3155 9.70704 21.2717 9.77345 21.2265C9.9036 21.138 10.0338 21.0496 10.1639 20.9611C10.4904 20.7392 10.8167 20.5171 11.1428 20.2947C11.9265 19.7605 12.7129 19.2309 13.5027 18.7058C13.5567 18.6693 13.6107 18.6329 13.6664 18.5953C13.8125 18.5 13.8125 18.5 13.9355 18.4342C14.0523 18.3752 14.0523 18.3752 14.1875 18.25C14.2655 17.8361 14.261 17.4194 14.2627 16.9993C14.2631 16.9271 14.2636 16.855 14.264 16.7807C14.2651 16.5478 14.2655 16.3149 14.2656 16.082C14.2657 16.0029 14.2657 15.9238 14.2658 15.8424C14.2648 13.9975 14.1494 12.2608 13.5625 10.5C13.5419 11.4488 13.5212 12.3975 13.5 13.375C13.3165 13.2832 13.3032 13.1398 13.2402 12.9546C13.216 12.8804 13.216 12.8804 13.1914 12.8047C13.1748 12.7541 13.1582 12.7035 13.1411 12.6514C12.8088 11.6112 12.7372 10.5882 12.7383 9.50391C12.7383 9.45261 12.7382 9.40131 12.7382 9.34846C12.7394 7.26059 12.7394 7.26059 12.9375 7.0625Z" fill="#F58220"/>
<path d="M6.5625 16C8.85188 16 11.1412 16 13.5 16C13.5 16.825 13.5 17.65 13.5 18.5C12.8992 19.0923 12.8992 19.0923 12.4227 19.2961C12.1452 19.4229 11.9051 19.5985 11.6562 19.7734C11.5647 19.8345 11.473 19.8952 11.3811 19.9556C11.217 20.0639 11.0534 20.1729 10.8904 20.2827C10.8221 20.3286 10.7539 20.3746 10.6836 20.4219C10.6249 20.4615 10.5661 20.5012 10.5056 20.542C10.375 20.625 10.375 20.625 10.3125 20.625C10.3125 19.6762 10.3125 18.7275 10.3125 17.75C10.1269 17.75 9.94125 17.75 9.75 17.75C9.7543 17.7886 9.7586 17.8272 9.76304 17.8669C10.0633 20.6868 10.0633 20.6868 9.57898 21.3351C9.16732 21.7729 8.60151 22.0244 8.05862 22.2611C7.70885 22.4165 7.40863 22.6372 7.10156 22.8633C6.63716 23.1875 6.63716 23.1875 6.5625 23.1875C6.5625 20.8156 6.5625 18.4437 6.5625 16Z" fill="#F58220"/>
<path d="M13.5 20.0625C13.5044 21.2925 13.5077 22.5225 13.5097 23.7525C13.5107 24.3237 13.512 24.8948 13.5142 25.4659C13.516 25.9638 13.5172 26.4617 13.5177 26.9596C13.5179 27.2232 13.5185 27.4867 13.5198 27.7503C13.5211 27.9986 13.5215 28.2468 13.5212 28.4951C13.5213 28.586 13.5216 28.6769 13.5224 28.7678C13.5272 29.406 13.4919 29.9311 13.0625 30.4375C12.5725 30.7868 12.165 30.9379 11.5625 30.875C11.1395 30.7548 10.7245 30.5143 10.4906 30.1326C10.3054 29.7395 10.2662 29.3832 10.2504 28.9522C10.247 28.8807 10.2435 28.8092 10.24 28.7355C10.2102 28.0766 10.1939 27.4171 10.1819 26.7577C10.1737 26.3158 10.1615 25.8749 10.1385 25.4336C9.98857 22.4999 9.98857 22.4999 10.5136 21.8287C10.9718 21.3461 11.5579 21.0647 12.1638 20.812C12.4989 20.668 12.7904 20.4681 13.0872 20.2583C13.3648 20.0625 13.3648 20.0625 13.5 20.0625Z" fill="#F58220"/>
<path d="M11.8125 1.12499C11.8502 1.15706 11.8878 1.18912 11.9267 1.22216C12.0867 1.32861 12.1843 1.34077 12.375 1.35155C12.4352 1.3556 12.4955 1.35965 12.5576 1.36382C12.6211 1.36751 12.6846 1.37119 12.75 1.37499C13.5383 1.43345 14.2246 1.51048 14.875 1.99999C14.9653 2.18053 14.9611 2.29977 14.9375 2.49999C14.588 2.98927 13.9444 3.09828 13.3846 3.19524C12.2105 3.37008 10.9257 3.30791 9.8125 2.87499C10.6414 3.37435 11.5336 3.61162 12.4883 3.72314C12.6875 3.74999 12.6875 3.74999 12.875 3.81249C12.8179 4.58327 12.5095 5.16345 11.9297 5.66405C11.1621 6.2727 10.3901 6.3998 9.4375 6.31249C8.65366 6.17055 8.02293 5.6986 7.5625 5.06249C7.11977 4.33675 7.01438 3.55918 7.16357 2.7207C7.36124 1.98599 7.81738 1.37645 8.4375 0.937492C9.54454 0.32687 10.7774 0.427659 11.8125 1.12499Z" fill="#F58220"/>
<path d="M7.12501 7.0625C7.52063 9.12508 7.45222 11.4256 6.62501 13.375C6.60439 13.375 6.58376 13.375 6.56251 13.375C6.54189 12.4056 6.52126 11.4362 6.50001 10.4375C6.23743 11.2075 6.23743 11.2075 6.05079 11.9883C6.04074 12.0407 6.03068 12.0931 6.02032 12.1471C5.9218 12.6786 5.85691 13.2114 5.81251 13.75C5.8089 13.7929 5.80528 13.8358 5.80156 13.88C5.71683 14.941 5.71742 16.0165 5.77077 17.0789C5.77616 17.188 5.77616 17.188 5.78166 17.2993C5.78899 17.4368 5.79729 17.5743 5.80675 17.7117C5.83338 18.1966 5.78626 18.5943 5.4922 18.9922C5.22711 19.1881 4.94889 19.33 4.61134 19.3003C4.28849 19.2244 4.01928 19.1315 3.83205 18.8516C3.52309 18.3114 3.61449 17.5737 3.61232 16.969C3.61196 16.8897 3.61161 16.8105 3.61124 16.7288C3.61065 16.5614 3.61022 16.394 3.61 16.2266C3.6096 15.977 3.60746 15.7275 3.60548 15.4779C3.59522 12.994 3.7509 9.93494 5.47633 7.96045C5.90198 7.5369 6.49461 7.0625 7.12501 7.0625Z" fill="#F58220"/>
<path d="M25.625 18.75C25.8231 18.7726 25.9251 18.8025 26.082 18.9297C26.2951 19.0982 26.4934 19.163 26.75 19.25C26.7088 19.2113 26.6675 19.1727 26.625 19.1328C26.5 19 26.5 19 26.5 18.875C26.6964 18.9344 26.864 18.9932 27.0391 19.1016C27.195 19.2084 27.195 19.2084 27.4375 19.1875C27.2931 19.0638 27.1488 18.94 27 18.8125C27.0619 18.7919 27.1237 18.7713 27.1875 18.75C27.2883 18.8057 27.2883 18.8057 27.3945 18.8906C27.5383 19.0007 27.6595 19.0794 27.8242 19.1602C28.004 19.2521 28.116 19.3505 28.25 19.5C28.2706 19.4588 28.2912 19.4175 28.3125 19.375C28.2816 19.3041 28.2506 19.2332 28.2188 19.1602C28.125 18.9375 28.125 18.9375 28.1875 18.75C28.3695 18.9555 28.4686 19.0999 28.5 19.375C28.5619 19.3956 28.6238 19.4163 28.6875 19.4375C28.7742 19.5667 28.7742 19.5667 28.8555 19.7227C28.8828 19.7743 28.9101 19.8259 28.9382 19.8792C28.9586 19.919 28.979 19.9589 29 20C29.0673 19.795 29.07 19.7653 28.9688 19.5586C28.9378 19.498 28.9069 19.4374 28.875 19.375C28.8956 19.3131 28.9163 19.2513 28.9375 19.1875C28.9734 19.2325 29.0092 19.2774 29.0461 19.3237C29.1366 19.4365 29.2275 19.5488 29.3191 19.6606C29.3835 19.7397 29.3835 19.7397 29.4492 19.8203C29.4926 19.8733 29.5361 19.9263 29.5808 19.981C29.7772 20.2461 29.7536 20.4738 29.7461 20.7891C29.743 20.947 29.743 20.947 29.8125 21.125C29.7094 21.1663 29.6062 21.2075 29.5 21.25C29.625 21.1875 29.625 21.1875 29.875 21.1875C29.8885 21.1198 29.8885 21.1198 29.9023 21.0508C29.9241 20.9421 29.9483 20.8338 29.9766 20.7266C30.0066 20.5163 29.9742 20.3331 29.9375 20.125C29.9994 20.0941 29.9994 20.0941 30.0625 20.0625C30.0791 20.1145 30.0957 20.1664 30.1128 20.22C30.1349 20.2879 30.1569 20.3558 30.1797 20.4258C30.2014 20.4932 30.2232 20.5606 30.2456 20.6301C30.3075 20.8208 30.3075 20.8208 30.4375 21C30.4612 21.1643 30.4612 21.1643 30.4727 21.3477C30.4837 21.5892 30.4837 21.5892 30.5625 21.8125C30.5859 22.0234 30.5859 22.0234 30.5625 22.25C30.4062 22.4023 30.4062 22.4023 30.25 22.5C30.2706 22.5413 30.2913 22.5825 30.3125 22.625C30.3222 22.8487 30.3039 23.0344 30.25 23.25C30.2706 23.2913 30.2913 23.3325 30.3125 23.375C30.3242 23.5625 30.3242 23.5625 30.3125 23.75C30.1875 23.875 30.1875 23.875 30.0234 23.8828C29.9745 23.8802 29.9255 23.8777 29.875 23.875C29.8943 23.962 29.8943 23.962 29.9141 24.0508C29.9375 24.25 29.9375 24.25 29.8125 24.4375C29.5497 24.4667 29.3626 24.4243 29.125 24.3125C29.1443 24.3995 29.1443 24.3995 29.1641 24.4883C29.1875 24.6875 29.1875 24.6875 29.0625 24.875C28.8472 24.9031 28.7283 24.8986 28.5391 24.7891C28.5055 24.7555 28.472 24.722 28.4375 24.6875C28.4375 24.6463 28.4375 24.605 28.4375 24.5625C28.3344 24.5831 28.2313 24.6038 28.125 24.625C28.0941 24.7178 28.0941 24.7178 28.0625 24.8125C27.7705 24.8766 27.5437 24.8589 27.25 24.8125C27.184 24.8148 27.118 24.8172 27.05 24.8196C26.7739 24.8113 26.5497 24.7495 26.2891 24.6641C26.2439 24.6502 26.1987 24.6363 26.1521 24.6221C26.0375 24.5855 25.9248 24.5432 25.8125 24.5C25.7816 24.4381 25.7816 24.4381 25.75 24.375C25.7975 24.3765 25.8449 24.3779 25.8938 24.3794C25.9559 24.3805 26.018 24.3817 26.082 24.3828C26.1437 24.3843 26.2053 24.3857 26.2688 24.3872C26.4515 24.3879 26.4515 24.3879 26.625 24.25C26.5826 24.2461 26.5402 24.2421 26.4966 24.238C26.0696 24.1818 25.7956 24.0604 25.4556 23.7971C25.3096 23.6853 25.1591 23.5919 25 23.5C25.0309 23.4381 25.0309 23.4381 25.0625 23.375C25.1683 23.4259 25.2741 23.4767 25.3799 23.5276C25.5253 23.5699 25.6083 23.5473 25.75 23.5C25.713 23.4863 25.676 23.4726 25.6379 23.4585C25.3479 23.3421 25.143 23.2426 24.9539 22.9824C24.8234 22.8047 24.6704 22.6464 24.5222 22.4834C24.4375 22.375 24.4375 22.375 24.4375 22.25C24.6042 22.3333 24.7708 22.4167 24.9375 22.5C24.9001 22.4394 24.8627 22.3788 24.8242 22.3164C24.6244 21.9671 24.5015 21.5846 24.4375 21.1875C24.4788 21.1875 24.52 21.1875 24.5625 21.1875C24.5445 21.1393 24.5264 21.0911 24.5078 21.0415C24.473 20.9475 24.473 20.9475 24.4375 20.8516C24.4143 20.7892 24.3911 20.7268 24.3672 20.6626C24.3125 20.5 24.3125 20.5 24.3125 20.375C24.5 20.4375 24.5 20.4375 24.6055 20.6211C24.6875 20.8125 24.6875 20.8125 24.6875 20.9375C24.7494 20.9375 24.8113 20.9375 24.875 20.9375C24.8577 20.8922 24.8404 20.8469 24.8225 20.8003C24.5976 20.2001 24.5976 20.2001 24.5625 19.875C24.6944 19.9981 24.7996 20.0984 24.8789 20.2617C24.9325 20.3975 24.9325 20.3975 25.125 20.4375C25.0876 20.3769 25.0502 20.3163 25.0117 20.2539C24.7891 19.8646 24.6814 19.4297 24.5625 19C24.75 19.0625 24.75 19.0625 24.8555 19.2461C24.9375 19.4375 24.9375 19.4375 24.9375 19.5625C24.9865 19.5715 25.0355 19.5805 25.0859 19.5898C25.25 19.625 25.25 19.625 25.375 19.6875C25.3737 19.6269 25.3724 19.5663 25.3711 19.5039C25.375 19.3125 25.375 19.3125 25.4375 19.25C25.6936 19.2737 25.8462 19.2933 26.0625 19.4375C26.0907 19.1946 26.0907 19.1946 25.9668 19.0833C25.9262 19.0519 25.8856 19.0206 25.8438 18.9883C25.7701 18.9306 25.697 18.8722 25.625 18.8125C25.625 18.7919 25.625 18.7713 25.625 18.75ZM26.9375 19.5625C27 19.6875 27 19.6875 27 19.6875L26.9375 19.5625ZM26.25 19.75C26.2436 19.8196 26.2371 19.8892 26.2305 19.9609C26.2163 20.0357 26.2021 20.1105 26.1875 20.1875C26.1256 20.2288 26.0638 20.27 26 20.3125C26.0825 20.3331 26.165 20.3538 26.25 20.375C26.3628 20.2025 26.3758 20.1319 26.3516 19.9219C26.3387 19.8652 26.3258 19.8084 26.3125 19.75C26.2919 19.75 26.2713 19.75 26.25 19.75ZM27.3125 19.75C27.3125 19.8119 27.3125 19.8738 27.3125 19.9375C27.4362 19.8963 27.56 19.855 27.6875 19.8125C27.6875 19.7919 27.6875 19.7713 27.6875 19.75C27.5638 19.75 27.44 19.75 27.3125 19.75ZM27.0625 19.8125C27.125 19.9375 27.125 19.9375 27.125 19.9375L27.0625 19.8125ZM27.125 19.9375C27.1662 19.9788 27.2075 20.02 27.25 20.0625C27.25 20.0213 27.25 19.98 27.25 19.9375C27.2088 19.9375 27.1675 19.9375 27.125 19.9375ZM28 19.9375C28 19.9788 28 20.02 28 20.0625C28.2166 20.0316 28.2166 20.0316 28.4375 20C28.4375 19.9794 28.4375 19.9588 28.4375 19.9375C28.2931 19.9375 28.1488 19.9375 28 19.9375ZM27.9375 20.0625C28 20.1875 28 20.1875 28 20.1875L27.9375 20.0625ZM25.75 20.25C25.8125 20.4375 25.8125 20.4375 25.8125 20.4375L25.75 20.25ZM29.0625 20.3125C29.125 20.5 29.125 20.5 29.125 20.5L29.0625 20.3125ZM26.5 20.4375C26.4588 20.52 26.4175 20.6025 26.375 20.6875C26.5194 20.6256 26.6637 20.5638 26.8125 20.5C26.8125 20.4794 26.8125 20.4588 26.8125 20.4375C26.7094 20.4375 26.6063 20.4375 26.5 20.4375ZM29.125 20.5C29.1875 20.625 29.1875 20.625 29.1875 20.625L29.125 20.5ZM27.25 20.625C27.2294 20.7075 27.2088 20.79 27.1875 20.875C27.2081 20.8338 27.2287 20.7925 27.25 20.75C27.4414 20.7109 27.4414 20.7109 27.625 20.6875C27.625 20.6669 27.625 20.6463 27.625 20.625C27.5013 20.625 27.3775 20.625 27.25 20.625ZM28.25 20.625C28.2294 20.6663 28.2088 20.7075 28.1875 20.75C28.3112 20.7294 28.435 20.7088 28.5625 20.6875C28.5625 20.6669 28.5625 20.6463 28.5625 20.625C28.4594 20.625 28.3562 20.625 28.25 20.625ZM29.1875 20.625C29.25 20.75 29.25 20.75 29.25 20.75L29.1875 20.625ZM28.125 20.75C28.1875 20.875 28.1875 20.875 28.1875 20.875L28.125 20.75ZM26.375 21.0625C26.3956 21.1038 26.4162 21.145 26.4375 21.1875C26.5406 21.1463 26.6437 21.105 26.75 21.0625C26.5594 20.9993 26.5594 20.9993 26.375 21.0625ZM28.4375 21C28.3962 21.0825 28.355 21.165 28.3125 21.25C28.4775 21.2088 28.6425 21.1675 28.8125 21.125C28.7712 21.0838 28.73 21.0425 28.6875 21C28.605 21 28.5225 21 28.4375 21ZM25.6875 21.0625C25.75 21.1875 25.75 21.1875 25.75 21.1875L25.6875 21.0625ZM24.5625 21.1875C24.625 21.3125 24.625 21.3125 24.625 21.3125L24.5625 21.1875ZM27.375 21.625C27.3956 21.6869 27.4162 21.7488 27.4375 21.8125C27.4646 21.7841 27.4916 21.7558 27.5195 21.7266C27.625 21.625 27.625 21.625 27.8125 21.5C27.5653 21.4782 27.5653 21.4782 27.375 21.625ZM25.9375 21.75C25.8756 21.8428 25.8756 21.8428 25.8125 21.9375C25.8331 21.9994 25.8537 22.0613 25.875 22.125C25.8956 22.0425 25.9162 21.96 25.9375 21.875C26.1541 21.8441 26.1541 21.8441 26.375 21.8125C26.375 21.7919 26.375 21.7713 26.375 21.75C26.1615 21.7344 26.1615 21.7344 25.9375 21.75ZM28.375 21.875C28.3337 21.9575 28.2925 22.04 28.25 22.125C28.415 22.0838 28.58 22.0425 28.75 22C28.7087 21.9588 28.6675 21.9175 28.625 21.875C28.5425 21.875 28.46 21.875 28.375 21.875ZM29.25 21.9375C29.2294 22.02 29.2087 22.1025 29.1875 22.1875C29.2081 22.1463 29.2288 22.105 29.25 22.0625C29.3951 22.037 29.5411 22.016 29.6875 22C29.6875 21.9794 29.6875 21.9588 29.6875 21.9375C29.5431 21.9375 29.3987 21.9375 29.25 21.9375ZM27.3125 22.125C27.2713 22.2075 27.23 22.29 27.1875 22.375C27.3525 22.3338 27.5175 22.2925 27.6875 22.25C27.6463 22.2088 27.605 22.1675 27.5625 22.125C27.48 22.125 27.3975 22.125 27.3125 22.125ZM26 22.3125C26.0206 22.3538 26.0412 22.395 26.0625 22.4375C26.2791 22.4066 26.2791 22.4066 26.5 22.375C26.2983 22.2405 26.2193 22.2028 26 22.3125ZM25.5625 22.3125C25.625 22.4375 25.625 22.4375 25.625 22.4375L25.5625 22.3125ZM28.625 22.625C28.625 22.6869 28.625 22.7488 28.625 22.8125C28.7281 22.7713 28.8313 22.73 28.9375 22.6875C28.9375 22.6669 28.9375 22.6463 28.9375 22.625C28.8344 22.625 28.7312 22.625 28.625 22.625ZM28.5 22.8125C28.5625 22.9375 28.5625 22.9375 28.5625 22.9375L28.5 22.8125ZM26.3125 23.0625C26.3331 23.1244 26.3537 23.1863 26.375 23.25C26.4162 23.1881 26.4575 23.1263 26.5 23.0625C26.6641 23.0195 26.6641 23.0195 26.8125 23C26.8125 22.9794 26.8125 22.9588 26.8125 22.9375C26.5317 22.9109 26.5317 22.9109 26.3125 23.0625ZM27.875 23.0625C27.8338 23.1038 27.7925 23.145 27.75 23.1875C27.7706 23.2494 27.7912 23.3113 27.8125 23.375C27.8331 23.3338 27.8537 23.2925 27.875 23.25C28.0664 23.2109 28.0664 23.2109 28.25 23.1875C28.2088 23.1463 28.1675 23.105 28.125 23.0625C28.0425 23.0625 27.96 23.0625 27.875 23.0625ZM29.1875 23.5C29.4375 23.5625 29.4375 23.5625 29.4375 23.5625L29.1875 23.5ZM27.125 23.5625C27.125 23.6244 27.125 23.6863 27.125 23.75C27.2487 23.7088 27.3725 23.6675 27.5 23.625C27.5 23.6044 27.5 23.5838 27.5 23.5625C27.3763 23.5625 27.2525 23.5625 27.125 23.5625Z" fill="#F58220"/>
<path d="M28.3327 25.4201C28.4117 25.421 28.4117 25.421 28.4922 25.4219C28.5724 25.4225 28.5724 25.4225 28.6542 25.4232C29.7282 25.4406 29.7282 25.4406 30.0208 25.6836C30.0724 25.7474 30.0724 25.7474 30.125 25.8125C30.1094 25.9531 30.1094 25.9531 30.0625 26.0625C30.1804 26.0567 30.1804 26.0567 30.3008 26.0508C30.5489 26.0495 30.5489 26.0495 30.6602 26.1562C30.6898 26.1872 30.7195 26.2181 30.75 26.25C30.8958 26.2526 31.0417 26.2526 31.1875 26.25C31.2494 26.2912 31.3113 26.3325 31.375 26.375C31.3544 26.5194 31.3337 26.6637 31.3125 26.8125C31.3834 26.8215 31.4543 26.8305 31.5273 26.8398C31.75 26.875 31.75 26.875 31.8125 26.9375C31.7945 27.0837 31.7738 27.2296 31.75 27.375C31.6572 27.4059 31.6572 27.4059 31.5625 27.4375C31.5625 27.52 31.5625 27.6025 31.5625 27.6875C31.7069 27.7081 31.8513 27.7287 32 27.75C32.0195 27.9219 32.0195 27.9219 32 28.125C31.8516 28.2734 31.8516 28.2734 31.6875 28.375C31.6462 28.375 31.605 28.375 31.5625 28.375C31.5521 28.526 31.5521 28.526 31.5625 28.6875C31.6038 28.7287 31.645 28.77 31.6875 28.8125C31.6661 29.1484 31.6661 29.1484 31.532 29.2761C31.4146 29.399 31.4022 29.4823 31.375 29.6484C31.3083 29.988 31.1797 30.1953 30.9375 30.4375C30.895 30.5019 30.8524 30.5664 30.8086 30.6328C30.6875 30.8125 30.6875 30.8125 30.5625 30.875C30.5916 30.7051 30.6258 30.5607 30.6953 30.4023C30.757 30.2305 30.7384 30.1697 30.6875 30C30.6731 30.0377 30.6587 30.0754 30.6438 30.1143C30.5149 30.4302 30.4152 30.619 30.125 30.8125C30.0271 30.8903 29.9295 30.9685 29.832 31.0469C29.5781 31.25 29.5781 31.25 29.4375 31.25C29.5001 31.1103 29.5507 31.0109 29.6641 30.9062C29.7782 30.803 29.7782 30.803 29.75 30.5625C29.7278 30.595 29.7057 30.6274 29.6829 30.6609C29.2919 31.173 28.7485 31.3484 28.125 31.4375C28.2823 31.2746 28.4407 31.1316 28.625 31C28.5861 31.0205 28.5472 31.0409 28.5071 31.062C28.2356 31.1499 27.9825 31.1383 27.6992 31.1328C27.6164 31.132 27.6164 31.132 27.5319 31.1311C27.3962 31.1296 27.2606 31.1274 27.125 31.125C27.1559 31.0322 27.1559 31.0322 27.1875 30.9375C27.1359 30.9478 27.0844 30.9581 27.0312 30.9687C26.7867 31.0037 26.5593 31.0042 26.3125 31C26.3331 30.9587 26.3537 30.9175 26.375 30.875C26.519 30.8351 26.6634 30.8112 26.8105 30.7852C26.8734 30.7677 26.8734 30.7677 26.9375 30.75C26.9581 30.7087 26.9787 30.6675 27 30.625C26.6494 30.625 26.2988 30.625 25.9375 30.625C25.9684 30.5631 25.9684 30.5631 26 30.5C26.1292 30.4604 26.1292 30.4604 26.2852 30.4297C26.3368 30.4192 26.3884 30.4087 26.4417 30.3979C26.5015 30.3866 26.5015 30.3866 26.5625 30.375C26.5625 30.3337 26.5625 30.2925 26.5625 30.25C26.5271 30.2602 26.4917 30.2704 26.4553 30.2809C26.3077 30.3135 26.1792 30.3196 26.0283 30.3186C25.9755 30.3184 25.9228 30.3182 25.8684 30.318C25.7866 30.3172 25.7866 30.3172 25.7031 30.3164C25.6476 30.3161 25.5921 30.3158 25.5349 30.3155C25.3983 30.3148 25.2616 30.3138 25.125 30.3125C25.1559 30.2506 25.1559 30.2506 25.1875 30.1875C25.3303 30.1616 25.3303 30.1616 25.5039 30.1484C25.5901 30.1414 25.5901 30.1414 25.678 30.1343C25.7224 30.1312 25.7668 30.1281 25.8125 30.125C25.8215 30.085 25.8305 30.0451 25.8398 30.0039C25.875 29.875 25.875 29.875 25.9375 29.8125C25.8344 29.7506 25.7312 29.6887 25.625 29.625C25.6441 29.3954 25.6724 29.3262 25.8477 29.168C25.8979 29.1332 25.9482 29.0984 26 29.0625C25.8973 29.0064 25.8973 29.0064 25.75 29C25.5964 29.0722 25.4577 29.1613 25.3125 29.25C25.2712 29.25 25.23 29.25 25.1875 29.25C25.2643 29.0195 25.3766 28.9734 25.5715 28.842C25.7589 28.6933 25.8706 28.5124 26 28.3125C25.951 28.3434 25.902 28.3744 25.8516 28.4062C25.6875 28.5 25.6875 28.5 25.5625 28.5C25.6602 28.2363 25.8513 28.1135 26.0625 27.9375C26.1483 27.8031 26.1483 27.8031 26.1875 27.6875C26.1179 27.7287 26.0483 27.77 25.9766 27.8125C25.7656 27.9375 25.7656 27.9375 25.625 27.9375C25.7198 27.6719 25.8946 27.5866 26.125 27.4375C26.2304 27.3346 26.3347 27.2305 26.4375 27.125C26.52 27.0631 26.6025 27.0012 26.6875 26.9375C26.4606 26.9169 26.2337 26.8962 26 26.875C26.1431 26.7319 26.2148 26.7171 26.4084 26.6716C26.4642 26.6582 26.5199 26.6448 26.5773 26.631C26.6356 26.6174 26.6939 26.6038 26.7539 26.5898C26.8693 26.5626 26.9846 26.5352 27.0999 26.5076C27.1511 26.4956 27.2023 26.4836 27.2551 26.4713C27.3745 26.4482 27.3745 26.4482 27.4375 26.375C27.1482 26.3115 26.916 26.3226 26.625 26.375C26.625 26.3337 26.625 26.2925 26.625 26.25C26.6725 26.2334 26.7199 26.2168 26.7688 26.1997C26.862 26.1666 26.862 26.1666 26.957 26.1328C27.0187 26.1111 27.0803 26.0893 27.1438 26.0669C27.3222 26.0029 27.3222 26.0029 27.5 25.875C27.6829 25.8584 27.6829 25.8584 27.8945 25.8594C27.9986 25.8589 27.9986 25.8589 28.1047 25.8584C28.3196 25.8756 28.4893 25.916 28.6875 26C28.7422 26.1328 28.7422 26.1328 28.75 26.25C28.7706 26.1469 28.7912 26.0437 28.8125 25.9375C28.7738 25.9194 28.7352 25.9014 28.6953 25.8828C28.5625 25.8125 28.5625 25.8125 28.4375 25.6875C28.2858 25.645 28.2858 25.645 28.1172 25.6172C28.0603 25.6067 28.0034 25.5962 27.9448 25.5854C27.9012 25.5779 27.8575 25.5703 27.8125 25.5625C27.9792 25.3958 28.1059 25.4213 28.3327 25.4201ZM27.625 26.4375C27.625 26.4581 27.625 26.4787 27.625 26.5C27.79 26.5 27.955 26.5 28.125 26.5C28.125 26.4794 28.125 26.4587 28.125 26.4375C27.96 26.4375 27.795 26.4375 27.625 26.4375ZM29.375 26.5C29.3118 26.6906 29.3118 26.6906 29.375 26.875C29.4163 26.8544 29.4575 26.8337 29.5 26.8125C29.4794 26.7094 29.4587 26.6062 29.4375 26.5C29.4169 26.5 29.3962 26.5 29.375 26.5ZM30.375 26.625C30.4375 26.875 30.4375 26.875 30.4375 26.875L30.375 26.625ZM27.125 27C27.1044 27.1237 27.0838 27.2475 27.0625 27.375C27.1244 27.4059 27.1244 27.4059 27.1875 27.4375C27.1875 27.2931 27.1875 27.1487 27.1875 27C27.1669 27 27.1463 27 27.125 27ZM28.25 27.0625C28.1868 27.2531 28.1868 27.2531 28.25 27.4375C28.2912 27.4169 28.3325 27.3962 28.375 27.375C28.3544 27.2719 28.3338 27.1687 28.3125 27.0625C28.2919 27.0625 28.2713 27.0625 28.25 27.0625ZM27.8125 27.125C27.8125 27.2281 27.8125 27.3312 27.8125 27.4375C27.8744 27.4684 27.8744 27.4684 27.9375 27.5C27.9169 27.3762 27.8963 27.2525 27.875 27.125C27.8544 27.125 27.8338 27.125 27.8125 27.125ZM30.8125 27.1875C30.875 27.4375 30.875 27.4375 30.875 27.4375L30.8125 27.1875ZM29.125 27.3125C29.044 27.3791 29.044 27.3791 29.0586 27.5352C29.0599 27.5854 29.0612 27.6357 29.0625 27.6875C29.1318 27.5698 29.1318 27.5698 29.1875 27.4375C29.1669 27.3962 29.1462 27.355 29.125 27.3125ZM29.875 27.3125C29.8544 27.4156 29.8337 27.5187 29.8125 27.625C29.8744 27.6559 29.8744 27.6559 29.9375 27.6875C29.9375 27.5637 29.9375 27.44 29.9375 27.3125C29.9169 27.3125 29.8962 27.3125 29.875 27.3125ZM26.75 27.625C26.8125 27.75 26.8125 27.75 26.8125 27.75L26.75 27.625ZM26.6875 27.75C26.7081 27.8531 26.7287 27.9562 26.75 28.0625C26.7706 28.0212 26.7912 27.98 26.8125 27.9375C26.7713 27.8756 26.73 27.8137 26.6875 27.75ZM27.5625 27.9375C27.4815 28.0041 27.4815 28.0041 27.4961 28.1602C27.4974 28.2104 27.4987 28.2607 27.5 28.3125C27.5619 28.3434 27.5619 28.3434 27.625 28.375C27.625 28.2306 27.625 28.0862 27.625 27.9375C27.6044 27.9375 27.5838 27.9375 27.5625 27.9375ZM28.5 28C28.4588 28.1031 28.4175 28.2062 28.375 28.3125C28.4369 28.3744 28.4987 28.4362 28.5625 28.5C28.5625 28.335 28.5625 28.17 28.5625 28C28.5419 28 28.5213 28 28.5 28ZM26.8125 28.0625C26.7919 28.1037 26.7713 28.145 26.75 28.1875C26.7912 28.1875 26.8325 28.1875 26.875 28.1875C26.8544 28.1462 26.8338 28.105 26.8125 28.0625ZM31 28.0625C31.0625 28.25 31.0625 28.25 31.0625 28.25L31 28.0625ZM26.3125 28.1875C26.3125 28.2081 26.3125 28.2287 26.3125 28.25C26.4362 28.25 26.56 28.25 26.6875 28.25C26.6875 28.2294 26.6875 28.2087 26.6875 28.1875C26.5638 28.1875 26.44 28.1875 26.3125 28.1875ZM30.0625 28.1875C30.0419 28.2906 30.0212 28.3937 30 28.5C30.0619 28.5309 30.0619 28.5309 30.125 28.5625C30.125 28.4387 30.125 28.315 30.125 28.1875C30.1044 28.1875 30.0837 28.1875 30.0625 28.1875ZM29 28.4375C28.9794 28.5406 28.9588 28.6437 28.9375 28.75C28.9994 28.7809 28.9994 28.7809 29.0625 28.8125C29.0625 28.6887 29.0625 28.565 29.0625 28.4375C29.0419 28.4375 29.0213 28.4375 29 28.4375ZM27.125 28.6875C27.1044 28.7906 27.0838 28.8937 27.0625 29C27.1244 29.0309 27.1244 29.0309 27.1875 29.0625C27.1875 28.9387 27.1875 28.815 27.1875 28.6875C27.1669 28.6875 27.1463 28.6875 27.125 28.6875ZM27.6875 28.875C27.6065 28.9416 27.6065 28.9416 27.6211 29.0977C27.6224 29.1479 27.6237 29.1982 27.625 29.25C27.6869 29.2809 27.6869 29.2809 27.75 29.3125C27.75 29.1681 27.75 29.0237 27.75 28.875C27.7294 28.875 27.7088 28.875 27.6875 28.875ZM26.1875 29C26.2906 29 26.3937 29 26.5 29C26.5206 28.9587 26.5412 28.9175 26.5625 28.875C26.4086 28.875 26.3217 28.9284 26.1875 29ZM26.6875 29C26.7081 29.1237 26.7287 29.2475 26.75 29.375C26.7912 29.3337 26.8325 29.2925 26.875 29.25C26.8551 29.1182 26.8551 29.1182 26.8125 29C26.7713 29 26.73 29 26.6875 29ZM30.3125 29C30.2315 29.0666 30.2315 29.0666 30.2461 29.2227C30.2474 29.2729 30.2487 29.3232 30.25 29.375C30.3119 29.4059 30.3119 29.4059 30.375 29.4375C30.375 29.2931 30.375 29.1487 30.375 29C30.3544 29 30.3337 29 30.3125 29ZM26.5625 29.5C26.5419 29.5412 26.5213 29.5825 26.5 29.625C26.6031 29.625 26.7062 29.625 26.8125 29.625C26.73 29.5837 26.6475 29.5425 26.5625 29.5ZM29.4375 29.5625C29.4375 29.6656 29.4375 29.7687 29.4375 29.875C29.5613 29.9369 29.5613 29.9369 29.6875 30C29.6256 29.8556 29.5637 29.7112 29.5 29.5625C29.4794 29.5625 29.4587 29.5625 29.4375 29.5625ZM28.1875 29.625C28.1875 29.7487 28.1875 29.8725 28.1875 30C28.2287 30 28.27 30 28.3125 30C28.2919 29.8762 28.2713 29.7525 28.25 29.625C28.2294 29.625 28.2088 29.625 28.1875 29.625ZM28.75 29.625C28.7294 29.7281 28.7088 29.8312 28.6875 29.9375C28.7494 29.9684 28.7494 29.9684 28.8125 30C28.8125 29.8762 28.8125 29.7525 28.8125 29.625C28.7919 29.625 28.7713 29.625 28.75 29.625ZM29.875 30.125C29.9375 30.25 29.9375 30.25 29.9375 30.25L29.875 30.125ZM29.8125 30.25C29.875 30.375 29.875 30.375 29.875 30.375L29.8125 30.25ZM28.6875 30.75C28.75 30.875 28.75 30.875 28.75 30.875L28.6875 30.75Z" fill="#F58220"/>
<path d="M9.75001 22.5625C9.75586 23.4736 9.76026 24.3847 9.76296 25.2959C9.76425 25.719 9.766 26.142 9.76887 26.5651C9.77163 26.9736 9.77308 27.3821 9.77373 27.7906C9.77419 27.9463 9.77509 28.1019 9.77644 28.2576C9.77826 28.476 9.7785 28.6944 9.77839 28.9128C9.77974 29.0089 9.77974 29.0089 9.78111 29.1068C9.77831 29.597 9.67265 29.9765 9.35938 30.3594C8.88343 30.7488 8.49459 30.9287 7.87501 30.875C7.41049 30.7835 7.0679 30.5789 6.78943 30.1943C6.49455 29.6792 6.49973 29.1404 6.48804 28.5635C6.48677 28.51 6.4855 28.4565 6.48418 28.4014C6.4777 28.1183 6.47322 27.8353 6.47027 27.5522C6.46749 27.3197 6.46097 27.0877 6.45104 26.8554C6.37303 24.991 6.37303 24.991 6.67897 24.5009C6.96176 24.2083 7.28861 24.0343 7.66098 23.8783C7.86295 23.7906 8.02392 23.678 8.20191 23.5488C8.30508 23.4803 8.40834 23.4119 8.51172 23.3438C8.56397 23.3091 8.61622 23.2745 8.67005 23.2388C8.77195 23.1712 8.8739 23.1037 8.97593 23.0364C9.07958 22.9676 9.18294 22.8984 9.28605 22.8289C9.33708 22.7945 9.3881 22.7601 9.44068 22.7246C9.48663 22.6935 9.53258 22.6623 9.57992 22.6302C9.68751 22.5625 9.68751 22.5625 9.75001 22.5625Z" fill="#F58220"/>
<path d="M27.9336 11.4219C28.6213 11.9599 29.022 12.698 29.1419 13.5591C29.2636 14.6164 29.0732 15.6194 28.75 16.625C28.7088 16.6044 28.6675 16.5837 28.625 16.5625C28.6215 16.4659 28.6215 16.4659 28.6179 16.3674C28.5781 15.4461 28.4666 14.5507 28.125 13.6875C28.0994 13.6207 28.0994 13.6207 28.0733 13.5525C27.869 13.0856 27.4988 12.6366 27.043 12.4023C26.2339 12.0869 25.4073 12.2439 24.625 12.5625C23.9555 12.8676 23.3835 13.2917 22.8125 13.75C22.7506 13.7912 22.6888 13.8325 22.625 13.875C22.5559 13.7774 22.4869 13.6798 22.418 13.582C22.3795 13.5276 22.3411 13.4733 22.3015 13.4172C22.2639 13.362 22.2263 13.3069 22.1875 13.25C22.1505 13.1967 22.1136 13.1435 22.0754 13.0886C22 12.9375 22 12.9375 22.0054 12.8071C22.4162 11.9468 23.8732 11.3738 24.7073 11.0427C25.8029 10.6715 26.9731 10.772 27.9336 11.4219Z" fill="#F58220"/>
<path d="M7.8125 7C9.25625 7 10.7 7 12.1875 7C12.1264 7.36685 12.0285 7.62345 11.8711 7.95312C11.8459 8.00587 11.8208 8.05862 11.7948 8.11296C11.4929 8.72724 11.0804 9.34933 10.4414 9.64844C10.0356 9.73125 9.73611 9.72702 9.375 9.52319C8.56901 8.97065 8.1539 8.00944 7.8125 7.125C7.8125 7.08375 7.8125 7.0425 7.8125 7Z" fill="#F58220"/>
</g>
<defs>
<clipPath id="clip0_63_19">
<rect width="32" height="32" fill="white"/>
</clipPath>
</defs>
</svg>
