<svg width="38" height="38" viewBox="0 0 38 38" fill="none" xmlns="http://www.w3.org/2000/svg">
<g clip-path="url(#clip0_83_303)">
<path d="M38 4.74999V26.98C38 30.495 35.6393 33.6252 32.2588 34.5927L21.6093 37.6342C19.9025 38.1219 18.0975 38.1219 16.3907 37.6342L5.74117 34.5927C2.36075 33.6268 0 30.4966 0 26.98V6.33332C0.0095 4.26232 3.15717 4.2639 3.16667 6.33332V26.98C3.16667 29.0906 4.58375 30.9684 6.612 31.5479L17.2615 34.5895C18.3999 34.9141 19.6017 34.9141 20.7417 34.5895L31.3896 31.5479C33.4178 30.9684 34.8349 29.0906 34.8349 26.98V4.74999C34.8444 2.67899 37.9905 2.68057 38 4.74999ZM6.33333 23.6502V6.33332C6.33333 4.32724 7.25167 2.48424 8.85242 1.27774C10.4532 0.0696522 12.4767 -0.307181 14.4068 0.243819L17.1396 1.0244C17.8458 1.22549 18.4775 1.5849 19.0016 2.05515C19.5257 1.5849 20.1574 1.22549 20.8636 1.0244L23.5948 0.243819C27.4914 -0.988014 31.7822 2.25149 31.6682 6.33332V23.6502C31.6682 26.4622 29.7793 28.9671 27.075 29.7397L21.6109 31.3009C19.9025 31.7886 18.0975 31.7886 16.3923 31.3009L10.9282 29.7397C8.22383 28.9671 6.33333 26.4622 6.33333 23.6502ZM20.5833 28.2989C20.6356 28.2847 26.2026 26.695 26.2026 26.695C27.5548 26.3087 28.5 25.0562 28.5 23.6502V6.33332C28.5 5.33107 28.0408 4.40957 27.2413 3.80474C26.4369 3.19674 25.4188 3.01465 24.4641 3.28699L21.7328 4.06757C21.0567 4.26074 20.5833 4.88615 20.5833 5.58915V28.2989ZM9.5 23.6502C9.5 25.0562 10.4453 26.3087 11.7974 26.695C11.7974 26.695 17.3644 28.2847 17.4167 28.2989V5.59074C17.4167 4.88774 16.9448 4.26232 16.2687 4.06915L13.5359 3.28857C12.5812 3.01465 11.5615 3.19832 10.7587 3.80632C9.95917 4.40957 9.5 5.33107 9.5 6.3349V23.6502Z" fill="#F68D33"/>
</g>
<defs>
<clipPath id="clip0_83_303">
<rect width="38" height="38" fill="white"/>
</clipPath>
</defs>
</svg>
