<?xml version="1.0" standalone="no"?>
<!DOCTYPE svg PUBLIC "-//W3C//DTD SVG 20010904//EN"
 "http://www.w3.org/TR/2001/REC-SVG-20010904/DTD/svg10.dtd">
<svg version="1.0" xmlns="http://www.w3.org/2000/svg"
 width="50.000000pt" height="50.000000pt" viewBox="0 0 50.000000 50.000000"
 preserveAspectRatio="xMidYMid meet">

<g transform="translate(0.000000,50.000000) scale(0.100000,-0.100000)"
fill="#000000" stroke="none">
<path d="M225 481 c-132 -32 -207 -164 -217 -380 l-3 -74 85 2 c59 1 97 -3
123 -14 33 -14 41 -14 73 0 23 10 69 15 126 15 89 0 90 0 84 23 -3 12 -6 36
-6 54 0 26 -3 30 -20 26 -11 -3 -20 -11 -20 -18 0 -22 -36 -45 -73 -45 -25 0
-45 -8 -63 -25 -38 -35 -92 -34 -126 3 -14 15 -36 47 -48 72 -13 25 -30 50
-38 56 -26 19 -10 48 30 55 48 8 112 50 141 94 21 33 37 45 37 26 0 -17 75
-121 87 -121 7 0 13 11 13 25 0 20 5 25 25 25 18 0 25 5 25 20 0 59 -76 150
-125 150 -14 0 -29 8 -35 20 -11 21 -25 23 -75 11z"/>
<path d="M430 205 c0 -60 13 -70 43 -37 22 24 21 55 -1 75 -32 30 -42 21 -42
-38z"/>
<path d="M394 172 c-7 -4 -19 -24 -27 -44 -15 -36 -15 -38 2 -38 34 0 51 22
43 57 -4 21 -11 30 -18 25z"/>
<path d="M243 103 c-18 -7 -16 -40 2 -47 8 -3 25 -1 38 3 12 5 31 13 42 17 18
6 16 8 -10 14 -16 4 -37 10 -45 13 -8 3 -21 3 -27 0z"/>
</g>
</svg>
