<?xml version="1.0" standalone="no"?>
<!DOCTYPE svg PUBLIC "-//W3C//DTD SVG 20010904//EN"
 "http://www.w3.org/TR/2001/REC-SVG-20010904/DTD/svg10.dtd">
<svg version="1.0" xmlns="http://www.w3.org/2000/svg"
 width="512.000000pt" height="512.000000pt" viewBox="0 0 512.000000 512.000000"
 preserveAspectRatio="xMidYMid meet">

<g transform="translate(0.000000,512.000000) scale(0.100000,-0.100000)"
fill="#000000" stroke="none">
<path d="M2347 4938 c-100 -95 -658 -622 -1240 -1171 -631 -597 -1059 -1008
-1063 -1022 -9 -35 4 -63 36 -80 24 -12 86 -15 355 -15 l325 0 0 -1304 0
-1305 26 -20 c26 -21 35 -21 600 -21 399 0 580 3 597 11 14 6 30 22 36 36 8
17 11 257 11 818 l0 795 530 0 530 0 0 -789 c0 -524 4 -798 10 -818 6 -17 22
-35 36 -42 18 -8 191 -11 598 -11 565 0 574 0 600 21 l26 20 0 1305 0 1304
335 0 336 0 24 25 c25 24 31 49 18 80 -4 13 -1857 1770 -2411 2288 -106 98
-95 102 -315 -105z m1427 -1153 l1038 -980 -281 -5 c-252 -4 -282 -7 -298 -23
-17 -17 -18 -86 -21 -1322 l-2 -1305 -480 0 -480 0 0 795 c0 583 -3 801 -12
820 -7 16 -24 29 -47 36 -24 6 -246 9 -654 7 l-619 -3 -19 -24 c-18 -22 -19
-51 -19 -827 l0 -804 -485 0 -485 0 0 1299 0 1298 -21 27 -20 26 -276 0 c-161
0 -273 4 -271 9 1 5 506 484 1122 1065 l1118 1056 87 -82 c48 -46 554 -524
1125 -1063z"/>
</g>
</svg>
