<?xml version="1.0" standalone="no"?>
<!DOCTYPE svg PUBLIC "-//W3C//DTD SVG 20010904//EN"
 "http://www.w3.org/TR/2001/REC-SVG-20010904/DTD/svg10.dtd">
<svg version="1.0" xmlns="http://www.w3.org/2000/svg"
 width="100.000000pt" height="100.000000pt" viewBox="0 0 100.000000 100.000000"
 preserveAspectRatio="xMidYMid meet">

<g transform="translate(0.000000,100.000000) scale(0.100000,-0.100000)"
fill="#000000" stroke="none">
<path d="M591 885 l-73 -35 -165 0 c-133 0 -180 4 -245 21 -44 11 -87 18 -94
15 -11 -4 -14 -50 -14 -235 0 -248 -2 -241 56 -241 19 0 24 -5 24 -25 0 -27
40 -75 62 -75 8 0 19 -14 25 -30 7 -19 22 -34 40 -40 18 -7 33 -22 40 -40 7
-18 21 -32 37 -36 16 -4 28 -15 32 -30 8 -31 41 -54 77 -54 16 0 42 -11 59
-25 16 -14 42 -25 57 -25 34 0 81 34 81 59 0 12 12 20 43 27 33 7 45 16 57 41
8 18 23 33 32 33 34 0 68 24 80 56 6 19 20 35 32 38 38 9 59 32 65 71 6 36 9
40 51 50 28 7 45 17 45 25 0 20 -93 15 -115 -5 -14 -13 -31 1 -137 108 -66 67
-119 127 -116 134 9 25 -20 22 -99 -8 -46 -18 -101 -32 -124 -32 -45 0 -119
32 -119 52 0 7 88 55 195 107 214 105 226 107 295 60 43 -29 61 -31 152 -14
58 11 86 28 70 45 -4 3 -41 0 -84 -7 l-78 -12 -59 31 c-32 17 -70 31 -85 31
-15 0 -59 -16 -100 -35z m-386 -466 c10 -31 -38 -78 -63 -63 -24 16 -27 42 -6
65 23 26 61 25 69 -2z m79 -75 c14 -35 -42 -86 -70 -63 -19 15 -18 38 3 61 20
22 59 24 67 2z m70 -70 c21 -21 20 -27 -8 -53 -47 -44 -89 -2 -45 45 26 28 32
29 53 8z m70 -70 c9 -3 16 -17 16 -30 0 -30 -45 -62 -68 -48 -24 16 -24 28 -2
57 23 28 29 31 54 21z"/>
</g>
</svg>
