<?xml version="1.0" standalone="no"?>
<!DOCTYPE svg PUBLIC "-//W3C//DTD SVG 20010904//EN"
 "http://www.w3.org/TR/2001/REC-SVG-20010904/DTD/svg10.dtd">
<svg version="1.0" xmlns="http://www.w3.org/2000/svg"
 width="512.000000pt" height="512.000000pt" viewBox="0 0 512.000000 512.000000"
 preserveAspectRatio="xMidYMid meet">

<g transform="translate(0.000000,512.000000) scale(0.100000,-0.100000)"
fill="#000000" stroke="none">
<path d="M2505 5106 c-80 -13 -196 -46 -246 -72 -14 -7 -71 -22 -125 -33 -54
-11 -128 -32 -163 -45 -295 -116 -512 -412 -577 -786 -26 -149 -15 -379 24
-532 17 -65 44 -146 60 -180 18 -36 37 -103 47 -157 59 -341 249 -672 502
-871 l31 -25 -13 -61 c-54 -253 -210 -432 -441 -510 -47 -15 -124 -29 -216
-39 -204 -20 -312 -57 -443 -150 -164 -117 -274 -287 -316 -488 -17 -83 -19
-141 -19 -575 0 -427 2 -488 16 -518 33 -69 -119 -64 1934 -64 1670 0 1864 2
1891 16 58 30 59 37 59 561 0 283 -4 505 -11 543 -27 174 -110 330 -238 452
-144 139 -288 199 -529 223 -156 16 -254 43 -342 95 -148 88 -251 224 -300
402 -28 102 -27 118 15 146 55 38 197 192 252 273 67 99 147 259 183 367 30
91 70 257 70 293 0 11 13 48 30 82 37 79 75 211 90 316 17 116 8 342 -18 456
-111 476 -475 823 -925 884 -98 14 -179 13 -282 -3z m385 -256 c354 -120 596
-448 617 -835 l6 -110 -24 18 c-67 49 -118 79 -169 99 -54 22 -68 23 -535 28
-535 6 -509 2 -576 78 -19 21 -42 53 -51 70 -36 67 -130 92 -195 52 -37 -22
-51 -47 -83 -145 -39 -119 -112 -251 -192 -348 -22 -26 -43 -45 -48 -42 -17
10 -32 181 -27 299 18 407 247 710 573 760 49 7 116 26 149 40 119 55 186 66
345 62 116 -3 158 -8 210 -26z m-715 -983 c88 -44 130 -47 589 -47 502 0 497
1 583 -86 l53 -53 0 -73 c0 -235 -86 -539 -203 -721 -180 -281 -410 -419 -671
-404 -167 9 -290 66 -431 199 -184 174 -306 422 -356 727 l-8 54 62 66 c92 98
160 194 219 307 l52 102 31 -23 c16 -13 53 -34 80 -48z m215 -1601 c107 -24
260 -22 366 4 47 12 88 20 90 17 2 -2 11 -31 19 -63 37 -142 143 -316 257
-419 l60 -54 -258 -368 c-344 -491 -348 -496 -360 -500 -6 -2 -149 192 -317
432 l-305 435 70 67 c116 113 229 308 254 440 5 29 10 34 28 30 11 -3 55 -12
96 -21z m-340 -1072 c167 -239 319 -450 336 -468 91 -94 248 -98 340 -8 22 20
176 233 343 472 168 239 306 437 308 439 2 3 34 -5 71 -16 92 -29 158 -41 287
-52 61 -6 133 -17 160 -26 135 -45 258 -152 319 -277 61 -124 66 -163 66 -620
l0 -408 -1720 0 -1720 0 0 388 c0 213 5 419 10 458 26 199 161 371 350 447 51
20 100 30 182 38 128 11 257 34 302 54 17 7 38 14 46 14 9 0 141 -180 320
-435z"/>
</g>
</svg>
