<?xml version="1.0" standalone="no"?>
<!DOCTYPE svg PUBLIC "-//W3C//DTD SVG 20010904//EN"
 "http://www.w3.org/TR/2001/REC-SVG-20010904/DTD/svg10.dtd">
<svg version="1.0" xmlns="http://www.w3.org/2000/svg"
 width="50.000000pt" height="50.000000pt" viewBox="0 0 50.000000 50.000000"
 preserveAspectRatio="xMidYMid meet">

<g transform="translate(0.000000,50.000000) scale(0.100000,-0.100000)"
fill="#000000" stroke="none">
<path d="M40 260 l0 -240 148 0 c95 0 152 -4 159 -11 17 -17 24 -8 88 91 63
101 68 117 42 134 -19 11 -20 10 -62 -49 -12 -18 -14 -10 -14 75 l-1 95 -72
72 -72 73 -108 0 -108 0 0 -240z m275 150 l59 -60 -62 0 -62 0 0 60 c0 33 1
60 3 60 1 0 29 -27 62 -60z m130 -256 c-20 -31 -48 -74 -62 -95 l-26 -40 -46
45 c-54 54 -49 72 6 22 l39 -35 53 85 c29 46 57 81 62 78 5 -3 -7 -30 -26 -60z"/>
</g>
</svg>
