<?xml version="1.0" encoding="UTF-8"?>
<!DOCTYPE svg PUBLIC "-//W3C//DTD SVG 1.1//EN" "http://www.w3.org/Graphics/SVG/1.1/DTD/svg11.dtd">
<svg xmlns="http://www.w3.org/2000/svg" version="1.1" width="473px" height="473px" style="shape-rendering:geometricPrecision; text-rendering:geometricPrecision; image-rendering:optimizeQuality; fill-rule:evenodd; clip-rule:evenodd" xmlns:xlink="http://www.w3.org/1999/xlink">
<g><path style="opacity:0.995" fill="#000000" d="M 215.5,7.5 C 294.397,2.71853 359.897,29.7185 412,88.5C 463.894,154.843 477.561,228.51 453,309.5C 427.5,379 380,426.5 310.5,452C 229.506,476.56 155.839,462.894 89.5,411C 28.0802,356.28 1.58023,287.78 10,205.5C 23.4775,121.996 68.3108,62.1622 144.5,26C 167.347,16.2093 191.014,10.0426 215.5,7.5 Z"/></g>
<g><path style="opacity:1" fill="#fbfbfb" d="M 139.5,277.5 C 132.588,278.462 125.588,278.795 118.5,278.5C 128.693,248.422 139.193,218.422 150,188.5C 153.74,187.206 157.74,186.539 162,186.5C 166.082,186.516 170.082,186.849 174,187.5C 184.61,217.831 195.11,248.164 205.5,278.5C 198.468,278.83 191.468,278.497 184.5,277.5C 182.102,271.973 180.102,266.307 178.5,260.5C 167.186,259.501 155.853,259.168 144.5,259.5C 142.845,265.485 141.178,271.485 139.5,277.5 Z"/></g>
<g><path style="opacity:1" fill="#fbfbfb" d="M 239.5,186.5 C 239.333,197.172 239.5,207.839 240,218.5C 240.717,217.956 241.217,217.289 241.5,216.5C 247.937,209.523 255.937,207.023 265.5,209C 275.469,211.633 282.303,217.8 286,227.5C 291.937,245.822 288.437,261.988 275.5,276C 265.599,281.529 255.599,281.862 245.5,277C 243.667,275.167 241.833,273.333 240,271.5C 239.503,273.81 239.337,276.143 239.5,278.5C 233.5,278.5 227.5,278.5 221.5,278.5C 221.5,247.833 221.5,217.167 221.5,186.5C 227.5,186.5 233.5,186.5 239.5,186.5 Z"/></g>
<g><path style="opacity:1" fill="#696969" d="M 239.5,186.5 C 240.167,196.5 240.833,206.5 241.5,216.5C 241.217,217.289 240.717,217.956 240,218.5C 239.5,207.839 239.333,197.172 239.5,186.5 Z"/></g>
<g><path style="opacity:1" fill="#080808" d="M 161.5,209.5 C 166.076,220.444 169.742,231.777 172.5,243.5C 165.159,243.666 157.826,243.5 150.5,243C 154.269,231.858 157.936,220.692 161.5,209.5 Z"/></g>
<g><path style="opacity:1" fill="#f8f8f8" d="M 365.5,231.5 C 365.5,232.5 365.5,233.5 365.5,234.5C 359.5,234.5 353.5,234.5 347.5,234.5C 345.472,225.98 340.139,222.813 331.5,225C 326.948,226.588 324.115,229.755 323,234.5C 322.333,241.5 322.333,248.5 323,255.5C 327.251,265.976 334.251,268.31 344,262.5C 345.548,259.794 346.714,256.96 347.5,254C 353.491,253.501 359.491,253.334 365.5,253.5C 364.303,266.522 357.637,275.355 345.5,280C 318.303,284.643 303.97,273.143 302.5,245.5C 303.022,219.14 316.355,206.973 342.5,209C 356.005,210.673 363.672,218.173 365.5,231.5 Z"/></g>
<g><path style="opacity:1" fill="#020202" d="M 249.5,224.5 C 258.736,223.195 264.903,226.862 268,235.5C 268.667,241.5 268.667,247.5 268,253.5C 264.402,264.715 257.235,267.882 246.5,263C 239.908,256.114 237.741,247.948 240,238.5C 240.965,232.206 244.132,227.539 249.5,224.5 Z"/></g>
<g><path style="opacity:1" fill="#9c9c9c" d="M 365.5,231.5 C 366.434,232.568 366.768,233.901 366.5,235.5C 359.978,235.823 353.645,235.49 347.5,234.5C 353.5,234.5 359.5,234.5 365.5,234.5C 365.5,233.5 365.5,232.5 365.5,231.5 Z"/></g>
<g><path style="opacity:1" fill="#636363" d="M 139.5,277.5 C 136.402,278.821 132.902,279.488 129,279.5C 125.317,279.499 121.817,279.165 118.5,278.5C 125.588,278.795 132.588,278.462 139.5,277.5 Z"/></g>
</svg>
