<svg width="38" height="38" viewBox="0 0 38 38" fill="none" xmlns="http://www.w3.org/2000/svg">
<g clip-path="url(#clip0_75_216)">
<path d="M31.863 37.9873C31.7965 37.9953 31.73 38 31.6651 38C30.8782 38 30.1958 37.4142 30.096 36.613C29.3708 30.8133 24.9122 26.9167 19 26.9167C13.0878 26.9167 8.62918 30.8133 7.90401 36.613C7.79476 37.4807 6.99676 38.0982 6.13701 37.9873C5.26934 37.8797 4.65343 37.088 4.76268 36.2203C5.68101 28.8784 11.5346 23.75 19 23.75C26.4654 23.75 32.3206 28.8784 33.2373 36.2203C33.345 37.088 32.7307 37.8797 31.863 37.9873ZM7.12501 11.0833C7.12501 10.2093 7.83434 9.5 8.70834 9.5H9.50001V8.70833C9.50001 3.90608 13.4061 0 18.2083 0H19.7917C24.5939 0 28.5 3.90608 28.5 8.70833V9.5H29.2917C30.1657 9.5 30.875 10.2093 30.875 11.0833C30.875 11.9573 30.1657 12.6667 29.2917 12.6667H28.5C28.5 17.9059 24.2393 22.1667 19 22.1667C13.7608 22.1667 9.50001 17.9059 9.50001 12.6667H8.70834C7.83434 12.6667 7.12501 11.9573 7.12501 11.0833ZM25.3333 12.6667H12.6667C12.6667 16.1595 15.5072 19 19 19C22.4928 19 25.3333 16.1595 25.3333 12.6667ZM12.6667 9.5H25.3333V8.70833C25.3333 5.92167 23.2655 3.60842 20.5833 3.22367V6.33333C20.5833 7.20733 19.874 7.91667 19 7.91667C18.126 7.91667 17.4167 7.20733 17.4167 6.33333V3.22367C14.7345 3.60842 12.6667 5.92167 12.6667 8.70833V9.5Z" fill="#F58424"/>
</g>
<defs>
<clipPath id="clip0_75_216">
<rect width="38" height="38" fill="white"/>
</clipPath>
</defs>
</svg>
