<svg width="38" height="38" viewBox="0 0 38 38" fill="none" xmlns="http://www.w3.org/2000/svg">
<g clip-path="url(#clip0_79_226)">
<path d="M14.25 0C13.1907 0 12.2011 0.525619 11.6042 1.40595C11.0247 2.25937 10.9044 3.33452 11.2796 4.28135C12.0016 6.09427 13.4251 7.5873 14.8074 8.69722C7.43536 11.4332 1.58337 20.8351 1.58337 28.5C1.58337 33.7393 5.84413 38 11.0834 38H26.9166C32.1559 38 36.4166 33.7393 36.4166 28.5C36.4166 20.8351 30.5646 11.4332 23.1926 8.69722C24.5749 7.5873 25.9983 6.09585 26.7203 4.28135C27.0972 3.33452 26.9753 2.25937 26.3958 1.40595C25.7989 0.525619 24.8092 0 23.75 0H14.25ZM23.777 3.11124C22.96 5.16483 20.4614 6.90017 18.9968 7.71875C17.5354 6.9065 15.0464 5.18537 14.2484 3.16662L23.777 3.11124ZM19 11.0834C25.7925 11.0834 33.25 20.1986 33.25 28.5C33.25 31.9928 30.4094 34.8334 26.9166 34.8334H26.915H19.0581C19.0383 34.8341 19.0184 34.835 18.9984 34.835V34.8334H11.0834C7.59054 34.8334 4.74999 31.9928 4.74999 28.5C4.74999 20.1986 12.2075 11.0834 19 11.0834ZM18.9984 34.8334H19.0581C19.1792 34.8289 19.2965 34.81 19.4091 34.7796H19.2918C19.0066 34.7831 18.7824 34.7943 18.5641 34.7722C18.7021 34.8117 18.8477 34.8334 18.9984 34.8334ZM14.5103 18.1962C14.5 18.1963 14.4898 18.1964 14.4795 18.1965C14.4894 18.1982 14.4994 18.2 14.5093 18.2019C14.5096 18.2 14.51 18.1981 14.5103 18.1962Z" fill="#F58220"/>
<g clip-path="url(#clip1_79_226)">
<path d="M25.125 21.0625C25.125 21.5813 24.7063 22 24.1875 22H23.2375C23.075 24.4375 21.0375 26.375 18.5625 26.375H17.4375L22.2813 30.3375C22.6813 30.6625 22.7438 31.2563 22.4125 31.6563C22.225 31.8813 21.9563 32 21.6875 32C21.4813 32 21.2688 31.9313 21.0938 31.7875L14.2188 26.1625C13.9125 25.9125 13.7938 25.4938 13.9313 25.1188C14.0625 24.7438 14.4188 24.4938 14.8125 24.4938H18.5625C20.0063 24.4938 21.2 23.4 21.3563 21.9938H14.8125C14.2938 21.9938 13.875 21.575 13.875 21.0563C13.875 20.5375 14.2938 20.1188 14.8125 20.1188H20.9C20.3938 19.3625 19.5375 18.8688 18.5625 18.8688H14.8125C14.2938 18.8688 13.875 18.45 13.875 17.9313C13.875 17.4125 14.2938 16.9938 14.8125 16.9938H24.1875C24.7063 16.9938 25.125 17.4125 25.125 17.9313C25.125 18.45 24.7063 18.8688 24.1875 18.8688H22.3125C22.5938 19.2438 22.825 19.6688 22.9875 20.1188H24.1938C24.7125 20.1188 25.1313 20.5375 25.1313 21.0563L25.125 21.0625Z" fill="#F58424"/>
</g>
</g>
<defs>
<clipPath id="clip0_79_226">
<rect width="38" height="38" fill="white"/>
</clipPath>
<clipPath id="clip1_79_226">
<rect width="15" height="15" fill="white" transform="translate(12 17)"/>
</clipPath>
</defs>
</svg>
