<svg width="43" height="43" viewBox="0 0 43 43" fill="none" xmlns="http://www.w3.org/2000/svg">
<path opacity="0.978" fill-rule="evenodd" clip-rule="evenodd" d="M17.6787 4.24121C19.6796 4.54925 21.2614 5.52907 22.4238 7.18066C23.0072 8.28233 23.3011 9.45807 23.3057 10.708C28.769 8.49384 32.7023 10.0895 35.1055 15.4951C35.3625 16.0981 35.5864 16.7141 35.7773 17.3428C35.8847 18.1592 35.5347 18.4812 34.7275 18.3086C32.5363 16.2193 29.9328 14.9595 26.917 14.5293C26.5811 14.4733 26.2451 14.4733 25.9092 14.5293C31.47 17.4103 32.8837 21.6795 30.1504 27.3369C29.7309 27.8633 29.283 27.8914 28.8066 27.4209C27.7011 24.2001 26.0773 21.2887 23.9355 18.6865C24.7318 21.8552 24.9838 25.0746 24.6914 28.3447C24.3968 31.6519 23.8929 34.9273 23.1797 38.1709C23.0855 38.3493 22.9595 38.5032 22.8018 38.6328C21.1781 38.6888 19.5543 38.6888 17.9307 38.6328C17.5469 38.4194 17.421 38.0974 17.5527 37.667C18.0471 36.296 18.4389 34.8963 18.7285 33.4678C19.2757 30.7879 19.7796 28.1004 20.2402 25.4053C20.5542 22.6265 20.2742 19.911 19.4004 17.2588C18.1982 18.0419 17.3303 19.1057 16.7969 20.4502C15.9407 23.0681 15.4647 25.7556 15.3691 28.5127C15.1334 29.0915 14.7275 29.2455 14.1514 28.9746C12.4012 25.7384 11.8553 22.309 12.5137 18.6865C12.627 18.317 12.7529 17.9531 12.8916 17.5947C12.7265 17.5215 12.5585 17.5355 12.3877 17.6367C10.844 18.3519 9.44421 19.2758 8.18848 20.4082C7.38128 20.5808 7.03135 20.2588 7.13867 19.4424C8.15715 16.9122 9.87883 15.0225 12.3037 13.7734C12.9527 13.4825 13.6245 13.2585 14.3193 13.1016C12.3575 12.8379 10.4258 12.9779 8.52442 13.5215C7.676 13.7356 7.29807 13.4136 7.39063 12.5557C8.93905 10.5706 10.9406 9.2969 13.3955 8.73438C15.389 8.45563 17.2506 8.83356 18.9805 9.86816C18.9617 9.14825 18.8217 8.44832 18.5605 7.76855C18.1302 6.81001 17.6683 5.87219 17.1748 4.95508C17.2325 4.63261 17.4005 4.39466 17.6787 4.24121Z" fill="#F68A2E"/>
</svg>
