<svg width="360" height="800" viewBox="0 0 360 800" fill="none" xmlns="http://www.w3.org/2000/svg">
<g clip-path="url(#clip0_1_2)">
<g filter="url(#filter0_d_1_2)">
<path d="M360 393C360 492.411 279.411 573 180 573C80.5887 573 0 492.411 0 393C0 293.589 80.5887 213 180 213C279.411 213 360 293.589 360 393Z" fill="#FFE4C4" fill-opacity="0.8"/>
</g>
<path d="M148.5 308.222V256H92M202.5 308V217.5H128.5V81H202.5M252 328V191.5M128.5 450.5V511.5H73V564.5M181.5 471.5V651H128.5V703.5M252 444.5V520H319V620.5H265" stroke="#D98932" stroke-linecap="round" stroke-dasharray="2 5"/>
<g filter="url(#filter1_d_1_2)">
<circle cx="181.5" cy="389.5" r="87.5" fill="#FFD8AC"/>
</g>
<circle cx="220.5" cy="80.5" r="18.5" stroke="#F39946" stroke-linecap="round" stroke-dasharray="2 5"/>
<g clip-path="url(#clip1_1_2)">
<path opacity="0.822" fill-rule="evenodd" clip-rule="evenodd" d="M214.586 68.9141C216.362 68.9141 218.138 68.9141 219.914 68.9141C220.498 70.0412 220.899 71.2443 221.117 72.5234C221.099 72.6853 221.041 72.8286 220.945 72.9531C218.946 73.171 216.941 73.257 214.93 73.2109C214.438 73.0965 213.923 72.9819 213.383 72.8672C213.347 72.7665 213.29 72.6805 213.211 72.6094C213.508 71.6802 213.766 70.7349 213.984 69.7734C214.104 69.4152 214.305 69.1287 214.586 68.9141ZM215.273 69.6016C216.601 69.5499 217.919 69.6072 219.227 69.7734C219.327 69.8094 219.413 69.8667 219.484 69.9453C219.685 70.6338 219.886 71.3213 220.086 72.0078C219.875 72.1421 219.646 72.228 219.398 72.2656C217.669 72.4195 215.951 72.3622 214.242 72.0938C214.482 71.3939 214.682 70.6778 214.844 69.9453C215.015 69.848 215.158 69.7335 215.273 69.6016Z" fill="#D98932"/>
<path opacity="0.798" fill-rule="evenodd" clip-rule="evenodd" d="M214.93 73.2109C217.443 73.4826 219.964 73.368 222.492 72.8672C222.227 72.7036 221.94 72.6463 221.633 72.6953C221.633 72.4088 221.633 72.1224 221.633 71.8359C222.523 71.8536 223.383 72.0255 224.211 72.3516C224.405 72.6222 224.434 72.9086 224.297 73.2109C223.132 73.7585 221.9 74.0449 220.602 74.0703C220.616 74.9892 220.903 75.82 221.461 76.5625C221.313 76.8541 221.083 77.0546 220.773 77.1641C220.892 78.2186 220.434 78.7629 219.398 78.7969C221.655 79.0487 222.944 80.2805 223.266 82.4922C223.653 81.5699 224.341 81.2262 225.328 81.4609C226.674 81.5505 228.021 81.6364 229.367 81.7188C229.697 82.023 229.783 82.3954 229.625 82.8359C228.401 85.0271 227.112 87.1756 225.758 89.2812C225.104 89.4667 224.531 89.3521 224.039 88.9375C224.406 88.6111 224.835 88.4107 225.328 88.3359C226.445 86.4453 227.562 84.5547 228.68 82.6641C227.258 82.3824 225.826 82.2965 224.383 82.4062C223.717 83.5949 223.029 84.7693 222.32 85.9297C222.824 85.8331 223.311 85.9476 223.781 86.2734C223.953 87.0715 224.01 87.8736 223.953 88.6797C223.133 89.4765 222.188 90.0781 221.117 90.4844C219.083 90.5999 217.078 90.743 215.102 90.9141C213.669 90.9141 212.237 90.9141 210.805 90.9141C210.64 90.6628 210.44 90.4337 210.203 90.2266C210.089 87.3619 210.089 84.4974 210.203 81.6328C210.49 80.9724 210.919 80.4282 211.492 80C212.728 79.4688 213.874 78.81 214.93 78.0234C214.533 77.4262 214.103 76.8533 213.641 76.3047C213.491 75.5614 213.348 74.8166 213.211 74.0703C212.156 73.9571 211.153 73.6706 210.203 73.2109C210.055 72.8244 210.141 72.5093 210.461 72.2656C211.188 71.9939 211.933 71.8793 212.695 71.9219C212.924 72.151 212.924 72.3802 212.695 72.6094C212.448 72.647 212.219 72.7329 212.008 72.8672C212.964 73.1289 213.938 73.2435 214.93 73.2109ZM214.242 74.0703C214.629 74.0156 214.973 74.1015 215.273 74.3281C214.99 75.0054 214.847 75.7215 214.844 76.4766C214.545 76.2676 214.373 75.9811 214.328 75.6172C214.243 75.1047 214.214 74.5891 214.242 74.0703ZM219.398 74.0703C219.648 74.7889 219.934 75.5337 220.258 76.3047C219.789 76.6968 219.617 77.2124 219.742 77.8516C219.177 77.7779 218.633 77.7779 218.109 77.8516C218.052 78.5391 217.995 79.2266 217.938 79.9141C217.458 80.3147 216.971 80.2861 216.477 79.8281C216.212 79.5567 216.011 79.2416 215.875 78.8828C215.76 77.5651 215.76 76.2474 215.875 74.9297C216.514 74.4183 216.915 74.5902 217.078 75.4453C217.365 75.6745 217.651 75.6745 217.938 75.4453C218.033 75.0818 218.177 74.7381 218.367 74.4141C218.733 74.2991 219.077 74.1845 219.398 74.0703ZM214.758 79.2266C215.168 79.7235 215.626 80.2104 216.133 80.6875C217.487 81.4961 218.433 81.181 218.969 79.7422C219.613 81.1578 219.929 82.6473 219.914 84.2109C218.31 84.2109 216.706 84.2109 215.102 84.2109C215.133 82.6565 214.847 81.1669 214.242 79.7422C214.387 79.5299 214.558 79.358 214.758 79.2266ZM220.086 79.9141C222.071 80.6748 222.787 82.1071 222.234 84.2109C222.12 84.4401 222.005 84.6693 221.891 84.8984C221.775 84.2918 221.403 84.0626 220.773 84.2109C220.744 82.7423 220.515 81.31 220.086 79.9141ZM213.211 80.0859C213.613 80.5096 213.87 81.0252 213.984 81.6328C214.141 82.4859 214.227 83.3453 214.242 84.2109C213.898 84.2109 213.555 84.2109 213.211 84.2109C213.211 84.8984 213.211 85.5859 213.211 86.2734C212.466 86.2734 211.721 86.2734 210.977 86.2734C210.905 84.6553 210.991 83.0511 211.234 81.4609C211.83 80.8928 212.489 80.4345 213.211 80.0859ZM214.07 85.0703C214.226 85.1922 214.283 85.364 214.242 85.5859C214.614 85.652 214.901 85.5374 215.102 85.2422C216.702 85.0706 218.306 85.0133 219.914 85.0703C219.914 85.2422 219.914 85.4141 219.914 85.5859C220.385 85.6779 220.7 85.5061 220.859 85.0703C220.945 85.4094 220.973 85.7531 220.945 86.1016C219.767 86.1201 218.851 86.607 218.195 87.5625C216.821 87.6484 215.446 87.677 214.07 87.6484C214.07 86.7891 214.07 85.9297 214.07 85.0703ZM222.664 86.9609C222.851 86.9816 222.965 87.0962 223.008 87.3047C223.151 87.6438 223.179 87.9875 223.094 88.3359C222.392 88.7873 221.676 89.217 220.945 89.625C217.644 89.938 214.349 90.0239 211.063 89.8828C210.977 88.9679 210.948 88.0513 210.977 87.1328C211.721 87.1328 212.466 87.1328 213.211 87.1328C213.211 87.5912 213.211 88.0494 213.211 88.5078C215.045 88.5365 216.878 88.5078 218.711 88.4219C219.038 87.8081 219.525 87.3784 220.172 87.1328C220.519 87.2242 220.662 87.4534 220.602 87.8203C221.375 87.7194 222.063 87.4329 222.664 86.9609Z" fill="#D98932"/>
<path opacity="0.747" fill-rule="evenodd" clip-rule="evenodd" d="M226.102 77.3359C227.167 77.2527 228.198 77.3959 229.195 77.7656C229.799 78.1311 229.828 78.5035 229.281 78.8828C227.883 77.9713 226.48 77.9713 225.07 78.8828C224.714 78.6617 224.657 78.3753 224.898 78.0234C225.288 77.7437 225.689 77.5145 226.102 77.3359Z" fill="#D98932"/>
<path opacity="0.704" fill-rule="evenodd" clip-rule="evenodd" d="M226.617 78.3672C227.339 78.3472 228.027 78.4905 228.68 78.7969C229.161 79.1787 229.133 79.4938 228.594 79.7422C228.149 79.5365 227.69 79.3647 227.219 79.2266C226.68 79.4565 226.136 79.5998 225.586 79.6562C225.372 79.3995 225.372 79.1417 225.586 78.8828C225.948 78.7076 226.291 78.5357 226.617 78.3672Z" fill="#D98932"/>
<path opacity="0.713" fill-rule="evenodd" clip-rule="evenodd" d="M226.617 79.5703C227.158 79.5207 227.674 79.6067 228.164 79.8281C228.339 80.0085 228.368 80.209 228.25 80.4297C227.601 80.4175 226.943 80.4461 226.273 80.5156C226.029 80.0733 226.144 79.7582 226.617 79.5703Z" fill="#D98932"/>
</g>
<circle cx="251.5" cy="172.5" r="18.5" stroke="#F69845" stroke-linecap="round" stroke-dasharray="2 5"/>
<circle cx="72.5" cy="255.5" r="18.5" stroke="#F58220" stroke-linecap="round" stroke-dasharray="2 5"/>
<circle cx="73.5" cy="583.5" r="18.5" stroke="#F69845" stroke-linecap="round" stroke-dasharray="2 5"/>
<circle cx="128.5" cy="722.5" r="18.5" stroke="#F5953F" stroke-linecap="round" stroke-dasharray="2 5"/>
<circle cx="245.5" cy="620.5" r="18.5" stroke="#F5953F" stroke-linecap="round" stroke-dasharray="2 5"/>
<path opacity="0.969" fill-rule="evenodd" clip-rule="evenodd" d="M251.055 163.117C257.464 163.282 261.017 166.548 261.711 172.914C261.138 178.872 257.872 182.138 251.914 182.711C245.956 182.138 242.69 178.872 242.117 172.914C242.597 167.336 245.577 164.07 251.055 163.117Z" fill="#D9862D"/>
<path fill-rule="evenodd" clip-rule="evenodd" d="M251.914 180.992C252.068 179.482 252.641 178.165 253.633 177.039C256.705 177.49 258.052 176.172 257.672 173.086C255.742 171.984 254.252 172.442 253.203 174.461C253.111 175.21 253.14 175.955 253.289 176.695C252.762 177.311 252.332 177.999 252 178.758C251.715 177.104 251.514 175.442 251.398 173.773C253.381 173.787 254.469 172.813 254.664 170.852C254.672 169.28 253.927 168.679 252.43 169.047C251.9 169.261 251.442 169.576 251.055 169.992C249.992 168.535 248.559 167.991 246.758 168.359C245.375 170.846 245.948 172.737 248.477 174.031C249.162 174.117 249.849 174.146 250.539 174.117C251.329 176.339 251.673 178.63 251.57 180.992C248.25 180.779 245.872 179.175 244.437 176.18C242.861 171.229 244.379 167.591 248.992 165.266C254.361 163.953 257.999 165.873 259.906 171.023C260.524 176.071 258.433 179.365 253.633 180.906C253.063 180.992 252.49 181.021 251.914 180.992Z" fill="white"/>
<path fill-rule="evenodd" clip-rule="evenodd" d="M251.398 173.773C251.345 173.561 251.259 173.561 251.141 173.773C251.083 174.003 251.026 174.232 250.969 174.461C250.926 174.268 250.84 174.096 250.711 173.945C250.607 173.967 250.549 174.024 250.539 174.117C249.849 174.146 249.162 174.117 248.477 174.031C245.948 172.737 245.375 170.846 246.758 168.359C248.559 167.991 249.992 168.535 251.055 169.992C251.442 169.576 251.9 169.261 252.43 169.047C253.927 168.679 254.672 169.28 254.664 170.852C254.469 172.813 253.381 173.787 251.398 173.773Z" fill="#D98932"/>
<path fill-rule="evenodd" clip-rule="evenodd" d="M253.633 177.039C253.576 176.867 253.461 176.753 253.289 176.695C253.14 175.955 253.111 175.21 253.203 174.461C254.252 172.442 255.742 171.984 257.672 173.086C258.052 176.172 256.705 177.49 253.633 177.039Z" fill="#DAA357"/>
<path fill-rule="evenodd" clip-rule="evenodd" d="M251.398 173.773C251.514 175.442 251.715 177.104 252 178.758C252.332 177.999 252.762 177.311 253.289 176.695C253.461 176.753 253.576 176.867 253.633 177.039C252.641 178.165 252.068 179.482 251.914 180.992C251.799 180.992 251.685 180.992 251.57 180.992C251.673 178.63 251.329 176.339 250.539 174.117C250.549 174.024 250.607 173.967 250.711 173.945C250.84 174.096 250.926 174.268 250.969 174.461C251.026 174.232 251.083 174.003 251.141 173.773C251.259 173.561 251.345 173.561 251.398 173.773Z" fill="#D98932"/>
<g clip-path="url(#clip2_1_2)">
<path opacity="0.794" fill-rule="evenodd" clip-rule="evenodd" d="M81.9258 255.277C81.9258 255.525 81.9258 255.772 81.9258 256.02C81.0151 257.94 80.0997 259.87 79.1797 261.809C78.6425 262.345 78.024 262.766 77.3242 263.07C75.7414 263.755 74.1086 264.274 72.4258 264.629C71.9842 264.534 71.5389 264.46 71.0898 264.406C69.332 263.655 67.5507 262.963 65.7461 262.328C64.7976 262.163 63.8575 261.99 62.9258 261.809C62.9258 260.621 62.9258 259.434 62.9258 258.246C64.3137 256.638 66.0455 256.118 68.1211 256.688C69.245 257.101 70.3335 257.596 71.3867 258.172C71.7192 258.317 72.0656 258.391 72.4258 258.395C72.7469 255.94 72.45 253.565 71.5352 251.27C69.355 251.58 67.9943 250.689 67.4531 248.598C67.413 248.023 67.3388 247.454 67.2305 246.891C67.2654 246.761 67.3149 246.637 67.3789 246.52C69.1634 246.099 70.722 246.495 72.0547 247.707C72.5063 248.626 72.531 249.566 72.1289 250.527C72.5846 251.523 72.9062 252.562 73.0938 253.645C73.0188 251.988 73.7858 250.974 75.3945 250.602C76.1247 250.483 76.8421 250.507 77.5469 250.676C77.6344 251.795 77.4859 252.884 77.1016 253.941C76.3913 255.121 75.4017 255.468 74.1328 254.98C73.6336 256.017 73.312 257.105 73.168 258.246C74.0545 258.369 74.9451 258.444 75.8398 258.469C76.2159 258.545 76.5375 258.719 76.8047 258.988C77.818 257.777 78.8818 256.614 79.9961 255.5C80.6225 255.164 81.2657 255.09 81.9258 255.277ZM68.1211 247.113C69.2849 247.076 70.3487 247.373 71.3125 248.004C71.7069 248.533 71.7564 249.077 71.4609 249.637C70.9115 248.881 70.1941 248.461 69.3086 248.375C69.2311 248.458 69.1817 248.557 69.1602 248.672C69.789 249.151 70.3827 249.695 70.9414 250.305C69.4769 250.525 68.5615 249.907 68.1953 248.449C68.1214 248.007 68.0967 247.561 68.1211 247.113ZM75.6914 251.27C76.0872 251.27 76.4831 251.27 76.8789 251.27C76.9042 252.457 76.5083 253.471 75.6914 254.313C75.2866 254.434 74.8908 254.409 74.5039 254.238C74.8738 253.646 75.3438 253.151 75.9141 252.754C76.0048 252.221 75.7822 252.048 75.2461 252.234C74.776 252.605 74.3555 253.026 73.9844 253.496C73.9597 252.308 74.5287 251.565 75.6914 251.27ZM80.5898 256.02C80.7199 256 80.8189 256.05 80.8867 256.168C80.158 257.873 79.3911 259.555 78.5859 261.215C78.2586 261.592 77.8875 261.914 77.4727 262.18C76.2526 262.542 75.0651 262.988 73.9102 263.516C73.0794 263.732 72.2383 263.781 71.3867 263.664C69.6288 262.913 67.8476 262.22 66.043 261.586C65.2542 261.433 64.4625 261.309 63.668 261.215C63.6433 260.323 63.668 259.432 63.7422 258.543C65.2009 257.105 66.8584 256.833 68.7148 257.727C69.637 258.212 70.5771 258.658 71.5352 259.063C72.8711 259.112 74.207 259.161 75.543 259.211C76.3938 259.497 76.4927 259.942 75.8398 260.547C73.8538 260.561 71.8746 260.66 69.9023 260.844C69.5782 261.13 69.6277 261.402 70.0508 261.66C70.3393 261.558 70.6362 261.484 70.9414 261.438C72.6732 261.388 74.4049 261.339 76.1367 261.289C76.7335 261.012 77.0551 260.542 77.1016 259.879C78.1938 258.515 79.3565 257.229 80.5898 256.02Z" fill="#F48322" stroke="#DA8932" stroke-width="0.2"/>
</g>
<g clip-path="url(#clip3_1_2)">
<path opacity="0.802" fill-rule="evenodd" clip-rule="evenodd" d="M69.1328 574.93C70.8203 574.93 72.5078 574.93 74.1953 574.93C74.5197 575.137 74.7775 575.419 74.9687 575.773C75.2709 576.701 75.5288 577.639 75.7422 578.586C76.366 578.545 76.9754 578.615 77.5703 578.797C77.6791 579.634 77.3041 580.197 76.4453 580.484C76.8765 581.589 76.5483 582.409 75.4609 582.945C75.0562 583.864 74.5406 584.707 73.9141 585.477C73.9587 585.638 74.0525 585.755 74.1953 585.828C75.67 586.116 77.0059 586.702 78.2031 587.586C78.3439 587.057 78.6954 586.823 79.2578 586.883C79.2578 586.32 79.2578 585.758 79.2578 585.195C78.447 585.278 77.8141 584.997 77.3594 584.352C77.2891 583.134 77.2657 581.915 77.2891 580.695C77.4766 580.695 77.6641 580.695 77.8516 580.695C77.8282 581.774 77.8516 582.853 77.9219 583.93C78.2242 584.417 78.6694 584.604 79.2578 584.492C79.2578 583.227 79.2578 581.961 79.2578 580.695C79.489 580.665 79.6999 580.712 79.8906 580.836C79.9609 582.054 79.9843 583.273 79.9609 584.492C80.4489 584.58 80.8474 584.439 81.1562 584.07C81.2031 582.992 81.25 581.914 81.2969 580.836C81.4876 580.712 81.6985 580.665 81.9297 580.695C81.9297 581.867 81.9297 583.039 81.9297 584.211C81.5129 584.953 80.8566 585.282 79.9609 585.195C79.9609 585.758 79.9609 586.32 79.9609 586.883C80.3035 586.857 80.6082 586.951 80.875 587.164C80.9895 589.097 80.966 591.018 80.8047 592.93C75.2266 592.93 69.6484 592.93 64.0703 592.93C64.0703 592.836 64.0234 592.789 63.9297 592.789C63.9297 592.227 63.9297 591.664 63.9297 591.102C63.7499 589.408 64.3592 588.072 65.7578 587.094C66.8685 586.505 68.0404 586.083 69.2734 585.828C69.4163 585.755 69.51 585.638 69.5547 585.477C69.1878 584.944 68.7893 584.429 68.3594 583.93C68.18 583.618 68.0394 583.29 67.9375 582.945C66.8906 582.446 66.539 581.649 66.8828 580.555C66.2891 580.266 65.8672 579.821 65.6172 579.219C65.7109 579.078 65.8047 578.938 65.8984 578.797C66.4564 578.664 67.0189 578.547 67.5859 578.445C67.8577 577.607 68.1155 576.763 68.3594 575.914C68.5522 575.525 68.81 575.197 69.1328 574.93ZM69.6953 575.492C71.1631 575.429 72.6162 575.499 74.0547 575.703C74.3573 576.044 74.5448 576.442 74.6172 576.898C73.7786 577.038 72.9349 577.085 72.0859 577.039C72.0559 577.27 72.1028 577.481 72.2266 577.672C73.116 577.742 74.0066 577.766 74.8984 577.742C74.9453 578.023 74.9922 578.305 75.0391 578.586C72.7871 578.633 70.5371 578.586 68.2891 578.445C68.3697 578.226 68.4635 578.015 68.5703 577.812C69.5425 577.786 70.5035 577.716 71.4531 577.602C71.5493 577.421 71.5258 577.257 71.3828 577.109C70.4922 577.063 69.6016 577.016 68.7109 576.969C68.8137 576.316 69.1419 575.823 69.6953 575.492ZM66.4609 579.43C69.9058 579.266 73.3745 579.243 76.8672 579.359C76.47 579.727 76.0012 579.961 75.4609 580.062C73.1722 580.468 70.8754 580.515 68.5703 580.203C67.8028 580.096 67.0997 579.838 66.4609 579.43ZM67.5859 580.695C67.7638 580.838 67.8575 581.049 67.8672 581.328C67.8126 582.106 67.672 582.082 67.4453 581.258C67.4626 581.057 67.5095 580.87 67.5859 580.695ZM75.6016 580.695C76.1549 581.081 76.1549 581.503 75.6016 581.961C75.427 581.534 75.427 581.112 75.6016 580.695ZM74.7578 580.836C75.0932 583.27 74.062 584.817 71.6641 585.477C69.3762 584.838 68.3449 583.338 68.5703 580.977C69.6002 581.038 70.6315 581.085 71.6641 581.117C72.7261 581.132 73.7573 581.038 74.7578 580.836ZM70.1172 585.617C71.0759 586.113 72.0602 586.16 73.0703 585.758C73.1249 586.666 72.6796 587.182 71.7344 587.305C70.6943 587.226 70.1552 586.663 70.1172 585.617ZM69.2734 586.461C69.6093 586.562 69.8202 586.796 69.9062 587.164C71.4965 588.45 72.8325 588.216 73.9141 586.461C74.0879 586.566 74.2754 586.613 74.4766 586.602C74.4766 587.492 74.4766 588.383 74.4766 589.273C73.6783 589.25 72.8814 589.274 72.0859 589.344C71.8855 589.585 71.9323 589.772 72.2266 589.906C73.4913 589.977 74.7569 590 76.0234 589.977C76.0234 590.773 76.0234 591.57 76.0234 592.367C73.1172 592.367 70.2109 592.367 67.3047 592.367C67.3047 591.57 67.3047 590.773 67.3047 589.977C68.5712 590 69.8368 589.977 71.1016 589.906C71.2253 589.716 71.2722 589.505 71.2422 589.273C70.4922 589.273 69.7422 589.273 68.9922 589.273C68.9126 588.296 69.0063 587.358 69.2734 586.461ZM75.0391 586.742C75.2089 586.845 75.3964 586.892 75.6016 586.883C75.6016 587.68 75.6016 588.477 75.6016 589.273C75.4141 589.273 75.2266 589.273 75.0391 589.273C75.0391 588.43 75.0391 587.586 75.0391 586.742ZM67.8672 586.883C68.0078 586.883 68.1484 586.883 68.2891 586.883C68.2891 587.68 68.2891 588.477 68.2891 589.273C68.1016 589.273 67.9141 589.273 67.7266 589.273C67.6864 588.464 67.7333 587.667 67.8672 586.883ZM66.7422 587.305C66.9262 587.596 67.0199 587.947 67.0234 588.359C67 588.711 66.9766 589.062 66.9531 589.414C66.8594 589.508 66.7656 589.602 66.6719 589.695C66.6016 590.585 66.5782 591.475 66.6016 592.367C65.9453 592.367 65.2891 592.367 64.6328 592.367C64.6034 591.178 64.7206 590.007 64.9844 588.852C65.4767 588.22 66.0627 587.705 66.7422 587.305ZM76.3047 587.305C77.0383 587.567 77.6711 587.989 78.2031 588.57C78.2734 589.835 78.2968 591.101 78.2734 592.367C77.7578 592.367 77.2422 592.367 76.7266 592.367C76.7499 591.429 76.7265 590.491 76.6562 589.555C76.598 589.49 76.5277 589.443 76.4453 589.414C76.3055 588.717 76.2586 588.014 76.3047 587.305ZM78.8359 587.586C79.3046 587.586 79.7735 587.586 80.2422 587.586C80.2422 588.195 80.2422 588.805 80.2422 589.414C79.7735 589.414 79.3046 589.414 78.8359 589.414C78.8359 588.805 78.8359 588.195 78.8359 587.586ZM78.8359 589.977C79.3046 589.977 79.7735 589.977 80.2422 589.977C80.2422 590.258 80.2422 590.539 80.2422 590.82C79.7735 590.82 79.3046 590.82 78.8359 590.82C78.8359 590.539 78.8359 590.258 78.8359 589.977ZM78.8359 591.383C79.3046 591.383 79.7735 591.383 80.2422 591.383C80.2422 591.711 80.2422 592.039 80.2422 592.367C79.7735 592.367 79.3046 592.367 78.8359 592.367C78.8359 592.039 78.8359 591.711 78.8359 591.383Z" fill="#D98932"/>
<path opacity="0.639" fill-rule="evenodd" clip-rule="evenodd" d="M69.4141 581.539C69.7455 581.516 70.0736 581.54 70.3984 581.609C70.6391 581.769 70.7094 581.98 70.6094 582.242C70.1714 582.24 69.7261 582.264 69.2734 582.312C69.0966 582.02 69.1435 581.763 69.4141 581.539Z" fill="#D98932"/>
<path opacity="0.703" fill-rule="evenodd" clip-rule="evenodd" d="M73.0703 581.539C73.4106 581.51 73.7388 581.557 74.0547 581.68C74.2113 581.852 74.2348 582.039 74.125 582.242C73.7344 582.235 73.336 582.259 72.9297 582.312C72.7407 582.011 72.7876 581.753 73.0703 581.539Z" fill="#D98932"/>
<path opacity="0.721" fill-rule="evenodd" clip-rule="evenodd" d="M70.8203 583.508C71.1629 583.482 71.4676 583.576 71.7344 583.789C72.1038 583.408 72.4085 583.432 72.6485 583.859C72.6035 584.092 72.4629 584.232 72.2266 584.281C71.8516 584.375 71.4766 584.375 71.1016 584.281C70.8688 584.078 70.775 583.82 70.8203 583.508Z" fill="#D98932"/>
<path opacity="0.681" fill-rule="evenodd" clip-rule="evenodd" d="M67.8672 590.82C68.2451 590.797 68.6201 590.821 68.9922 590.891C69.1926 591.132 69.1458 591.319 68.8516 591.453C68.2302 591.66 67.9021 591.449 67.8672 590.82Z" fill="#D98932"/>
<path opacity="0.648" fill-rule="evenodd" clip-rule="evenodd" d="M74.3359 590.82C74.7138 590.797 75.0888 590.821 75.4609 590.891C75.6335 591.114 75.5866 591.301 75.3203 591.453C74.8432 591.617 74.4682 591.5 74.1953 591.102C74.2463 591.006 74.2932 590.912 74.3359 590.82Z" fill="#D98932"/>
</g>
<g clip-path="url(#clip4_1_2)">
<path opacity="0.816" fill-rule="evenodd" clip-rule="evenodd" d="M244.203 610.922C245.349 610.922 246.495 610.922 247.641 610.922C247.981 611.016 248.242 611.224 248.422 611.547C248.347 611.7 248.243 611.83 248.109 611.938C244.513 611.331 241.466 612.346 238.969 614.984C236.894 617.597 236.321 620.514 237.25 623.734C237.584 624.611 238.001 625.445 238.5 626.234C240.212 626.123 240.941 626.904 240.688 628.578C240.172 629.316 239.469 629.55 238.578 629.281C237.809 628.724 237.6 627.995 237.953 627.094C236.952 625.744 236.275 624.259 235.922 622.641C235.922 621.495 235.922 620.349 235.922 619.203C236.964 614.724 239.724 611.964 244.203 610.922ZM238.891 627.328C239.775 627.2 240.035 627.538 239.672 628.344C238.772 628.522 238.512 628.183 238.891 627.328Z" fill="#D98932"/>
<path opacity="0.566" fill-rule="evenodd" clip-rule="evenodd" d="M249.203 611.547C249.931 611.471 250.139 611.757 249.828 612.406C249.083 612.533 248.874 612.246 249.203 611.547Z" fill="#D98932"/>
<path opacity="0.816" fill-rule="evenodd" clip-rule="evenodd" d="M255.922 619.203C255.922 620.349 255.922 621.495 255.922 622.641C254.88 627.12 252.12 629.88 247.641 630.922C246.443 630.922 245.245 630.922 244.047 630.922C243.746 630.673 243.694 630.387 243.891 630.062C247.434 630.479 250.429 629.411 252.875 626.859C254.95 624.246 255.523 621.33 254.594 618.109C254.26 617.232 253.843 616.399 253.344 615.609C251.632 615.721 250.903 614.94 251.156 613.266C251.672 612.528 252.375 612.294 253.266 612.562C254.035 613.119 254.243 613.848 253.891 614.75C254.892 616.1 255.569 617.585 255.922 619.203ZM252.172 613.422C253.056 613.294 253.316 613.632 252.953 614.437C252.053 614.615 251.793 614.277 252.172 613.422Z" fill="#D98932"/>
<path opacity="0.835" fill-rule="evenodd" clip-rule="evenodd" d="M245.609 613.422C246.787 613.687 247.542 614.417 247.875 615.609C247.903 616.138 247.981 616.659 248.109 617.172C248.873 616.912 249.576 617.017 250.219 617.484C250.35 618.331 250.298 619.165 250.063 619.984C249.94 620.263 249.758 620.498 249.516 620.688C249.883 620.705 250.117 620.887 250.219 621.234C250.531 624.073 249.255 625.532 246.391 625.609C246.417 626.496 246.391 627.382 246.313 628.266C246.052 628.474 245.792 628.474 245.531 628.266C245.453 627.382 245.427 626.496 245.453 625.609C242.334 625.432 241.136 623.843 241.859 620.844C242.016 620.792 242.172 620.74 242.328 620.688C241.728 620.087 241.468 619.358 241.547 618.5C241.392 617.43 241.861 616.935 242.953 617.016C243.223 617.03 243.484 617.082 243.734 617.172C243.702 615.571 244.327 614.321 245.609 613.422ZM245.766 614.516C246.59 614.884 247.007 615.535 247.016 616.469C246.995 617.318 246.63 617.969 245.922 618.422C244.525 617.18 244.472 615.878 245.766 614.516ZM242.484 617.953C244.464 617.953 245.453 618.943 245.453 620.922C243.389 621.016 242.4 620.026 242.484 617.953ZM248.422 617.953C248.734 617.953 249.047 617.953 249.359 617.953C249.444 620.026 248.454 621.016 246.391 620.922C246.339 619.405 247.016 618.416 248.422 617.953ZM248.891 621.547C249.196 621.663 249.352 621.897 249.359 622.25C249.098 623.839 248.16 624.621 246.547 624.594C246.296 623.478 246.661 622.593 247.641 621.938C248.07 621.79 248.487 621.66 248.891 621.547ZM242.484 621.703C243.748 621.488 244.659 621.957 245.219 623.109C245.394 623.569 245.447 624.038 245.375 624.516C243.43 624.629 242.467 623.691 242.484 621.703Z" fill="#D98932"/>
<path opacity="0.584" fill-rule="evenodd" clip-rule="evenodd" d="M242.016 629.359C242.744 629.284 242.952 629.57 242.641 630.219C241.892 630.351 241.684 630.064 242.016 629.359Z" fill="#D98932"/>
</g>
<g clip-path="url(#clip5_1_2)">
<path opacity="0.758" fill-rule="evenodd" clip-rule="evenodd" d="M118.926 715.152C118.926 714.707 118.926 714.262 118.926 713.816C119.525 713.204 120.218 713.08 121.004 713.445C121.232 713.61 121.331 713.833 121.301 714.113C121.897 714.089 122.49 714.113 123.082 714.187C124.096 715.202 125.111 716.216 126.125 717.23C126.198 717.422 126.222 717.62 126.199 717.824C125.995 717.847 125.797 717.823 125.605 717.75C124.665 716.81 123.725 715.87 122.785 714.93C122.012 714.681 121.418 714.879 121.004 715.523C120.205 715.907 119.513 715.783 118.926 715.152ZM119.816 713.965C120.562 713.877 120.809 714.173 120.559 714.855C119.643 715.079 119.395 714.782 119.816 713.965Z" fill="#CB781E"/>
<path opacity="0.781" fill-rule="evenodd" clip-rule="evenodd" d="M137.926 725.543C137.926 725.79 137.926 726.038 137.926 726.285C137.321 726.663 136.678 726.91 135.996 727.027C136.096 726.457 136.442 726.086 137.035 725.914C135.971 725.258 134.882 724.639 133.77 724.059C133.622 724.694 133.573 725.338 133.621 725.988C133.423 725.988 133.225 725.988 133.027 725.988C133.052 725.195 133.027 724.403 132.953 723.613C132.87 723.536 132.771 723.486 132.656 723.465C131.485 724.013 130.371 724.657 129.316 725.395C130.633 726.191 131.969 726.958 133.324 727.695C133.522 727.794 133.72 727.794 133.918 727.695C134.34 727.47 134.761 727.247 135.18 727.027C135.402 727.052 135.526 727.176 135.551 727.398C135.199 727.847 134.754 728.193 134.215 728.437C132.337 729.562 130.432 730.626 128.5 731.629C125.298 729.867 122.106 728.086 118.926 726.285C118.926 726.038 118.926 725.79 118.926 725.543C119.53 725.165 120.173 724.918 120.855 724.801C120.772 725.32 120.476 725.691 119.965 725.914C121.09 726.563 122.204 727.231 123.305 727.918C124.727 727.095 126.137 726.254 127.535 725.395C126.485 724.659 125.372 724.016 124.195 723.465C123.937 723.631 123.665 723.779 123.379 723.91C123.256 724.697 123.182 725.489 123.156 726.285C123.05 726.426 122.926 726.451 122.785 726.359C122.666 725.704 122.592 725.036 122.562 724.355C122.286 724.543 121.989 724.691 121.672 724.801C121.449 724.776 121.326 724.652 121.301 724.43C121.667 724.058 122.088 723.737 122.562 723.465C122.636 723.172 122.661 722.875 122.637 722.574C121.016 722.586 120.373 721.794 120.707 720.199C121.393 719.843 122.061 719.892 122.711 720.348C123.296 719.751 123.964 719.628 124.715 719.977C125.139 721.331 124.644 721.999 123.23 721.98C123.185 722.34 123.234 722.687 123.379 723.02C124.913 722.154 126.447 721.288 127.98 720.422C128.117 720.119 128.167 719.797 128.129 719.457C126.891 719.382 126.495 718.763 126.941 717.602C127.687 717.38 128.306 717.553 128.797 718.121C129.948 717.838 130.343 718.283 129.984 719.457C129.642 719.818 129.222 719.966 128.723 719.902C128.697 720.099 128.747 720.272 128.871 720.422C130.22 721.208 131.58 721.975 132.953 722.723C133.027 721.734 133.052 720.745 133.027 719.754C130.724 719.846 129.759 718.757 130.133 716.488C130.788 716.32 131.456 716.295 132.137 716.414C132.485 716.465 132.757 716.639 132.953 716.934C133.558 714.8 134.968 713.934 137.184 714.336C137.32 714.391 137.443 714.466 137.555 714.559C137.804 715.664 137.532 716.604 136.738 717.379C136.568 717.283 136.42 717.159 136.293 717.008C136.771 716.423 136.969 715.755 136.887 715.004C134.86 714.777 133.771 715.668 133.621 717.676C134.358 717.712 135.075 717.613 135.773 717.379C136.272 717.672 136.247 717.944 135.699 718.195C135.008 718.269 134.316 718.294 133.621 718.27C133.573 718.871 133.622 719.465 133.77 720.051C135.896 719.53 136.391 720.198 135.254 722.055C134.731 722.253 134.186 722.327 133.621 722.277C133.577 722.59 133.626 722.887 133.77 723.168C135.159 723.961 136.544 724.753 137.926 725.543ZM130.801 717.082C132.23 716.928 132.972 717.571 133.027 719.012C131.586 719.152 130.843 718.509 130.801 717.082ZM127.387 718.418C127.686 718.217 127.933 718.291 128.129 718.641C127.833 718.732 127.585 718.657 127.387 718.418ZM128.871 718.715C129.613 718.663 129.662 718.811 129.02 719.16C128.921 719.135 128.822 719.111 128.723 719.086C128.834 718.986 128.884 718.863 128.871 718.715ZM123.676 720.496C123.824 720.496 123.973 720.496 124.121 720.496C124.112 721.132 123.816 721.33 123.23 721.09C123.33 720.843 123.479 720.646 123.676 720.496ZM121.301 720.645C122.293 720.666 122.664 721.111 122.414 721.98C121.638 721.872 121.267 721.427 121.301 720.645ZM134.066 720.645C134.413 720.645 134.759 720.645 135.105 720.645C134.93 721.474 134.436 721.771 133.621 721.535C133.714 721.203 133.863 720.906 134.066 720.645ZM127.98 721.238C128.127 721.902 128.176 722.594 128.129 723.316C128.327 723.316 128.525 723.316 128.723 723.316C128.698 722.622 128.723 721.929 128.797 721.238C129.799 721.826 130.814 722.395 131.84 722.945C130.702 723.613 129.564 724.281 128.426 724.949C127.288 724.281 126.15 723.613 125.012 722.945C126.035 722.41 127.024 721.841 127.98 721.238ZM128.277 725.84C129.85 726.577 131.384 727.393 132.879 728.289C131.39 729.255 129.856 730.097 128.277 730.812C126.892 729.971 125.507 729.13 124.121 728.289C125.532 727.493 126.917 726.677 128.277 725.84ZM127.387 728.066C127.686 727.866 127.933 727.94 128.129 728.289C127.833 728.38 127.585 728.306 127.387 728.066ZM128.871 728.066C129.432 728.062 129.456 728.161 128.945 728.363C128.695 728.336 128.671 728.237 128.871 728.066Z" fill="#CB781E"/>
<path opacity="0.654" fill-rule="evenodd" clip-rule="evenodd" d="M119.52 716.191C119.869 716.167 120.216 716.192 120.559 716.266C120.689 716.467 120.739 716.69 120.707 716.934C120.308 716.958 119.912 716.933 119.52 716.859C119.337 716.638 119.337 716.416 119.52 716.191Z" fill="#CB781E"/>
<path opacity="0.692" fill-rule="evenodd" clip-rule="evenodd" d="M121.152 716.191C121.797 716.167 122.441 716.192 123.082 716.266C123.213 716.467 123.262 716.69 123.23 716.934C122.536 716.958 121.843 716.933 121.152 716.859C120.97 716.638 120.97 716.415 121.152 716.191Z" fill="#CB781E"/>
<path opacity="0.732" fill-rule="evenodd" clip-rule="evenodd" d="M119.52 717.379C120.708 717.354 121.896 717.379 123.082 717.453C123.28 717.651 123.28 717.849 123.082 718.047C121.895 718.146 120.707 718.146 119.52 718.047C119.337 717.826 119.337 717.603 119.52 717.379Z" fill="#CB781E"/>
<path opacity="0.726" fill-rule="evenodd" clip-rule="evenodd" d="M119.52 718.566C120.757 718.566 121.994 718.566 123.23 718.566C123.262 718.81 123.213 719.033 123.082 719.234C121.895 719.333 120.707 719.333 119.52 719.234C119.337 719.013 119.337 718.791 119.52 718.566Z" fill="#CB781E"/>
<path opacity="0.819" fill-rule="evenodd" clip-rule="evenodd" d="M126.941 727.176C127.389 727.151 127.835 727.176 128.277 727.25C128.352 727.324 128.426 727.398 128.5 727.473C129.773 727.014 130.218 727.41 129.836 728.66C129.519 728.924 129.148 729.023 128.723 728.957C128.747 729.258 128.722 729.555 128.648 729.848C128.5 730.046 128.352 730.046 128.203 729.848C128.13 729.555 128.105 729.258 128.129 728.957C126.854 728.983 126.458 728.39 126.941 727.176ZM127.387 728.066C127.585 728.306 127.833 728.38 128.129 728.289C127.933 727.94 127.686 727.866 127.387 728.066ZM128.871 728.066C128.671 728.237 128.695 728.336 128.945 728.363C129.456 728.161 129.432 728.062 128.871 728.066Z" fill="#CB781E"/>
</g>
</g>
<defs>
<filter id="filter0_d_1_2" x="-25" y="188" width="410" height="410" filterUnits="userSpaceOnUse" color-interpolation-filters="sRGB">
<feFlood flood-opacity="0" result="BackgroundImageFix"/>
<feColorMatrix in="SourceAlpha" type="matrix" values="0 0 0 0 0 0 0 0 0 0 0 0 0 0 0 0 0 0 127 0" result="hardAlpha"/>
<feOffset/>
<feGaussianBlur stdDeviation="12.5"/>
<feColorMatrix type="matrix" values="0 0 0 0 1 0 0 0 0 1 0 0 0 0 1 0 0 0 0.15 0"/>
<feBlend mode="normal" in2="BackgroundImageFix" result="effect1_dropShadow_1_2"/>
<feBlend mode="normal" in="SourceGraphic" in2="effect1_dropShadow_1_2" result="shape"/>
</filter>
<filter id="filter1_d_1_2" x="69" y="277" width="225" height="225" filterUnits="userSpaceOnUse" color-interpolation-filters="sRGB">
<feFlood flood-opacity="0" result="BackgroundImageFix"/>
<feColorMatrix in="SourceAlpha" type="matrix" values="0 0 0 0 0 0 0 0 0 0 0 0 0 0 0 0 0 0 127 0" result="hardAlpha"/>
<feOffset/>
<feGaussianBlur stdDeviation="12.5"/>
<feColorMatrix type="matrix" values="0 0 0 0 1 0 0 0 0 1 0 0 0 0 1 0 0 0 0.15 0"/>
<feBlend mode="normal" in2="BackgroundImageFix" result="effect1_dropShadow_1_2"/>
<feBlend mode="normal" in="SourceGraphic" in2="effect1_dropShadow_1_2" result="shape"/>
</filter>
<clipPath id="clip0_1_2">
<rect width="360" height="800" rx="16" fill="white"/>
</clipPath>
<clipPath id="clip1_1_2">
<rect width="22" height="22" fill="white" transform="translate(209 69)"/>
</clipPath>
<clipPath id="clip2_1_2">
<rect width="19" height="19" fill="white" transform="translate(63 246)"/>
</clipPath>
<clipPath id="clip3_1_2">
<rect width="18" height="18" fill="white" transform="translate(64 575)"/>
</clipPath>
<clipPath id="clip4_1_2">
<rect width="20" height="20" fill="white" transform="translate(236 611)"/>
</clipPath>
<clipPath id="clip5_1_2">
<rect width="19" height="19" fill="white" transform="translate(119 713)"/>
</clipPath>
</defs>
</svg>
