<svg width="38" height="38" viewBox="0 0 38 38" fill="none" xmlns="http://www.w3.org/2000/svg">
<g clip-path="url(#clip0_82_298)">
<path d="M34.8333 22.1667C36.5798 22.1667 38 20.7464 38 19V15.8333H34.8333V19H32.1258C31.1188 17.0826 29.1128 15.8333 26.9167 15.8333C24.4704 15.8333 22.2506 17.3771 21.3592 19.7758L19.7109 25.3333H15.8333V28.5H19C19 29.6273 19.2438 30.6945 19.6713 31.6667H19C17.2536 31.6667 15.8333 33.0869 15.8333 34.8333V38H19V34.8333H22.1667V34.7922C23.4935 35.7976 25.1275 36.4167 26.9167 36.4167C28.6837 36.4167 30.2987 35.815 31.6176 34.8333H34.8333V38H38V34.8333C38 33.0869 36.5798 31.6667 34.8333 31.6667H34.162C34.5879 30.6945 34.8333 29.6273 34.8333 28.5H38V25.3333H34.1034L33.1724 22.1667H34.8333ZM26.9167 33.25C24.2978 33.25 22.1667 31.1188 22.1667 28.5C22.1667 28.3717 22.1746 28.2467 22.1873 28.1216L24.3612 20.7781C24.7586 19.7141 25.7846 18.9984 26.9167 18.9984C28.0487 18.9984 29.0747 19.7141 29.4373 20.6752L31.6477 28.1216C31.6603 28.2467 31.6682 28.3717 31.6682 28.5C31.6682 31.1188 29.5355 33.25 26.9167 33.25ZM19 12.6667H22.1667V9.5H18.2701L17.3391 6.33333H19C20.7464 6.33333 22.1667 4.91308 22.1667 3.16667V0H19V3.16667H16.2925C15.2839 1.25083 13.2794 0 11.0833 0C8.91417 0 6.92708 1.21758 5.88367 3.16667H3.16667V0H0V3.16667C0 4.91308 1.42025 6.33333 3.16667 6.33333H4.81808L3.87758 9.5H0V12.6667H3.16667C3.16667 13.794 3.4105 14.8612 3.838 15.8333H3.16667C1.42025 15.8333 0 17.2536 0 19V22.1667H3.16667V19H6.33333V18.9588C7.66017 19.9643 9.29417 20.5833 11.0833 20.5833C15.4486 20.5833 19 17.0319 19 12.6667ZM6.33333 12.6667C6.33333 12.5384 6.34125 12.4118 6.35392 12.2883L8.52942 4.94633C8.92683 3.88233 9.95283 3.16667 11.0849 3.16667C12.217 3.16667 13.243 3.88233 13.6056 4.84342L15.8143 12.2883C15.827 12.4133 15.8349 12.5384 15.8349 12.6667C15.8349 15.2855 13.7038 17.4167 11.0849 17.4167C8.46608 17.4167 6.33333 15.2855 6.33333 12.6667Z" fill="#F58220"/>
</g>
<defs>
<clipPath id="clip0_82_298">
<rect width="38" height="38" fill="white"/>
</clipPath>
</defs>
</svg>
