<?xml version="1.0" encoding="UTF-8"?>
<!DOCTYPE svg PUBLIC "-//W3C//DTD SVG 1.1//EN" "http://www.w3.org/Graphics/SVG/1.1/DTD/svg11.dtd">
<svg xmlns="http://www.w3.org/2000/svg" version="1.1" width="512px" height="512px" style="shape-rendering:geometricPrecision; text-rendering:geometricPrecision; image-rendering:optimizeQuality; fill-rule:evenodd; clip-rule:evenodd" xmlns:xlink="http://www.w3.org/1999/xlink">
<g><path style="opacity:0.973" fill="#000000" d="M 232.5,-0.5 C 247.833,-0.5 263.167,-0.5 278.5,-0.5C 321.869,4.01272 361.869,18.1794 398.5,42C 410.41,52.6081 411.41,64.1081 401.5,76.5C 395.725,81.4446 389.058,83.2779 381.5,82C 367.148,73.8234 352.482,66.1567 337.5,59C 261.686,30.4758 191.019,39.8092 125.5,87C 59.1373,142.283 32.9706,212.783 47,298.5C 65.3183,373.483 110.152,425.65 181.5,455C 261.319,481.368 333.319,467.701 397.5,414C 449.591,364.748 472.757,304.248 467,232.5C 464.883,218.249 462.383,204.082 459.5,190C 459.951,176.215 467.118,169.048 481,168.5C 488.463,168.565 494.463,171.565 499,177.5C 502.258,184.528 504.591,191.861 506,199.5C 508.083,210.602 509.916,221.602 511.5,232.5C 511.5,247.833 511.5,263.167 511.5,278.5C 498.551,378.271 446.551,449.438 355.5,492C 330.622,502.136 304.955,508.636 278.5,511.5C 263.167,511.5 247.833,511.5 232.5,511.5C 132.727,498.549 61.5605,446.549 19,355.5C 8.86392,330.621 2.36392,304.954 -0.5,278.5C -0.5,263.167 -0.5,247.833 -0.5,232.5C 12.4486,132.729 64.4486,61.5622 155.5,19C 180.379,8.86392 206.046,2.36392 232.5,-0.5 Z"/></g>
<g><path style="opacity:0.972" fill="#000000" d="M 511.5,56.5 C 511.5,61.1667 511.5,65.8333 511.5,70.5C 510.108,72.2726 508.941,74.2726 508,76.5C 428.167,156.333 348.333,236.167 268.5,316C 259.833,320.667 251.167,320.667 242.5,316C 212.333,285.833 182.167,255.667 152,225.5C 145.72,213.153 147.886,202.653 158.5,194C 167.555,190.184 176.222,190.85 184.5,196C 208.014,219.681 231.68,243.181 255.5,266.5C 329.32,193.18 402.986,119.68 476.5,46C 491.701,38.1249 503.368,41.6249 511.5,56.5 Z"/></g>
</svg>
