<svg width="38" height="38" viewBox="0 0 38 38" fill="none" xmlns="http://www.w3.org/2000/svg">
<g clip-path="url(#clip0_76_218)">
<path d="M14.25 38H1.58333C1.16341 38 0.76068 37.8332 0.463748 37.5363C0.166815 37.2393 0 36.8366 0 36.4167C0 35.9967 0.166815 35.594 0.463748 35.2971C0.76068 35.0001 1.16341 34.8333 1.58333 34.8333H14.25C14.6699 34.8333 15.0727 35.0001 15.3696 35.2971C15.6665 35.594 15.8333 35.9967 15.8333 36.4167C15.8333 36.8366 15.6665 37.2393 15.3696 37.5363C15.0727 37.8332 14.6699 38 14.25 38Z" fill="#F58220"/>
<path d="M11.0833 31.6667H1.58333C1.16341 31.6667 0.76068 31.4999 0.463748 31.2029C0.166815 30.906 0 30.5033 0 30.0833C0 29.6634 0.166815 29.2607 0.463748 28.9637C0.76068 28.6668 1.16341 28.5 1.58333 28.5H11.0833C11.5033 28.5 11.906 28.6668 12.2029 28.9637C12.4999 29.2607 12.6667 29.6634 12.6667 30.0833C12.6667 30.5033 12.4999 30.906 12.2029 31.2029C11.906 31.4999 11.5033 31.6667 11.0833 31.6667Z" fill="#F58220"/>
<path d="M7.91667 25.3333H1.58333C1.16341 25.3333 0.76068 25.1665 0.463748 24.8696C0.166815 24.5727 0 24.1699 0 23.75C0 23.3301 0.166815 22.9273 0.463748 22.6304C0.76068 22.3335 1.16341 22.1667 1.58333 22.1667H7.91667C8.33659 22.1667 8.73932 22.3335 9.03625 22.6304C9.33319 22.9273 9.5 23.3301 9.5 23.75C9.5 24.1699 9.33319 24.5727 9.03625 24.8696C8.73932 25.1665 8.33659 25.3333 7.91667 25.3333Z" fill="#F58220"/>
<path d="M20.5833 37.9288C20.1634 37.9474 19.7533 37.7985 19.4431 37.5148C19.133 37.2311 18.9482 36.8358 18.9295 36.4159C18.9109 35.996 19.0597 35.5858 19.3435 35.2757C19.6272 34.9655 20.0225 34.7808 20.4424 34.7621C23.4388 34.4879 26.295 33.3656 28.6766 31.5267C31.0581 29.6877 32.8664 27.2082 33.8895 24.3786C34.9127 21.549 35.1084 18.4864 34.4537 15.5496C33.799 12.6128 32.3211 9.92332 30.193 7.79619C28.0649 5.66905 25.3747 4.19235 22.4376 3.53902C19.5005 2.8857 16.438 3.08281 13.6089 4.10727C10.7797 5.13173 8.30107 6.94111 6.4632 9.32351C4.62534 11.7059 3.50437 14.5627 3.23158 17.5592C3.19379 17.9774 2.99139 18.3635 2.66893 18.6325C2.34646 18.9016 1.93033 19.0315 1.51208 18.9937C1.09383 18.9559 0.707732 18.7535 0.438711 18.431C0.16969 18.1085 0.039788 17.6924 0.0775813 17.2742C0.519155 12.4027 2.82245 7.88928 6.50802 4.67332C10.1936 1.45735 14.9774 -0.213325 19.8638 0.00905023C24.7501 0.231426 29.3625 2.32972 32.7407 5.86716C36.1189 9.40459 38.0027 14.1086 38 19C38.0243 23.7474 36.2606 28.3299 33.0598 31.8361C29.8591 35.3423 25.4558 37.5151 20.7258 37.9224C20.6783 37.9272 20.6292 37.9288 20.5833 37.9288Z" fill="#F58220"/>
<path d="M26.1673 14.0107C26.1673 14.5457 25.7354 14.9776 25.2004 14.9776H24.2206C24.053 17.4917 21.9515 19.49 19.3987 19.49H18.2384L23.2343 23.577C23.6468 23.9122 23.7113 24.5246 23.3697 24.9371C23.1763 25.1692 22.8991 25.2917 22.6219 25.2917C22.4092 25.2917 22.19 25.2208 22.0095 25.0725L14.9185 19.2708C14.6027 19.013 14.4802 18.5811 14.622 18.1943C14.7574 17.8075 15.1248 17.5497 15.5309 17.5497H19.3987C20.8878 17.5497 22.1191 16.4216 22.2802 14.9712H15.5309C14.9959 14.9712 14.564 14.5393 14.564 14.0042C14.564 13.4692 14.9959 13.0373 15.5309 13.0373H21.8096C21.2875 12.2573 20.4043 11.748 19.3987 11.748H15.5309C14.9959 11.748 14.564 11.3161 14.564 10.7811C14.564 10.246 14.9959 9.81412 15.5309 9.81412H25.2004C25.7354 9.81412 26.1673 10.246 26.1673 10.7811C26.1673 11.3161 25.7354 11.748 25.2004 11.748H23.2665C23.5566 12.1348 23.7951 12.5731 23.9627 13.0373H25.2068C25.7419 13.0373 26.1738 13.4692 26.1738 14.0042L26.1673 14.0107Z" fill="#F58220"/>
</g>
<defs>
<clipPath id="clip0_76_218">
<rect width="38" height="38" fill="white"/>
</clipPath>
</defs>
</svg>
