<svg width="38" height="38" viewBox="0 0 38 38" fill="none" xmlns="http://www.w3.org/2000/svg">
<g clip-path="url(#clip0_76_224)">
<path d="M36.4167 19.0001C35.5411 19.0001 34.8333 19.7079 34.8333 20.5835V25.3335H25.1972L15.8333 15.9696V3.16679H17.4167C18.2907 3.16679 19 2.45904 19 1.58346C19 0.707876 18.2907 0.000126119 17.4167 0.000126119H7.91667C3.55142 0.000126119 0 3.55154 0 7.91679V30.0835C0 34.4487 3.55142 38.0001 7.91667 38.0001H30.0833C34.4486 38.0001 38 34.4487 38 30.0835V20.5835C38 19.7079 37.2923 19.0001 36.4167 19.0001ZM7.91667 3.16679H12.6667V15.6751L3.16667 20.7402V7.91679C3.16667 5.29796 5.29783 3.16679 7.91667 3.16679ZM3.16667 30.0835V24.3312L13.9603 18.5742L22.4501 27.064L16.625 34.8319H7.91667C5.29783 34.8319 3.16667 32.7023 3.16667 30.0835ZM30.0833 34.8335H20.5833L25.3333 28.5001H34.8333V30.0835C34.8333 32.7023 32.7022 34.8335 30.0833 34.8335ZM26.0474 17.716C26.9404 18.5916 28.1168 19.0286 29.2917 19.027C30.4665 19.027 31.6413 18.5916 32.5359 17.716L35.4492 14.8645C37.0943 13.221 38 11.0344 38 8.70688C38 6.37938 37.0943 4.19279 35.4492 2.54929C33.8042 0.904209 31.6176 -0.00145721 29.2917 -0.00145721C26.9658 -0.00145721 24.7776 0.904209 23.1341 2.54929C21.489 4.19279 20.5833 6.37938 20.5833 8.70688C20.5833 11.0344 21.489 13.221 23.1468 14.8755L26.0474 17.7145V17.716ZM25.3729 4.78971C26.4195 3.74313 27.8097 3.16679 29.2917 3.16679C30.7737 3.16679 32.1623 3.74313 33.2104 4.78971C34.2586 5.83629 34.8333 7.22804 34.8333 8.70846C34.8333 10.1889 34.257 11.579 33.2215 12.6145L30.3208 15.4535C29.7524 16.0076 28.8309 16.0108 28.2609 15.4535L25.3729 12.6272C24.3263 11.5806 23.75 10.1889 23.75 8.70846C23.75 7.22804 24.3263 5.83788 25.3729 4.78971ZM26.9151 8.69896C26.9151 7.38796 27.9791 6.32396 29.2901 6.32396C30.6011 6.32396 31.6651 7.38796 31.6651 8.69896C31.6651 10.01 30.6011 11.074 29.2901 11.074C27.9791 11.074 26.9151 10.01 26.9151 8.69896Z" fill="#F58220"/>
</g>
<defs>
<clipPath id="clip0_76_224">
<rect width="38" height="38" fill="white"/>
</clipPath>
</defs>
</svg>
